<svg xmlns="http://www.w3.org/2000/svg" xmlns:xlink="http://www.w3.org/1999/xlink" xmlns:lucid="lucid" width="928" height="260"><g transform="translate(-321 -130)" lucid:page-tab-id="0_0"><path d="M940 146a6 6 0 0 1 6-6h288a6 6 0 0 1 6 6v228a6 6 0 0 1-6 6H946a6 6 0 0 1-6-6zM635 146a6 6 0 0 1 6-6h288a6 6 0 0 1 6 6v228a6 6 0 0 1-6 6H641a6 6 0 0 1-6-6zM330 146a6 6 0 0 1 6-6h288a6 6 0 0 1 6 6v228a6 6 0 0 1-6 6H336a6 6 0 0 1-6-6z" stroke="#3a414a" stroke-width="2" fill="#fff"/><path d="M402.22 229.35c0 16.2-13.93 29.35-31.1 29.35-17.2 0-31.12-13.14-31.12-29.35 0-16.2 13.93-29.35 31.1-29.35 17.2 0 31.12 13.14 31.12 29.35z" stroke="#3a414a" stroke-width="2" fill="#fff"/><use xlink:href="#a" transform="matrix(1,0,0,1,345,205) translate(20.574074074074076 29.534722222222218)"/><path d="M511.1 229.35c0 16.2-13.92 29.35-31.1 29.35s-31.1-13.14-31.1-29.35c0-16.2 13.92-29.35 31.1-29.35s31.1 13.14 31.1 29.35z" stroke="#3a414a" stroke-width="2" fill="#fff"/><use xlink:href="#b" transform="matrix(1,0,0,1,453.8888888888889,205) translate(20.574074074074076 29.534722222222218)"/><path d="M620 229.35c0 16.2-13.93 29.35-31.1 29.35-17.2 0-31.12-13.14-31.12-29.35 0-16.2 13.93-29.35 31.1-29.35 17.2 0 31.12 13.14 31.12 29.35z" stroke="#3a414a" stroke-width="2" fill="#fff"/><use xlink:href="#c" transform="matrix(1,0,0,1,562.7777777777778,205) translate(20.10493827160494 29.534722222222218)"/><path d="M402.22 335.98c0 16.2-13.93 29.35-31.1 29.35-17.2 0-31.12-13.14-31.12-29.35 0-16.2 13.93-29.35 31.1-29.35 17.2 0 31.12 13.14 31.12 29.35z" stroke="#3a414a" stroke-width="2" fill="#fff"/><use xlink:href="#d" transform="matrix(1,0,0,1,345,311.63510848126214) translate(20.10493827160494 29.534722222222218)"/><path d="M511.1 335.98c0 16.2-13.92 29.35-31.1 29.35s-31.1-13.14-31.1-29.35c0-16.2 13.92-29.35 31.1-29.35s31.1 13.14 31.1 29.35z" stroke="#3a414a" stroke-width="2" fill="#fff"/><use xlink:href="#e" transform="matrix(1,0,0,1,453.8888888888889,311.63510848126214) translate(20.574074074074076 29.534722222222218)"/><path d="M620 335.98c0 16.2-13.93 29.35-31.1 29.35-17.2 0-31.12-13.14-31.12-29.35 0-16.2 13.93-29.35 31.1-29.35 17.2 0 31.12 13.14 31.12 29.35z" stroke="#3a414a" stroke-width="2" fill="#fff"/><use xlink:href="#f" transform="matrix(1,0,0,1,562.7777777777778,311.63510848126214) translate(21.092592592592595 29.534722222222218)"/><path d="M371.1 260.7v43.93" stroke="#3a414a" stroke-width="2" stroke-linejoin="round" fill="none"/><path d="M371.1 259.7l1-.06v1.1h-2v-1.12zM372.1 305.7l-.98-.07-1 .06v-1.1h2z" stroke="#3a414a" stroke-width=".05" fill="#3a414a"/><use xlink:href="#g" transform="matrix(1,0,0,1,355.70370370370375,274.66701122811895) translate(0 10.666666666666664)"/><path d="M404.23 229.35h42.66" stroke="#3a414a" stroke-width="2" stroke-linejoin="round" fill="none"/><path d="M404.25 230.35h-1.1l.08-1-.07-1h1.1zM447.9 229.34l.05 1h-1.1v-2h1.12z" stroke="#3a414a" stroke-width=".05" fill="#3a414a"/><use xlink:href="#h" transform="matrix(1,0,0,1,421.8521867355204,209.3491124260355) translate(0 10.666666666666664)"/><path d="M480 260.7v43.93" stroke="#3a414a" stroke-width="2" stroke-linejoin="round" fill="none"/><path d="M480 259.7l1-.06v1.1h-2v-1.12zM481 305.7l-1-.07-1 .06v-1.1h2z" stroke="#3a414a" stroke-width=".05" fill="#3a414a"/><use xlink:href="#i" transform="matrix(1,0,0,1,464.5925925925926,274.667011228119) translate(0 10.666666666666664)"/><path d="M588.9 260.7v43.93" stroke="#3a414a" stroke-width="2" stroke-linejoin="round" fill="none"/><path d="M588.88 259.7l1-.06v1.1h-2v-1.12zM589.9 305.7l-1-.07-1 .06v-1.1h2z" stroke="#3a414a" stroke-width=".05" fill="#3a414a"/><use xlink:href="#j" transform="matrix(1,0,0,1,596.8888888888889,278.58127870069615) translate(0 10.666666666666664)"/><path d="M513.1 229.35h42.68" stroke="#3a414a" stroke-width="2" stroke-linejoin="round" fill="none"/><path d="M513.14 230.35h-1.1l.07-1-.05-1h1.1zM556.77 229.34l.07 1h-1.1v-2h1.12z" stroke="#3a414a" stroke-width=".05" fill="#3a414a"/><use xlink:href="#k" transform="matrix(1,0,0,1,530.7410756244092,209.3491124260355) translate(0 10.666666666666664)"/><path d="M404.23 335.98h42.66" stroke="#3a414a" stroke-width="2" stroke-linejoin="round" fill="none"/><path d="M404.25 336.98h-1.1l.08-1-.07-1h1.1zM447.9 335.98l.05 1h-1.1v-2h1.12z" stroke="#3a414a" stroke-width=".05" fill="#3a414a"/><use xlink:href="#l" transform="matrix(1,0,0,1,421.8521867355204,339.98422090729764) translate(0 10.666666666666664)"/><path d="M513.1 335.98h42.68" stroke="#3a414a" stroke-width="2" stroke-linejoin="round" fill="none"/><path d="M513.14 336.98h-1.1l.07-1-.05-1h1.1zM556.77 335.98l.07 1h-1.1v-2h1.12z" stroke="#3a414a" stroke-width=".05" fill="#3a414a"/><use xlink:href="#m" transform="matrix(1,0,0,1,530.7410756244092,339.98422090729764) translate(0 10.666666666666664)"/><path d="M503.27 313.8l62.28-62.33" stroke="#3a414a" stroke-width="2" fill="none"/><path d="M504 314.48l-.7.68-1.5-1.32.78-.77zM567 251.43l-.76.77-1.42-1.4.68-.7z" stroke="#3a414a" stroke-width=".05" fill="#3a414a"/><use xlink:href="#n" transform="matrix(1,0,0,1,544.4699711503683,277.62683116792806) translate(0 10.666666666666664)"/><path d="M393.6 252.24l62.3 62.32" stroke="#3a414a" stroke-width="2" fill="none"/><path d="M394.33 251.55l-1.4 1.42-.8-.8 1.55-1.27zM457.3 314.55l-.24.2-1.13 1.27-.77-.77 1.42-1.4z" stroke="#3a414a" stroke-width=".05" fill="#3a414a"/><use xlink:href="#o" transform="matrix(1,0,0,1,403.3617382042339,274.4764839248817) translate(0 10.666666666666664)"/><path d="M702.22 229.35c0 16.2-13.93 29.35-31.1 29.35-17.2 0-31.12-13.14-31.12-29.35 0-16.2 13.93-29.35 31.1-29.35 17.2 0 31.12 13.14 31.12 29.35z" stroke="#3a414a" stroke-width="2" fill="#fff"/><use xlink:href="#p" transform="matrix(1,0,0,1,645,205) translate(20.574074074074076 29.534722222222218)"/><path d="M811.1 229.35c0 16.2-13.92 29.35-31.1 29.35s-31.1-13.14-31.1-29.35c0-16.2 13.92-29.35 31.1-29.35s31.1 13.14 31.1 29.35z" stroke="#3a414a" stroke-width="2" fill="#fff"/><use xlink:href="#q" transform="matrix(1,0,0,1,753.8888888888889,205) translate(20.574074074074076 29.534722222222218)"/><path d="M920 229.35c0 16.2-13.93 29.35-31.1 29.35-17.2 0-31.12-13.14-31.12-29.35 0-16.2 13.93-29.35 31.1-29.35 17.2 0 31.12 13.14 31.12 29.35z" stroke="#3a414a" stroke-width="2" fill="#fff"/><use xlink:href="#r" transform="matrix(1,0,0,1,862.7777777777778,205) translate(20.10493827160494 29.534722222222218)"/><path d="M702.22 335.98c0 16.2-13.93 29.35-31.1 29.35-17.2 0-31.12-13.14-31.12-29.35 0-16.2 13.93-29.35 31.1-29.35 17.2 0 31.12 13.14 31.12 29.35z" stroke="#3a414a" stroke-width="2" fill="#fff"/><use xlink:href="#d" transform="matrix(1,0,0,1,645,311.63510848126214) translate(20.10493827160494 29.534722222222218)"/><path d="M811.1 335.98c0 16.2-13.92 29.35-31.1 29.35s-31.1-13.14-31.1-29.35c0-16.2 13.92-29.35 31.1-29.35s31.1 13.14 31.1 29.35z" stroke="#3a414a" stroke-width="2" fill="#fff"/><use xlink:href="#e" transform="matrix(1,0,0,1,753.8888888888889,311.63510848126214) translate(20.574074074074076 29.534722222222218)"/><path d="M920 335.98c0 16.2-13.93 29.35-31.1 29.35-17.2 0-31.12-13.14-31.12-29.35 0-16.2 13.93-29.35 31.1-29.35 17.2 0 31.12 13.14 31.12 29.35z" stroke="#3a414a" stroke-width="2" fill="#fff"/><use xlink:href="#f" transform="matrix(1,0,0,1,862.7777777777778,311.63510848126214) translate(21.092592592592595 29.534722222222218)"/><path d="M704.23 229.35h42.66" stroke="#3a414a" stroke-width="2" stroke-linejoin="round" fill="none"/><path d="M704.25 230.35h-1.1l.08-1-.07-1h1.1zM747.9 229.34l.05 1h-1.1v-2h1.12z" stroke="#3a414a" stroke-width=".05" fill="#3a414a"/><use xlink:href="#s" transform="matrix(1,0,0,1,721.8521867355203,209.3491124260355) translate(0 10.666666666666664)"/><path d="M813.1 229.35h42.68" stroke="#3a414a" stroke-width="2" stroke-linejoin="round" fill="none"/><path d="M813.14 230.35h-1.1l.07-1-.05-1h1.1zM856.77 229.34l.07 1h-1.1v-2h1.12z" stroke="#3a414a" stroke-width=".05" fill="#3a414a"/><use xlink:href="#t" transform="matrix(1,0,0,1,830.7410756244092,209.3491124260355) translate(0 10.666666666666664)"/><path d="M704.23 335.98h42.66" stroke="#3a414a" stroke-width="2" stroke-linejoin="round" fill="none"/><path d="M704.25 336.98h-1.1l.08-1-.07-1h1.1zM747.9 335.98l.05 1h-1.1v-2h1.12z" stroke="#3a414a" stroke-width=".05" fill="#3a414a"/><use xlink:href="#u" transform="matrix(1,0,0,1,721.8521867355203,339.98422090729764) translate(0 10.666666666666664)"/><path d="M813.1 335.98h42.68" stroke="#3a414a" stroke-width="2" stroke-linejoin="round" fill="none"/><path d="M813.14 336.98h-1.1l.07-1-.05-1h1.1zM856.77 335.98l.07 1h-1.1v-2h1.12z" stroke="#3a414a" stroke-width=".05" fill="#3a414a"/><use xlink:href="#v" transform="matrix(1,0,0,1,830.7410756244092,339.98422090729764) translate(0 10.666666666666664)"/><path d="M693.6 252.24l62.3 62.32" stroke="#3a414a" stroke-width="2" fill="none"/><path d="M694.33 251.55l-1.4 1.42-.8-.8 1.55-1.27zM757.3 314.55l-.24.2-1.13 1.27-.77-.77 1.42-1.4z" stroke="#3a414a" stroke-width=".05" fill="#3a414a"/><use xlink:href="#w" transform="matrix(1,0,0,1,709.2941074720151,280.4122601580953) translate(0 10.666666666666664)"/><path d="M1012.22 229.35c0 16.2-13.93 29.35-31.1 29.35-17.2 0-31.12-13.14-31.12-29.35 0-16.2 13.93-29.35 31.1-29.35 17.2 0 31.12 13.14 31.12 29.35z" stroke="#3a414a" stroke-width="2" fill="#fff"/><use xlink:href="#p" transform="matrix(1,0,0,1,955,205) translate(20.574074074074076 29.534722222222218)"/><path d="M1121.1 229.35c0 16.2-13.92 29.35-31.1 29.35s-31.1-13.14-31.1-29.35c0-16.2 13.92-29.35 31.1-29.35s31.1 13.14 31.1 29.35z" stroke="#3a414a" stroke-width="2" fill="#fff"/><use xlink:href="#q" transform="matrix(1,0,0,1,1063.888888888889,205) translate(20.574074074074076 29.534722222222218)"/><path d="M1230 229.35c0 16.2-13.93 29.35-31.1 29.35-17.2 0-31.12-13.14-31.12-29.35 0-16.2 13.93-29.35 31.1-29.35 17.2 0 31.12 13.14 31.12 29.35z" stroke="#3a414a" stroke-width="2" fill="#fff"/><use xlink:href="#r" transform="matrix(1,0,0,1,1172.7777777777778,205) translate(20.10493827160494 29.534722222222218)"/><path d="M1012.22 335.98c0 16.2-13.93 29.35-31.1 29.35-17.2 0-31.12-13.14-31.12-29.35 0-16.2 13.93-29.35 31.1-29.35 17.2 0 31.12 13.14 31.12 29.35z" stroke="#3a414a" stroke-width="2" fill="#fff"/><use xlink:href="#d" transform="matrix(1,0,0,1,955,311.63510848126214) translate(20.10493827160494 29.534722222222218)"/><path d="M1121.1 335.98c0 16.2-13.92 29.35-31.1 29.35s-31.1-13.14-31.1-29.35c0-16.2 13.92-29.35 31.1-29.35s31.1 13.14 31.1 29.35z" stroke="#3a414a" stroke-width="2" fill="#fff"/><use xlink:href="#e" transform="matrix(1,0,0,1,1063.888888888889,311.63510848126214) translate(20.574074074074076 29.534722222222218)"/><path d="M1230 335.98c0 16.2-13.93 29.35-31.1 29.35-17.2 0-31.12-13.14-31.12-29.35 0-16.2 13.93-29.35 31.1-29.35 17.2 0 31.12 13.14 31.12 29.35z" stroke="#3a414a" stroke-width="2" fill="#fff"/><use xlink:href="#f" transform="matrix(1,0,0,1,1172.7777777777778,311.63510848126214) translate(21.092592592592595 29.534722222222218)"/><path d="M981.1 260.7v43.93" stroke="#3a414a" stroke-width="2" stroke-linejoin="round" fill="none"/><path d="M981.1 259.7l1-.06v1.1h-2v-1.12zM982.1 305.7l-.98-.07-1 .06v-1.1h2z" stroke="#3a414a" stroke-width=".05" fill="#3a414a"/><use xlink:href="#x" transform="matrix(1,0,0,1,965.7037037037037,274.667011228119) translate(0 10.666666666666664)"/><path d="M1197.97 260.1l-107.05 45.14" stroke="#3a414a" stroke-width="2" fill="none"/><path d="M1198.33 261.02l-.6-1.4 1.15.08 3.02-.2zM1091.15 305.72l-1.14-.1-3.02.2 3.58-1.5z" stroke="#3a414a" stroke-width=".05" fill="#3a414a"/><use xlink:href="#y" transform="matrix(1,0,0,1,1136.2877627727864,263.56917703107877) translate(0 10.666666666666664)"/><path d="M1123.1 229.35h42.68" stroke="#3a414a" stroke-width="2" stroke-linejoin="round" fill="none"/><path d="M1123.14 230.35h-1.1l.07-1-.05-1h1.1zM1166.78 229.34l.06 1h-1.1v-2h1.12z" stroke="#3a414a" stroke-width=".05" fill="#3a414a"/><use xlink:href="#t" transform="matrix(1,0,0,1,1140.7410756244092,209.3491124260355) translate(0 10.666666666666664)"/><path d="M1014.23 335.98h42.66" stroke="#3a414a" stroke-width="2" stroke-linejoin="round" fill="none"/><path d="M1014.25 336.98h-1.1l.08-1-.07-1h1.1zM1057.9 335.98l.05 1h-1.1v-2h1.12z" stroke="#3a414a" stroke-width=".05" fill="#3a414a"/><use xlink:href="#u" transform="matrix(1,0,0,1,1031.8521867355203,339.98422090729764) translate(0 10.666666666666664)"/><path d="M1123.1 335.98h42.68" stroke="#3a414a" stroke-width="2" stroke-linejoin="round" fill="none"/><path d="M1123.14 336.98h-1.1l.07-1-.05-1h1.1zM1166.78 335.98l.06 1h-1.1v-2h1.12z" stroke="#3a414a" stroke-width=".05" fill="#3a414a"/><use xlink:href="#v" transform="matrix(1,0,0,1,1140.7410756244092,339.98422090729764) translate(0 10.666666666666664)"/><path d="M360 146a6 6 0 0 1 6-6h228a6 6 0 0 1 6 6v48a6 6 0 0 1-6 6H366a6 6 0 0 1-6-6z" fill="none"/><use xlink:href="#z" transform="matrix(1,0,0,1,360,140) translate(50.925925925925924 34.44444444444444)"/><path d="M660 146a6 6 0 0 1 6-6h228a6 6 0 0 1 6 6v48a6 6 0 0 1-6 6H666a6 6 0 0 1-6-6z" fill="none"/><use xlink:href="#A" transform="matrix(1,0,0,1,660,140) translate(60.154320987654316 21.111111111111114)"/><use xlink:href="#B" transform="matrix(1,0,0,1,660,140) translate(47.59259259259261 47.777777777777786)"/><use xlink:href="#C" transform="matrix(1,0,0,1,660,140) translate(141.23456790123458 47.777777777777786)"/><use xlink:href="#D" transform="matrix(1,0,0,1,660,140) translate(160.37037037037038 47.777777777777786)"/><path d="M970 146a6 6 0 0 1 6-6h228a6 6 0 0 1 6 6v48a6 6 0 0 1-6 6H976a6 6 0 0 1-6-6z" fill="none"/><g><use xlink:href="#E" transform="matrix(1,0,0,1,970,140) translate(9.104938271604937 21.111111111111114)"/><use xlink:href="#F" transform="matrix(1,0,0,1,970,140) translate(111.20370370370371 21.111111111111114)"/><use xlink:href="#B" transform="matrix(1,0,0,1,970,140) translate(47.59259259259261 47.777777777777786)"/><use xlink:href="#C" transform="matrix(1,0,0,1,970,140) translate(141.23456790123458 47.777777777777786)"/><use xlink:href="#G" transform="matrix(1,0,0,1,970,140) translate(160.37037037037038 47.777777777777786)"/></g><defs><path fill="#3a414a" d="M205 0l-28-72H64L36 0H1l101-248h38L239 0h-34zm-38-99l-47-123c-12 45-31 82-46 123h93" id="H"/><use transform="matrix(0.0493827160493827,0,0,0.0493827160493827,0,0)" xlink:href="#H" id="a"/><path fill="#3a414a" d="M160-131c35 5 61 23 61 61C221 17 115-2 30 0v-248c76 3 177-17 177 60 0 33-19 50-47 57zm-97-11c50-1 110 9 110-42 0-47-63-36-110-37v79zm0 115c55-2 124 14 124-45 0-56-70-42-124-44v89" id="I"/><use transform="matrix(0.0493827160493827,0,0,0.0493827160493827,0,0)" xlink:href="#I" id="b"/><path fill="#3a414a" d="M212-179c-10-28-35-45-73-45-59 0-87 40-87 99 0 60 29 101 89 101 43 0 62-24 78-52l27 14C228-24 195 4 139 4 59 4 22-46 18-125c-6-104 99-153 187-111 19 9 31 26 39 46" id="J"/><use transform="matrix(0.0493827160493827,0,0,0.0493827160493827,0,0)" xlink:href="#J" id="c"/><path fill="#3a414a" d="M30-248c118-7 216 8 213 122C240-48 200 0 122 0H30v-248zM63-27c89 8 146-16 146-99s-60-101-146-95v194" id="K"/><use transform="matrix(0.0493827160493827,0,0,0.0493827160493827,0,0)" xlink:href="#K" id="d"/><path fill="#3a414a" d="M30 0v-248h187v28H63v79h144v27H63v87h162V0H30" id="L"/><use transform="matrix(0.0493827160493827,0,0,0.0493827160493827,0,0)" xlink:href="#L" id="e"/><path fill="#3a414a" d="M63-220v92h138v28H63V0H30v-248h175v28H63" id="M"/><use transform="matrix(0.0493827160493827,0,0,0.0493827160493827,0,0)" xlink:href="#M" id="f"/><path fill="#333" d="M23 0v-37h61v-169l-59 37v-38l62-41h46v211h57V0H23" id="N"/><use transform="matrix(0.03703703703703703,0,0,0.03703703703703703,0,0)" xlink:href="#N" id="g"/><path fill="#333" d="M52 0c1-96 47-148 87-207H15v-41h169v40c-36 62-79 113-81 208H52" id="O"/><use transform="matrix(0.03703703703703703,0,0,0.03703703703703703,0,0)" xlink:href="#O" id="h"/><path fill="#333" d="M115-159c48 0 72 30 72 78 0 54-30 85-83 85-64 0-91-50-91-122 0-98 58-163 141-120 15 8 21 24 27 44l-47 6c-5-31-48-31-61-4-7 14-11 33-11 60 9-17 28-27 53-27zM102-35c24 0 36-20 36-45s-11-43-37-43c-23 0-36 14-36 38 0 27 11 50 37 50" id="P"/><use transform="matrix(0.03703703703703703,0,0,0.03703703703703703,0,0)" xlink:href="#P" id="i"/><path fill="#333" d="M99-251c69 0 84 53 88 123 5 99-61 162-144 118-15-8-21-25-26-45l46-6c4 31 50 33 63 7 7-15 12-36 12-60-9 18-29 28-54 28-48 0-72-32-72-82 0-55 31-83 87-83zm-1 128c24 0 37-16 37-39 0-27-10-51-37-51-25 0-35 19-35 45 0 25 10 45 35 45" id="Q"/><use transform="matrix(0.03703703703703703,0,0,0.03703703703703703,0,0)" xlink:href="#Q" id="j"/><path fill="#333" d="M182-182c0 78-84 86-111 141h115V0H12c-6-101 99-100 120-180 1-22-12-31-33-32-23 0-32 14-35 34l-49-3c5-45 32-70 84-70 51 0 83 22 83 69" id="R"/><use transform="matrix(0.03703703703703703,0,0,0.03703703703703703,0,0)" xlink:href="#R" id="k"/><path fill="#333" d="M165-50V0h-47v-50H5v-38l105-160h55v161h33v37h-33zm-47-37l2-116L46-87h72" id="S"/><use transform="matrix(0.03703703703703703,0,0,0.03703703703703703,0,0)" xlink:href="#S" id="l"/><path fill="#333" d="M128-127c34 4 56 21 59 58 7 91-148 94-172 28-4-9-6-17-7-26l51-5c1 24 16 35 40 36 23 0 39-12 38-36-1-31-31-36-65-34v-40c32 2 59-3 59-33 0-20-13-33-34-33s-33 13-35 32l-50-3c6-44 37-68 86-68 50 0 83 20 83 66 0 35-22 52-53 58" id="T"/><use transform="matrix(0.03703703703703703,0,0,0.03703703703703703,0,0)" xlink:href="#T" id="m"/><path fill="#333" d="M139-81c0-46-55-55-73-27H18l9-140h149v37H72l-4 63c44-38 133-4 122 66C201 21 21 35 11-62l49-4c5 18 15 30 39 30 26 0 40-18 40-45" id="U"/><use transform="matrix(0.03703703703703703,0,0,0.03703703703703703,0,0)" xlink:href="#U" id="n"/><path fill="#333" d="M138-131c27 9 52 24 51 61 0 53-36 74-89 74S11-19 11-69c0-35 22-54 51-61-78-25-46-121 38-121 51 0 83 19 83 66 0 30-18 49-45 54zm-38-16c24 0 32-13 32-36 1-23-11-34-32-34-22 0-33 12-32 34 0 22 9 36 32 36zm1 116c27 0 37-17 37-43 0-25-13-39-39-39-24 0-37 15-37 40 0 27 11 42 39 42" id="V"/><use transform="matrix(0.03703703703703703,0,0,0.03703703703703703,0,0)" xlink:href="#V" id="o"/><use transform="matrix(0.0493827160493827,0,0,0.0493827160493827,0,0)" xlink:href="#H" id="p"/><use transform="matrix(0.0493827160493827,0,0,0.0493827160493827,0,0)" xlink:href="#I" id="q"/><use transform="matrix(0.0493827160493827,0,0,0.0493827160493827,0,0)" xlink:href="#J" id="r"/><use transform="matrix(0.03703703703703703,0,0,0.03703703703703703,0,0)" xlink:href="#O" id="s"/><use transform="matrix(0.03703703703703703,0,0,0.03703703703703703,0,0)" xlink:href="#R" id="t"/><use transform="matrix(0.03703703703703703,0,0,0.03703703703703703,0,0)" xlink:href="#S" id="u"/><use transform="matrix(0.03703703703703703,0,0,0.03703703703703703,0,0)" xlink:href="#T" id="v"/><use transform="matrix(0.03703703703703703,0,0,0.03703703703703703,0,0)" xlink:href="#V" id="w"/><use transform="matrix(0.03703703703703703,0,0,0.03703703703703703,0,0)" xlink:href="#N" id="x"/><use transform="matrix(0.03703703703703703,0,0,0.03703703703703703,0,0)" xlink:href="#U" id="y"/><path fill="#3a414a" d="M24-231v-30h32v30H24zM24 0v-190h32V0H24" id="W"/><path fill="#3a414a" d="M117-194c89-4 53 116 60 194h-32v-121c0-31-8-49-39-48C34-167 62-67 57 0H25l-1-190h30c1 10-1 24 2 32 11-22 29-35 61-36" id="X"/><path fill="#3a414a" d="M177-190C167-65 218 103 67 71c-23-6-38-20-44-43l32-5c15 47 100 32 89-28v-30C133-14 115 1 83 1 29 1 15-40 15-95c0-56 16-97 71-98 29-1 48 16 59 35 1-10 0-23 2-32h30zM94-22c36 0 50-32 50-73 0-42-14-75-50-75-39 0-46 34-46 75s6 73 46 73" id="Y"/><path fill="#3a414a" d="M141-36C126-15 110 5 73 4 37 3 15-17 15-53c-1-64 63-63 125-63 3-35-9-54-41-54-24 1-41 7-42 31l-33-3c5-37 33-52 76-52 45 0 72 20 72 64v82c-1 20 7 32 28 27v20c-31 9-61-2-59-35zM48-53c0 20 12 33 32 33 41-3 63-29 60-74-43 2-92-5-92 41" id="Z"/><path fill="#3a414a" d="M115-194c53 0 69 39 70 98 0 66-23 100-70 100C84 3 66-7 56-30L54 0H23l1-261h32v101c10-23 28-34 59-34zm-8 174c40 0 45-34 45-75 0-40-5-75-45-74-42 0-51 32-51 76 0 43 10 73 51 73" id="aa"/><path fill="#3a414a" d="M100-194c63 0 86 42 84 106H49c0 40 14 67 53 68 26 1 43-12 49-29l28 8c-11 28-37 45-77 45C44 4 14-33 15-96c1-61 26-98 85-98zm52 81c6-60-76-77-97-28-3 7-6 17-6 28h103" id="ab"/><path fill="#3a414a" d="M114-163C36-179 61-72 57 0H25l-1-190h30c1 12-1 29 2 39 6-27 23-49 58-41v29" id="ac"/><path fill="#3a414a" d="M115-194c55 1 70 41 70 98S169 2 115 4C84 4 66-9 55-30l1 105H24l-1-265h31l2 30c10-21 28-34 59-34zm-8 174c40 0 45-34 45-75s-6-73-45-74c-42 0-51 32-51 76 0 43 10 73 51 73" id="ad"/><path fill="#3a414a" d="M106-169C34-169 62-67 57 0H25v-261h32l-1 103c12-21 28-36 61-36 89 0 53 116 60 194h-32v-121c2-32-8-49-39-48" id="ae"/><g id="z"><use transform="matrix(0.06172839506172839,0,0,0.06172839506172839,0,0)" xlink:href="#L"/><use transform="matrix(0.06172839506172839,0,0,0.06172839506172839,14.814814814814813,0)" xlink:href="#W"/><use transform="matrix(0.06172839506172839,0,0,0.06172839506172839,19.691358024691354,0)" xlink:href="#X"/><use transform="matrix(0.06172839506172839,0,0,0.06172839506172839,32.03703703703703,0)" xlink:href="#Y"/><use transform="matrix(0.06172839506172839,0,0,0.06172839506172839,44.38271604938271,0)" xlink:href="#Z"/><use transform="matrix(0.06172839506172839,0,0,0.06172839506172839,56.728395061728385,0)" xlink:href="#aa"/><use transform="matrix(0.06172839506172839,0,0,0.06172839506172839,69.07407407407406,0)" xlink:href="#ab"/><use transform="matrix(0.06172839506172839,0,0,0.06172839506172839,81.41975308641975,0)" xlink:href="#Y"/><use transform="matrix(0.06172839506172839,0,0,0.06172839506172839,93.76543209876543,0)" xlink:href="#ac"/><use transform="matrix(0.06172839506172839,0,0,0.06172839506172839,101.11111111111111,0)" xlink:href="#Z"/><use transform="matrix(0.06172839506172839,0,0,0.06172839506172839,113.4567901234568,0)" xlink:href="#ad"/><use transform="matrix(0.06172839506172839,0,0,0.06172839506172839,125.80246913580248,0)" xlink:href="#ae"/></g><path fill="#3a414a" d="M185-189c-5-48-123-54-124 2 14 75 158 14 163 119 3 78-121 87-175 55-17-10-28-26-33-46l33-7c5 56 141 63 141-1 0-78-155-14-162-118-5-82 145-84 179-34 5 7 8 16 11 25" id="af"/><path fill="#3a414a" d="M84 4C-5 8 30-112 23-190h32v120c0 31 7 50 39 49 72-2 45-101 50-169h31l1 190h-30c-1-10 1-25-2-33-11 22-28 36-60 37" id="ag"/><path fill="#3a414a" d="M210-169c-67 3-38 105-44 169h-31v-121c0-29-5-50-35-48C34-165 62-65 56 0H25l-1-190h30c1 10-1 24 2 32 10-44 99-50 107 0 11-21 27-35 58-36 85-2 47 119 55 194h-31v-121c0-29-5-49-35-48" id="ah"/><g id="A"><use transform="matrix(0.06172839506172839,0,0,0.06172839506172839,0,0)" xlink:href="#af"/><use transform="matrix(0.06172839506172839,0,0,0.06172839506172839,14.814814814814813,0)" xlink:href="#ad"/><use transform="matrix(0.06172839506172839,0,0,0.06172839506172839,27.160493827160494,0)" xlink:href="#Z"/><use transform="matrix(0.06172839506172839,0,0,0.06172839506172839,39.50617283950617,0)" xlink:href="#X"/><use transform="matrix(0.06172839506172839,0,0,0.06172839506172839,51.85185185185185,0)" xlink:href="#X"/><use transform="matrix(0.06172839506172839,0,0,0.06172839506172839,64.19753086419753,0)" xlink:href="#aa"/><use transform="matrix(0.06172839506172839,0,0,0.06172839506172839,76.54320987654322,0)" xlink:href="#Z"/><use transform="matrix(0.06172839506172839,0,0,0.06172839506172839,88.8888888888889,0)" xlink:href="#ag"/><use transform="matrix(0.06172839506172839,0,0,0.06172839506172839,101.23456790123458,0)" xlink:href="#ah"/></g><path fill="#3a414a" d="M87 75C49 33 22-17 22-94c0-76 28-126 65-167h31c-38 41-64 92-64 168S80 34 118 75H87" id="ai"/><path fill="#3a414a" d="M143 4C61 4 22-44 18-125c-5-107 100-154 193-111 17 8 29 25 37 43l-32 9c-13-25-37-40-76-40-61 0-88 39-88 99 0 61 29 100 91 101 35 0 62-11 79-27v-45h-74v-28h105v86C228-13 192 4 143 4" id="aj"/><path fill="#3a414a" d="M206 0h-36l-40-164L89 0H53L-1-190h32L70-26l43-164h34l41 164 42-164h31" id="ak"/><path fill="#3a414a" d="M96-169c-40 0-48 33-48 73s9 75 48 75c24 0 41-14 43-38l32 2c-6 37-31 61-74 61-59 0-76-41-82-99-10-93 101-131 147-64 4 7 5 14 7 22l-32 3c-4-21-16-35-41-35" id="al"/><path fill="#3a414a" d="M59-47c-2 24 18 29 38 22v24C64 9 27 4 27-40v-127H5v-23h24l9-43h21v43h35v23H59v120" id="am"/><g id="B"><use transform="matrix(0.06172839506172839,0,0,0.06172839506172839,0,0)" xlink:href="#ai"/><use transform="matrix(0.06172839506172839,0,0,0.06172839506172839,7.345679012345679,0)" xlink:href="#aj"/><use transform="matrix(0.06172839506172839,0,0,0.06172839506172839,24.629629629629626,0)" xlink:href="#ab"/><use transform="matrix(0.06172839506172839,0,0,0.06172839506172839,36.9753086419753,0)" xlink:href="#ak"/><use transform="matrix(0.06172839506172839,0,0,0.06172839506172839,52.962962962962955,0)" xlink:href="#W"/><use transform="matrix(0.06172839506172839,0,0,0.06172839506172839,57.8395061728395,0)" xlink:href="#al"/><use transform="matrix(0.06172839506172839,0,0,0.06172839506172839,68.9506172839506,0)" xlink:href="#ae"/><use transform="matrix(0.06172839506172839,0,0,0.06172839506172839,81.29629629629629,0)" xlink:href="#am"/></g><path fill="#3a414a" d="M18-150v-26h174v26H18zm0 90v-26h174v26H18" id="an"/><use transform="matrix(0.06172839506172839,0,0,0.06172839506172839,0,0)" xlink:href="#an" id="C"/><path fill="#3a414a" d="M101-251c82-7 93 87 43 132L82-64C71-53 59-42 53-27h129V0H18c2-99 128-94 128-182 0-28-16-43-45-43s-46 15-49 41l-32-3c6-41 34-60 81-64" id="ao"/><path fill="#3a414a" d="M155-56V0h-30v-56H8v-25l114-167h33v167h35v25h-35zm-30-156c-27 46-58 90-88 131h88v-131" id="ap"/><path fill="#3a414a" d="M33-261c38 41 65 92 65 168S71 34 33 75H2C39 34 66-17 66-93S39-220 2-261h31" id="aq"/><g id="D"><use transform="matrix(0.06172839506172839,0,0,0.06172839506172839,0,0)" xlink:href="#ao"/><use transform="matrix(0.06172839506172839,0,0,0.06172839506172839,12.345679012345679,0)" xlink:href="#ap"/><use transform="matrix(0.06172839506172839,0,0,0.06172839506172839,24.691358024691358,0)" xlink:href="#aq"/></g><path fill="#3a414a" d="M240 0l2-218c-23 76-54 145-80 218h-23L58-218 59 0H30v-248h44l77 211c21-75 51-140 76-211h43V0h-30" id="ar"/><path fill="#3a414a" d="M24 0v-261h32V0H24" id="as"/><g id="E"><use transform="matrix(0.06172839506172839,0,0,0.06172839506172839,0,0)" xlink:href="#ar"/><use transform="matrix(0.06172839506172839,0,0,0.06172839506172839,18.456790123456788,0)" xlink:href="#W"/><use transform="matrix(0.06172839506172839,0,0,0.06172839506172839,23.33333333333333,0)" xlink:href="#X"/><use transform="matrix(0.06172839506172839,0,0,0.06172839506172839,35.679012345679006,0)" xlink:href="#W"/><use transform="matrix(0.06172839506172839,0,0,0.06172839506172839,40.55555555555555,0)" xlink:href="#ah"/><use transform="matrix(0.06172839506172839,0,0,0.06172839506172839,59.01234567901234,0)" xlink:href="#Z"/><use transform="matrix(0.06172839506172839,0,0,0.06172839506172839,71.35802469135803,0)" xlink:href="#as"/><use transform="matrix(0.06172839506172839,0,0,0.06172839506172839,76.23456790123457,0)" xlink:href="#ab"/><use transform="matrix(0.06172839506172839,0,0,0.06172839506172839,88.58024691358025,0)" xlink:href="#ac"/></g><g id="F"><use transform="matrix(0.06172839506172839,0,0,0.06172839506172839,0,0)" xlink:href="#af"/><use transform="matrix(0.06172839506172839,0,0,0.06172839506172839,14.814814814814813,0)" xlink:href="#ad"/><use transform="matrix(0.06172839506172839,0,0,0.06172839506172839,27.160493827160494,0)" xlink:href="#Z"/><use transform="matrix(0.06172839506172839,0,0,0.06172839506172839,39.50617283950617,0)" xlink:href="#X"/><use transform="matrix(0.06172839506172839,0,0,0.06172839506172839,51.85185185185185,0)" xlink:href="#X"/><use transform="matrix(0.06172839506172839,0,0,0.06172839506172839,64.19753086419753,0)" xlink:href="#aa"/><use transform="matrix(0.06172839506172839,0,0,0.06172839506172839,76.54320987654322,0)" xlink:href="#Z"/><use transform="matrix(0.06172839506172839,0,0,0.06172839506172839,88.8888888888889,0)" xlink:href="#ag"/><use transform="matrix(0.06172839506172839,0,0,0.06172839506172839,101.23456790123458,0)" xlink:href="#ah"/></g><path fill="#3a414a" d="M27 0v-27h64v-190l-56 39v-29l58-41h29v221h61V0H27" id="at"/><path fill="#3a414a" d="M54-142c48-35 137-8 131 61C196 18 31 33 14-55l32-4c7 23 22 37 52 37 35-1 51-22 54-58 4-55-73-65-99-34H22l8-134h141v27H59" id="au"/><g id="G"><use transform="matrix(0.06172839506172839,0,0,0.06172839506172839,0,0)" xlink:href="#at"/><use transform="matrix(0.06172839506172839,0,0,0.06172839506172839,12.345679012345679,0)" xlink:href="#au"/><use transform="matrix(0.06172839506172839,0,0,0.06172839506172839,24.691358024691358,0)" xlink:href="#aq"/></g></defs></g></svg>