<svg xmlns="http://www.w3.org/2000/svg" xmlns:xlink="http://www.w3.org/1999/xlink" xmlns:lucid="lucid" width="830" height="181"><g transform="translate(91 -1056)" lucid:page-tab-id="OPZF_FIwytUc"><path d="M-17.78 1096.02c0 16.2-13.93 29.35-31.1 29.35-17.2 0-31.12-13.14-31.12-29.35 0-16.2 13.93-29.35 31.1-29.35 17.2 0 31.12 13.14 31.12 29.35z" stroke="#3a414a" stroke-width="2" fill="#fff"/><use xlink:href="#a" transform="matrix(1,0,0,1,-75,1071.6666666666667) translate(20.574074074074076 29.534722222222218)"/><path d="M91.1 1096.02c0 16.2-13.92 29.35-31.1 29.35s-31.1-13.14-31.1-29.35c0-16.2 13.92-29.35 31.1-29.35s31.1 13.14 31.1 29.35z" stroke="#3a414a" stroke-width="2" fill="#fff"/><use xlink:href="#b" transform="matrix(1,0,0,1,33.888888888888914,1071.6666666666667) translate(20.574074074074076 29.534722222222218)"/><path d="M200 1096.02c0 16.2-13.93 29.35-31.1 29.35-17.2 0-31.12-13.14-31.12-29.35 0-16.2 13.93-29.35 31.1-29.35 17.2 0 31.12 13.14 31.12 29.35z" stroke="#3a414a" stroke-width="2" fill="#fff"/><use xlink:href="#c" transform="matrix(1,0,0,1,142.7777777777778,1071.6666666666667) translate(20.10493827160494 29.534722222222218)"/><path d="M-17.78 1202.65c0 16.2-13.93 29.35-31.1 29.35-17.2 0-31.12-13.14-31.12-29.35 0-16.2 13.93-29.35 31.1-29.35 17.2 0 31.12 13.14 31.12 29.35z" stroke="#3a414a" stroke-width="2" fill="#fff"/><use xlink:href="#d" transform="matrix(1,0,0,1,-75,1178.3017751479288) translate(20.10493827160494 29.534722222222218)"/><path d="M91.1 1202.65c0 16.2-13.92 29.35-31.1 29.35s-31.1-13.14-31.1-29.35c0-16.2 13.92-29.35 31.1-29.35s31.1 13.14 31.1 29.35z" stroke="#3a414a" stroke-width="2" fill="#fff"/><use xlink:href="#e" transform="matrix(1,0,0,1,33.888888888888914,1178.3017751479288) translate(20.574074074074076 29.534722222222218)"/><path d="M200 1202.65c0 16.2-13.93 29.35-31.1 29.35-17.2 0-31.12-13.14-31.12-29.35 0-16.2 13.93-29.35 31.1-29.35 17.2 0 31.12 13.14 31.12 29.35z" stroke="#3a414a" stroke-width="2" fill="#fff"/><use xlink:href="#f" transform="matrix(1,0,0,1,142.7777777777778,1178.3017751479288) translate(21.092592592592595 29.534722222222218)"/><path d="M-48.9 1127.87v42.93" stroke="#008a0e" stroke-width="3" stroke-linejoin="round" fill="none"/><path d="M-48.9 1126.37l1.5-.1v1.64h-3v-1.65zM-47.4 1172.42l-1.48-.12-1.5.1v-1.64h3z" stroke="#008a0e" stroke-width=".05" fill="#008a0e"/><use xlink:href="#g" transform="matrix(1,0,0,1,-64.2962962962963,1141.3336778947855) translate(0 10.666666666666664)"/><path d="M-15.78 1096.02H26.9" stroke="#3a414a" stroke-width="2" stroke-linejoin="round" fill="none"/><path d="M-15.75 1097.02h-1.1l.08-1-.07-1h1.1zM27.9 1096l.05 1.02h-1.1v-2h1.12z" stroke="#3a414a" stroke-width=".05" fill="#3a414a"/><use xlink:href="#h" transform="matrix(1,0,0,1,1.8521867355201844,1076.0157790927024) translate(0 10.666666666666664)"/><path d="M60 1127.37v43.93" stroke="#3a414a" stroke-width="2" stroke-linejoin="round" fill="none"/><path d="M60 1126.37l1-.06v1.1h-2v-1.1zM61 1172.38l-1-.08-1 .06v-1.1h2z" stroke="#3a414a" stroke-width=".05" fill="#3a414a"/><use xlink:href="#i" transform="matrix(1,0,0,1,44.59259259259263,1141.3336778947855) translate(0 10.666666666666664)"/><path d="M168.9 1127.37v43.93" stroke="#3a414a" stroke-width="2" stroke-linejoin="round" fill="none"/><path d="M168.88 1126.37l1-.06v1.1h-2v-1.1zM169.9 1172.38l-1-.08-1 .06v-1.1h2z" stroke="#3a414a" stroke-width=".05" fill="#3a414a"/><use xlink:href="#j" transform="matrix(1,0,0,1,176.8888888888889,1145.2479453673625) translate(0 10.666666666666664)"/><path d="M93.6 1096.02h41.68" stroke="#008a0e" stroke-width="3" stroke-linejoin="round" fill="none"/><path d="M93.65 1097.52H92l.1-1.5-.08-1.5h1.63zM136.78 1096l.1 1.52h-1.64v-3h1.66z" stroke="#008a0e" stroke-width=".05" fill="#008a0e"/><use xlink:href="#k" transform="matrix(1,0,0,1,110.74107562440908,1076.0157790927024) translate(0 10.666666666666664)"/><path d="M-15.78 1202.65H26.9" stroke="#3a414a" stroke-width="2" stroke-linejoin="round" fill="none"/><path d="M-15.75 1203.65h-1.1l.08-1-.07-1h1.1zM27.9 1202.64l.05 1h-1.1v-2h1.12z" stroke="#3a414a" stroke-width=".05" fill="#3a414a"/><use xlink:href="#l" transform="matrix(1,0,0,1,1.852186735520227,1206.6508875739642) translate(0 10.666666666666664)"/><path d="M93.6 1202.65h41.68" stroke="#008a0e" stroke-width="3" stroke-linejoin="round" fill="none"/><path d="M93.65 1204.15H92l.1-1.5-.08-1.5h1.63zM136.78 1202.64l.1 1.5h-1.64v-3h1.66z" stroke="#008a0e" stroke-width=".05" fill="#008a0e"/><use xlink:href="#m" transform="matrix(1,0,0,1,110.74107562440913,1206.6508875739642) translate(0 10.666666666666664)"/><path d="M83.27 1180.46l62.28-62.32" stroke="#3a414a" stroke-width="2" fill="none"/><path d="M84 1181.15l-.7.68-1.5-1.32.78-.77zM147 1118.1l-.76.77-1.42-1.42.7-.68z" stroke="#3a414a" stroke-width=".05" fill="#3a414a"/><use xlink:href="#n" transform="matrix(1,0,0,1,124.46997115036827,1144.293497834595) translate(0 10.666666666666664)"/><path d="M-26.4 1118.9l62.3 62.33" stroke="#3a414a" stroke-width="2" fill="none"/><path d="M-25.67 1118.22l-1.4 1.4-.8-.78 1.55-1.27zM37.3 1181.22l-.24.2-1.13 1.27-.77-.78 1.42-1.42z" stroke="#3a414a" stroke-width=".05" fill="#3a414a"/><use xlink:href="#o" transform="matrix(1,0,0,1,-16.638261795766056,1141.1431505915484) translate(0 10.666666666666664)"/><path d="M342.22 1096.02c0 16.2-13.93 29.35-31.1 29.35-17.2 0-31.12-13.14-31.12-29.35 0-16.2 13.93-29.35 31.1-29.35 17.2 0 31.12 13.14 31.12 29.35z" stroke="#3a414a" stroke-width="2" fill="#fff"/><use xlink:href="#p" transform="matrix(1,0,0,1,285,1071.6666666666667) translate(11.709876543209882 29.534722222222218)"/><path d="M451.1 1096.02c0 16.2-13.92 29.35-31.1 29.35s-31.1-13.14-31.1-29.35c0-16.2 13.92-29.35 31.1-29.35s31.1 13.14 31.1 29.35z" stroke="#3a414a" stroke-width="2" fill="#fff"/><use xlink:href="#q" transform="matrix(1,0,0,1,393.88888888888897,1071.6666666666667) translate(11.709876543209882 29.534722222222218)"/><path d="M451.1 1202.65c0 16.2-13.92 29.35-31.1 29.35s-31.1-13.14-31.1-29.35c0-16.2 13.92-29.35 31.1-29.35s31.1 13.14 31.1 29.35z" stroke="#3a414a" stroke-width="2" fill="#fff"/><use xlink:href="#r" transform="matrix(1,0,0,1,393.88888888888897,1178.3017751479288) translate(12.697530864197535 29.534722222222218)"/><path d="M344.23 1096.02h42.66" stroke="#3a414a" stroke-width="2" stroke-linejoin="round" fill="none"/><path d="M344.25 1097.02h-1.1l.08-1-.07-1h1.1zM387.9 1096l.05 1.02h-1.1v-2h1.12z" stroke="#3a414a" stroke-width=".05" fill="#3a414a"/><use xlink:href="#h" transform="matrix(1,0,0,1,361.85218673552026,1076.0157790927024) translate(0 10.666666666666664)"/><path d="M408.33 1125.3l-2.64 7.16-1.6 6.1-.8 5.26-.25 4.96.26 5.08.88 5.7 1.88 7.32 2.3 6.52" stroke="#3a414a" stroke-width="2" stroke-linejoin="round" fill="none"/><path d="M409.32 1124.65l.3.07-.36.96-1.88-.7.38-1zM409.6 1174l-1.86.7-.35-1 1.88-.65z" stroke="#3a414a" stroke-width=".05" fill="#3a414a"/><use xlink:href="#i" transform="matrix(1,0,0,1,387.6565741006562,1141.2316866281749) translate(0 10.666666666666664)"/><path d="M450.2 1108.75l.87.4 1.7.92 1.66 1.02 1.58 1.1 1.53 1.22 1.47 1.34 1.42 1.45 1.37 1.6 1.3 1.73 1.26 1.88 1.2 2.05 1.1 2.23 1.05 2.4.94 2.62.82 2.8.68 3 .52 3.2.34 3.34.14 3.5-.08 3.55-.3 3.6-.52 3.58-.72 3.5-.92 3.38-1.1 3.22-1.23 3.03-1.36 2.83-1.45 2.6-1.54 2.4-1.6 2.2-1.66 2-1.7 1.82-1.75 1.64-1.8 1.47-1.8 1.34-1.47.94" stroke="#3a414a" stroke-width="2" stroke-linejoin="round" fill="none"/><path d="M450.63 1107.85l-.83 1.82-.9-.42.77-1.84zM450.67 1190.5l-1.03.62-.36-.95-.5-.87.88-.5z" stroke="#3a414a" stroke-width=".05" fill="#3a414a"/><use xlink:href="#j" transform="matrix(1,0,0,1,455.666378782716,1141.3321349040264) translate(0 10.666666666666664)"/><path d="M311.62 1127.84l.13 3.94.52 5.3.85 5.12 1.16 4.97 1.46 4.8 1.75 4.66 2.03 4.5 2.3 4.3 2.57 4.12 2.82 3.93 3.07 3.73 3.3 3.53 3.5 3.3 3.74 3.05 3.94 2.82 4.13 2.56 4.32 2.3 4.5 2.02 4.65 1.75 4.8 1.45 5 1.15 5.12.84 5.28.5 3.8.13" stroke="#008a0e" stroke-width="3" stroke-linejoin="round" fill="none"/><path d="M313.12 1127.83l-3 .1-.05-1.64 1.03.07 1.97-.13zM388 1201.15l-.1 1.5.08 1.5-1.68-.05.1-3z" stroke="#008a0e" stroke-width=".05" fill="#008a0e"/><use xlink:href="#s" transform="matrix(1,0,0,1,321.5269345992398,1181.1276073431386) translate(0 10.666666666666664)"/><path d="M435.07 1174.25l3.5-9.33 1.8-6.8.9-5.28.3-4.57-.1-4.18-.5-4.05-.9-4.06-1.37-4.27-2.02-4.67-1.43-2.66" stroke="#008a0e" stroke-width="3" stroke-linejoin="round" fill="none"/><path d="M436.5 1174.74l-.6 1.57-.36-.22-2.38-1 .52-1.4zM436.6 1123.72l-2.65 1.42-.8-1.5 1.32-.52 1.37-.8z" stroke="#008a0e" stroke-width=".05" fill="#008a0e"/><use xlink:href="#t" transform="matrix(1,0,0,1,426.0218428510531,1142.0458414037546) translate(0 10.666666666666664)"/><path d="M333.6 1118.9l62.3 62.33" stroke="#3a414a" stroke-width="2" fill="none"/><path d="M334.33 1118.22l-1.4 1.4-.8-.78 1.55-1.27zM397.3 1181.22l-.24.2-1.13 1.27-.77-.78 1.42-1.42z" stroke="#3a414a" stroke-width=".05" fill="#3a414a"/><use xlink:href="#o" transform="matrix(1,0,0,1,343.361738204234,1141.1431505915484) translate(0 10.666666666666664)"/><path d="M662.22 1150.96c0 23.2-18.4 42.03-41.1 42.03-22.7 0-41.12-18.83-41.12-42.04 0-23.22 18.4-42.04 41.1-42.04 22.72 0 41.12 18.82 41.12 42.04z" stroke="#3a414a" stroke-width="2" fill="#fff"/><use xlink:href="#u" transform="matrix(1,0,0,1,585,1113.9245528440292) translate(1.4814814814814952 30.628472222222218)"/><use xlink:href="#v" transform="matrix(1,0,0,1,585,1113.9245528440292) translate(13.80746913580248 51.96180555555554)"/><path d="M621.15 1106.92l.06-1.48.3-2.28.44-2.13.6-2 .73-1.88.88-1.8 1.03-1.72 1.2-1.66 1.35-1.6 1.56-1.55 1.75-1.5 2-1.42 2.27-1.34 2.54-1.24 2.85-1.1 3.15-.93 3.4-.7 3.62-.45 3.74-.15 3.77.16 3.68.47 3.5.74 3.24.98 2.95 1.16 2.66 1.32 2.4 1.43 2.1 1.5 1.86 1.6.74.7 1.63 1.78 1.55 2 1.46 2.22 1.35 2.5 1.2 2.78 1.04 3.05.83 3.3.57 3.5.3 3.65-.03 3.7-.3 3.6-.6 3.48-.85 3.26-1.05 2.98-1.2 2.7-1.34 2.4-1.43 2.15-1.5 1.9-1.6 1.67-1.63 1.48-1.7 1.3-1.76 1.1-1.84.97-1.93.8-2.04.68-2.16.5-2.32.36-1.94.12" stroke="#3a414a" stroke-width="2" stroke-linejoin="round" fill="none"/><path d="M622.15 1106.94l-.04 1.04-.97-.06-1.02.02.05-1.08zM664.25 1151l-1.03.02v-1.18l-.08-.8 1.08-.03z" stroke="#3a414a" stroke-width=".05" fill="#3a414a"/><use xlink:href="#w" transform="matrix(1,0,0,1,689.7968985439703,1080.1878225391388) translate(0 10.666666666666668)"/><path d="M221.5 1137h32.53M221.5 1143h32.53" stroke="#3a414a" stroke-width="3" stroke-linejoin="round" fill="none"/><path d="M221.54 1137H220M221.54 1143H220" stroke="#3a414a" stroke-width="3" fill="none"/><path d="M277.05 1140l-21.52 12.73v-25.46z" stroke="#3a414a" stroke-width="3" fill="#fff"/><path d="M501.5 1137h32.53M501.5 1143h32.53" stroke="#3a414a" stroke-width="3" stroke-linejoin="round" fill="none"/><path d="M501.54 1137H500M501.54 1143H500" stroke="#3a414a" stroke-width="3" fill="none"/><path d="M557.05 1140l-21.52 12.73v-25.46z" stroke="#3a414a" stroke-width="3" fill="#fff"/><defs><path fill="#3a414a" d="M205 0l-28-72H64L36 0H1l101-248h38L239 0h-34zm-38-99l-47-123c-12 45-31 82-46 123h93" id="x"/><use transform="matrix(0.0493827160493827,0,0,0.0493827160493827,0,0)" xlink:href="#x" id="a"/><path fill="#3a414a" d="M160-131c35 5 61 23 61 61C221 17 115-2 30 0v-248c76 3 177-17 177 60 0 33-19 50-47 57zm-97-11c50-1 110 9 110-42 0-47-63-36-110-37v79zm0 115c55-2 124 14 124-45 0-56-70-42-124-44v89" id="y"/><use transform="matrix(0.0493827160493827,0,0,0.0493827160493827,0,0)" xlink:href="#y" id="b"/><path fill="#3a414a" d="M212-179c-10-28-35-45-73-45-59 0-87 40-87 99 0 60 29 101 89 101 43 0 62-24 78-52l27 14C228-24 195 4 139 4 59 4 22-46 18-125c-6-104 99-153 187-111 19 9 31 26 39 46" id="z"/><use transform="matrix(0.0493827160493827,0,0,0.0493827160493827,0,0)" xlink:href="#z" id="c"/><path fill="#3a414a" d="M30-248c118-7 216 8 213 122C240-48 200 0 122 0H30v-248zM63-27c89 8 146-16 146-99s-60-101-146-95v194" id="A"/><use transform="matrix(0.0493827160493827,0,0,0.0493827160493827,0,0)" xlink:href="#A" id="d"/><path fill="#3a414a" d="M30 0v-248h187v28H63v79h144v27H63v87h162V0H30" id="B"/><use transform="matrix(0.0493827160493827,0,0,0.0493827160493827,0,0)" xlink:href="#B" id="e"/><path fill="#3a414a" d="M63-220v92h138v28H63V0H30v-248h175v28H63" id="C"/><use transform="matrix(0.0493827160493827,0,0,0.0493827160493827,0,0)" xlink:href="#C" id="f"/><path fill="#008a0e" d="M23 0v-37h61v-169l-59 37v-38l62-41h46v211h57V0H23" id="D"/><use transform="matrix(0.03703703703703703,0,0,0.03703703703703703,0,0)" xlink:href="#D" id="g"/><path fill="#333" d="M52 0c1-96 47-148 87-207H15v-41h169v40c-36 62-79 113-81 208H52" id="E"/><use transform="matrix(0.03703703703703703,0,0,0.03703703703703703,0,0)" xlink:href="#E" id="h"/><path fill="#333" d="M115-159c48 0 72 30 72 78 0 54-30 85-83 85-64 0-91-50-91-122 0-98 58-163 141-120 15 8 21 24 27 44l-47 6c-5-31-48-31-61-4-7 14-11 33-11 60 9-17 28-27 53-27zM102-35c24 0 36-20 36-45s-11-43-37-43c-23 0-36 14-36 38 0 27 11 50 37 50" id="F"/><use transform="matrix(0.03703703703703703,0,0,0.03703703703703703,0,0)" xlink:href="#F" id="i"/><path fill="#333" d="M99-251c69 0 84 53 88 123 5 99-61 162-144 118-15-8-21-25-26-45l46-6c4 31 50 33 63 7 7-15 12-36 12-60-9 18-29 28-54 28-48 0-72-32-72-82 0-55 31-83 87-83zm-1 128c24 0 37-16 37-39 0-27-10-51-37-51-25 0-35 19-35 45 0 25 10 45 35 45" id="G"/><use transform="matrix(0.03703703703703703,0,0,0.03703703703703703,0,0)" xlink:href="#G" id="j"/><path fill="#008a0e" d="M182-182c0 78-84 86-111 141h115V0H12c-6-101 99-100 120-180 1-22-12-31-33-32-23 0-32 14-35 34l-49-3c5-45 32-70 84-70 51 0 83 22 83 69" id="H"/><use transform="matrix(0.03703703703703703,0,0,0.03703703703703703,0,0)" xlink:href="#H" id="k"/><path fill="#333" d="M165-50V0h-47v-50H5v-38l105-160h55v161h33v37h-33zm-47-37l2-116L46-87h72" id="I"/><use transform="matrix(0.03703703703703703,0,0,0.03703703703703703,0,0)" xlink:href="#I" id="l"/><path fill="#008a0e" d="M128-127c34 4 56 21 59 58 7 91-148 94-172 28-4-9-6-17-7-26l51-5c1 24 16 35 40 36 23 0 39-12 38-36-1-31-31-36-65-34v-40c32 2 59-3 59-33 0-20-13-33-34-33s-33 13-35 32l-50-3c6-44 37-68 86-68 50 0 83 20 83 66 0 35-22 52-53 58" id="J"/><use transform="matrix(0.03703703703703703,0,0,0.03703703703703703,0,0)" xlink:href="#J" id="m"/><path fill="#333" d="M139-81c0-46-55-55-73-27H18l9-140h149v37H72l-4 63c44-38 133-4 122 66C201 21 21 35 11-62l49-4c5 18 15 30 39 30 26 0 40-18 40-45" id="K"/><use transform="matrix(0.03703703703703703,0,0,0.03703703703703703,0,0)" xlink:href="#K" id="n"/><path fill="#333" d="M138-131c27 9 52 24 51 61 0 53-36 74-89 74S11-19 11-69c0-35 22-54 51-61-78-25-46-121 38-121 51 0 83 19 83 66 0 30-18 49-45 54zm-38-16c24 0 32-13 32-36 1-23-11-34-32-34-22 0-33 12-32 34 0 22 9 36 32 36zm1 116c27 0 37-17 37-43 0-25-13-39-39-39-24 0-37 15-37 40 0 27 11 42 39 42" id="L"/><use transform="matrix(0.03703703703703703,0,0,0.03703703703703703,0,0)" xlink:href="#L" id="o"/><path fill="#3a414a" d="M68-38c1 34 0 65-14 84H32c9-13 17-26 17-46H33v-38h35" id="M"/><g id="p"><use transform="matrix(0.0493827160493827,0,0,0.0493827160493827,0,0)" xlink:href="#x"/><use transform="matrix(0.0493827160493827,0,0,0.0493827160493827,11.851851851851848,0)" xlink:href="#M"/><use transform="matrix(0.0493827160493827,0,0,0.0493827160493827,16.790123456790116,0)" xlink:href="#A"/></g><g id="q"><use transform="matrix(0.0493827160493827,0,0,0.0493827160493827,0,0)" xlink:href="#y"/><use transform="matrix(0.0493827160493827,0,0,0.0493827160493827,11.851851851851848,0)" xlink:href="#M"/><use transform="matrix(0.0493827160493827,0,0,0.0493827160493827,16.790123456790116,0)" xlink:href="#z"/></g><g id="r"><use transform="matrix(0.0493827160493827,0,0,0.0493827160493827,0,0)" xlink:href="#B"/><use transform="matrix(0.0493827160493827,0,0,0.0493827160493827,11.851851851851848,0)" xlink:href="#M"/><use transform="matrix(0.0493827160493827,0,0,0.0493827160493827,16.790123456790116,0)" xlink:href="#C"/></g><path fill="#008a0e" d="M165-50V0h-47v-50H5v-38l105-160h55v161h33v37h-33zm-47-37l2-116L46-87h72" id="N"/><use transform="matrix(0.03703703703703703,0,0,0.03703703703703703,0,0)" xlink:href="#N" id="s"/><path fill="#008a0e" d="M139-81c0-46-55-55-73-27H18l9-140h149v37H72l-4 63c44-38 133-4 122 66C201 21 21 35 11-62l49-4c5 18 15 30 39 30 26 0 40-18 40-45" id="O"/><use transform="matrix(0.03703703703703703,0,0,0.03703703703703703,0,0)" xlink:href="#O" id="t"/><g id="u"><use transform="matrix(0.0493827160493827,0,0,0.0493827160493827,0,0)" xlink:href="#x"/><use transform="matrix(0.0493827160493827,0,0,0.0493827160493827,11.851851851851848,0)" xlink:href="#M"/><use transform="matrix(0.0493827160493827,0,0,0.0493827160493827,16.790123456790116,0)" xlink:href="#y"/><use transform="matrix(0.0493827160493827,0,0,0.0493827160493827,28.641975308641964,0)" xlink:href="#M"/><use transform="matrix(0.0493827160493827,0,0,0.0493827160493827,33.58024691358023,0)" xlink:href="#z"/><use transform="matrix(0.0493827160493827,0,0,0.0493827160493827,46.37037037037035,0)" xlink:href="#M"/><use transform="matrix(0.0493827160493827,0,0,0.0493827160493827,51.308641975308625,0)" xlink:href="#A"/><use transform="matrix(0.0493827160493827,0,0,0.0493827160493827,64.09876543209874,0)" xlink:href="#M"/></g><path fill="#3a414a" d="M143 4C61 4 22-44 18-125c-5-107 100-154 193-111 17 8 29 25 37 43l-32 9c-13-25-37-40-76-40-61 0-88 39-88 99 0 61 29 100 91 101 35 0 62-11 79-27v-45h-74v-28h105v86C228-13 192 4 143 4" id="P"/><g id="v"><use transform="matrix(0.0493827160493827,0,0,0.0493827160493827,0,0)" xlink:href="#B"/><use transform="matrix(0.0493827160493827,0,0,0.0493827160493827,11.851851851851848,0)" xlink:href="#M"/><use transform="matrix(0.0493827160493827,0,0,0.0493827160493827,16.790123456790116,0)" xlink:href="#C"/><use transform="matrix(0.0493827160493827,0,0,0.0493827160493827,25.629629629629623,0)" xlink:href="#M"/><use transform="matrix(0.0493827160493827,0,0,0.0493827160493827,30.567901234567884,0)" xlink:href="#P"/></g><path fill="#333" d="M76-54c-1 42 2 86-19 110H24C36 42 46 24 48 0H25v-54h51" id="Q"/><g id="w"><use transform="matrix(0.03703703703703704,0,0,0.03703703703703704,0,0)" xlink:href="#F"/><use transform="matrix(0.03703703703703704,0,0,0.03703703703703704,7.407407407407408,0)" xlink:href="#Q"/><use transform="matrix(0.03703703703703704,0,0,0.03703703703703704,11.111111111111112,0)" xlink:href="#E"/><use transform="matrix(0.03703703703703704,0,0,0.03703703703703704,18.51851851851852,0)" xlink:href="#Q"/><use transform="matrix(0.03703703703703704,0,0,0.03703703703703704,22.22222222222222,0)" xlink:href="#L"/><use transform="matrix(0.03703703703703704,0,0,0.03703703703703704,29.62962962962963,0)" xlink:href="#Q"/><use transform="matrix(0.03703703703703704,0,0,0.03703703703703704,33.333333333333336,0)" xlink:href="#G"/></g></defs></g></svg>