<svg xmlns="http://www.w3.org/2000/svg" xmlns:xlink="http://www.w3.org/1999/xlink" xmlns:lucid="lucid" width="296" height="184"><g transform="translate(-289 -336)" lucid:page-tab-id="bbRDArgngCxm"><path d="M358.22 374.68c0 16.2-13.93 29.35-31.1 29.35-17.2 0-31.12-13.14-31.12-29.35 0-16.2 13.93-29.35 31.1-29.35 17.2 0 31.12 13.14 31.12 29.35z" stroke="#635dff" stroke-width="2" fill="#fff"/><use xlink:href="#a" transform="matrix(1,0,0,1,301,350.3333333333333) translate(20.574074074074076 29.534722222222218)"/><path d="M467.1 374.68c0 16.2-13.92 29.35-31.1 29.35s-31.1-13.14-31.1-29.35c0-16.2 13.92-29.35 31.1-29.35s31.1 13.14 31.1 29.35z" stroke="#635dff" stroke-width="2" fill="#fff"/><use xlink:href="#b" transform="matrix(1,0,0,1,409.8888888888889,350.3333333333333) translate(20.574074074074076 29.534722222222218)"/><path d="M576 374.68c0 16.2-13.93 29.35-31.1 29.35-17.2 0-31.12-13.14-31.12-29.35 0-16.2 13.93-29.35 31.1-29.35 17.2 0 31.12 13.14 31.12 29.35z" stroke="#635dff" stroke-width="2" fill="#fff"/><use xlink:href="#c" transform="matrix(1,0,0,1,518.7777777777778,350.3333333333333) translate(20.10493827160494 29.534722222222218)"/><path d="M358.22 481.32c0 16.2-13.93 29.35-31.1 29.35-17.2 0-31.12-13.14-31.12-29.35 0-16.2 13.93-29.35 31.1-29.35 17.2 0 31.12 13.14 31.12 29.35z" stroke="#635dff" stroke-width="2" fill="#fff"/><use xlink:href="#d" transform="matrix(1,0,0,1,301,456.96844181459545) translate(20.10493827160494 29.534722222222218)"/><path d="M467.1 481.32c0 16.2-13.92 29.35-31.1 29.35s-31.1-13.14-31.1-29.35c0-16.2 13.92-29.35 31.1-29.35s31.1 13.14 31.1 29.35z" stroke="#635dff" stroke-width="2" fill="#fff"/><use xlink:href="#e" transform="matrix(1,0,0,1,409.8888888888889,456.96844181459545) translate(20.574074074074076 29.534722222222218)"/><path d="M576 481.32c0 16.2-13.93 29.35-31.1 29.35-17.2 0-31.12-13.14-31.12-29.35 0-16.2 13.93-29.35 31.1-29.35 17.2 0 31.12 13.14 31.12 29.35z" stroke="#3a414a" stroke-width="2" fill="#fff"/><use xlink:href="#f" transform="matrix(1,0,0,1,518.7777777777778,456.96844181459545) translate(21.092592592592595 29.534722222222218)"/><path d="M327.1 406.53v42.94" stroke="#635dff" stroke-width="3" stroke-linejoin="round" fill="none"/><path d="M327.1 405.03l1.5-.1v1.64h-3v-1.65zM328.6 451.08l-1.48-.1-1.5.08v-1.63h3z" stroke="#635dff" stroke-width=".05" fill="#635dff"/><use xlink:href="#g" transform="matrix(1,0,0,1,311.7037037037037,420.0003445614523) translate(0 10.666666666666664)"/><path d="M360.73 374.68h41.66" stroke="#e81313" stroke-width="3" stroke-linejoin="round" fill="none"/><path d="M360.76 376.18h-1.65l.13-1.5-.1-1.5h1.63zM403.9 374.67l.08 1.5h-1.63v-3H404z" stroke="#e81313" stroke-width=".05" fill="#e81313"/><use xlink:href="#h" transform="matrix(1,0,0,1,377.85218673552026,354.6824457593689) translate(0 10.666666666666664)"/><path d="M436 406.03v43.94" stroke="#3a414a" stroke-width="2" stroke-linejoin="round" fill="none"/><path d="M436 405.03l1-.06v1.1h-2v-1.12zM437 451.05l-1-.08-1 .06v-1.1h2z" stroke="#3a414a" stroke-width=".05" fill="#3a414a"/><use xlink:href="#i" transform="matrix(1,0,0,1,420.5925925925926,420.0003445614523) translate(0 10.666666666666664)"/><path d="M544.9 406.03v43.94" stroke="#3a414a" stroke-width="2" stroke-linejoin="round" fill="none"/><path d="M544.88 405.03l1-.06v1.1h-2v-1.12zM545.9 451.05l-1-.08-1 .06v-1.1h2z" stroke="#3a414a" stroke-width=".05" fill="#3a414a"/><use xlink:href="#j" transform="matrix(1,0,0,1,552.8888888888889,423.9146120340294) translate(0 10.666666666666664)"/><path d="M469.6 374.68h41.68" stroke="#635dff" stroke-width="3" stroke-linejoin="round" fill="none"/><path d="M469.65 376.18H468l.1-1.5-.08-1.5h1.63zM512.77 374.67l.1 1.5h-1.63v-3h1.65z" stroke="#635dff" stroke-width=".05" fill="#635dff"/><use xlink:href="#k" transform="matrix(1,0,0,1,486.7410756244092,354.6824457593689) translate(0 10.666666666666664)"/><path d="M360.73 481.32h41.66" stroke="#635dff" stroke-width="3" stroke-linejoin="round" fill="none"/><path d="M360.76 482.82h-1.65l.13-1.5-.1-1.5h1.63zM403.9 481.3l.08 1.52h-1.63v-3H404z" stroke="#635dff" stroke-width=".05" fill="#635dff"/><use xlink:href="#l" transform="matrix(1,0,0,1,377.85218673552026,485.317554240631) translate(0 10.666666666666664)"/><path d="M469.1 481.32h42.68" stroke="#3a414a" stroke-width="2" stroke-linejoin="round" fill="none"/><path d="M469.14 482.32h-1.1l.07-1-.05-1h1.1zM512.77 481.3l.07 1.02h-1.1v-2h1.12z" stroke="#3a414a" stroke-width=".05" fill="#3a414a"/><use xlink:href="#m" transform="matrix(1,0,0,1,486.7410756244092,485.317554240631) translate(0 10.666666666666664)"/><path d="M459.62 458.77l61.58-61.6" stroke="#635dff" stroke-width="3" fill="none"/><path d="M460.7 459.8l-1 1.03-2.27-2 1.15-1.14zM521.15 395.12l2.23 1.98-1.15 1.15-2.12-2.12 1.03-1.03z" stroke="#635dff" stroke-width=".05" fill="#635dff"/><use xlink:href="#n" transform="matrix(1,0,0,1,500.46997115036834,422.9601645012613) translate(0 10.666666666666664)"/><path d="M349.6 397.58l62.3 62.3" stroke="#3a414a" stroke-width="2" fill="none"/><path d="M350.33 396.9l-1.4 1.4-.8-.8 1.55-1.27zM413.3 459.88l-.24.2-1.13 1.27-.77-.77 1.42-1.4z" stroke="#3a414a" stroke-width=".05" fill="#3a414a"/><use xlink:href="#o" transform="matrix(1,0,0,1,359.361738204234,419.809817258215) translate(0 10.666666666666664)"/><defs><path fill="#635dff" d="M205 0l-28-72H64L36 0H1l101-248h38L239 0h-34zm-38-99l-47-123c-12 45-31 82-46 123h93" id="p"/><use transform="matrix(0.0493827160493827,0,0,0.0493827160493827,0,0)" xlink:href="#p" id="a"/><path fill="#635dff" d="M160-131c35 5 61 23 61 61C221 17 115-2 30 0v-248c76 3 177-17 177 60 0 33-19 50-47 57zm-97-11c50-1 110 9 110-42 0-47-63-36-110-37v79zm0 115c55-2 124 14 124-45 0-56-70-42-124-44v89" id="q"/><use transform="matrix(0.0493827160493827,0,0,0.0493827160493827,0,0)" xlink:href="#q" id="b"/><path fill="#635dff" d="M212-179c-10-28-35-45-73-45-59 0-87 40-87 99 0 60 29 101 89 101 43 0 62-24 78-52l27 14C228-24 195 4 139 4 59 4 22-46 18-125c-6-104 99-153 187-111 19 9 31 26 39 46" id="r"/><use transform="matrix(0.0493827160493827,0,0,0.0493827160493827,0,0)" xlink:href="#r" id="c"/><path fill="#635dff" d="M30-248c118-7 216 8 213 122C240-48 200 0 122 0H30v-248zM63-27c89 8 146-16 146-99s-60-101-146-95v194" id="s"/><use transform="matrix(0.0493827160493827,0,0,0.0493827160493827,0,0)" xlink:href="#s" id="d"/><path fill="#3a414a" d="M30 0v-248h187v28H63v79h144v27H63v87h162V0H30" id="t"/><use transform="matrix(0.0493827160493827,0,0,0.0493827160493827,0,0)" xlink:href="#t" id="e"/><path fill="#3a414a" d="M63-220v92h138v28H63V0H30v-248h175v28H63" id="u"/><use transform="matrix(0.0493827160493827,0,0,0.0493827160493827,0,0)" xlink:href="#u" id="f"/><path fill="#635dff" d="M23 0v-37h61v-169l-59 37v-38l62-41h46v211h57V0H23" id="v"/><use transform="matrix(0.03703703703703703,0,0,0.03703703703703703,0,0)" xlink:href="#v" id="g"/><path fill="#e81313" d="M52 0c1-96 47-148 87-207H15v-41h169v40c-36 62-79 113-81 208H52" id="w"/><use transform="matrix(0.03703703703703703,0,0,0.03703703703703703,0,0)" xlink:href="#w" id="h"/><path fill="#333" d="M115-159c48 0 72 30 72 78 0 54-30 85-83 85-64 0-91-50-91-122 0-98 58-163 141-120 15 8 21 24 27 44l-47 6c-5-31-48-31-61-4-7 14-11 33-11 60 9-17 28-27 53-27zM102-35c24 0 36-20 36-45s-11-43-37-43c-23 0-36 14-36 38 0 27 11 50 37 50" id="x"/><use transform="matrix(0.03703703703703703,0,0,0.03703703703703703,0,0)" xlink:href="#x" id="i"/><path fill="#333" d="M99-251c69 0 84 53 88 123 5 99-61 162-144 118-15-8-21-25-26-45l46-6c4 31 50 33 63 7 7-15 12-36 12-60-9 18-29 28-54 28-48 0-72-32-72-82 0-55 31-83 87-83zm-1 128c24 0 37-16 37-39 0-27-10-51-37-51-25 0-35 19-35 45 0 25 10 45 35 45" id="y"/><use transform="matrix(0.03703703703703703,0,0,0.03703703703703703,0,0)" xlink:href="#y" id="j"/><path fill="#635dff" d="M182-182c0 78-84 86-111 141h115V0H12c-6-101 99-100 120-180 1-22-12-31-33-32-23 0-32 14-35 34l-49-3c5-45 32-70 84-70 51 0 83 22 83 69" id="z"/><use transform="matrix(0.03703703703703703,0,0,0.03703703703703703,0,0)" xlink:href="#z" id="k"/><path fill="#635dff" d="M165-50V0h-47v-50H5v-38l105-160h55v161h33v37h-33zm-47-37l2-116L46-87h72" id="A"/><use transform="matrix(0.03703703703703703,0,0,0.03703703703703703,0,0)" xlink:href="#A" id="l"/><path fill="#333" d="M128-127c34 4 56 21 59 58 7 91-148 94-172 28-4-9-6-17-7-26l51-5c1 24 16 35 40 36 23 0 39-12 38-36-1-31-31-36-65-34v-40c32 2 59-3 59-33 0-20-13-33-34-33s-33 13-35 32l-50-3c6-44 37-68 86-68 50 0 83 20 83 66 0 35-22 52-53 58" id="B"/><use transform="matrix(0.03703703703703703,0,0,0.03703703703703703,0,0)" xlink:href="#B" id="m"/><path fill="#635dff" d="M139-81c0-46-55-55-73-27H18l9-140h149v37H72l-4 63c44-38 133-4 122 66C201 21 21 35 11-62l49-4c5 18 15 30 39 30 26 0 40-18 40-45" id="C"/><use transform="matrix(0.03703703703703703,0,0,0.03703703703703703,0,0)" xlink:href="#C" id="n"/><path fill="#333" d="M138-131c27 9 52 24 51 61 0 53-36 74-89 74S11-19 11-69c0-35 22-54 51-61-78-25-46-121 38-121 51 0 83 19 83 66 0 30-18 49-45 54zm-38-16c24 0 32-13 32-36 1-23-11-34-32-34-22 0-33 12-32 34 0 22 9 36 32 36zm1 116c27 0 37-17 37-43 0-25-13-39-39-39-24 0-37 15-37 40 0 27 11 42 39 42" id="D"/><use transform="matrix(0.03703703703703703,0,0,0.03703703703703703,0,0)" xlink:href="#D" id="o"/></defs></g></svg>