<svg xmlns="http://www.w3.org/2000/svg" xmlns:xlink="http://www.w3.org/1999/xlink" xmlns:lucid="lucid" width="1034" height="509"><g transform="translate(-185 -566)" lucid:page-tab-id="0_0"><path d="M200 586a6 6 0 0 1 6-6h988a6 6 0 0 1 6 6v98a6 6 0 0 1-6 6H206a6 6 0 0 1-6-6z" stroke="#3a414a" fill="#fff"/><use xlink:href="#a" transform="matrix(1,0,0,1,205,585) translate(0 55.27777777777778)"/><use xlink:href="#b" transform="matrix(1,0,0,1,205,585) translate(24.691358024691358 55.27777777777778)"/><path d="M435.76 599.24a6 6 0 0 1 8.48 0l31.52 31.52a6 6 0 0 1 0 8.48l-31.52 31.52a6 6 0 0 1-8.48 0l-31.52-31.52a6 6 0 0 1 0-8.48z" stroke="#3a414a" fill="#fff"/><use xlink:href="#c" transform="matrix(1,0,0,1,405,600) translate(28.83216049382716 39.65277777777778)"/><path d="M535.76 599.24a6 6 0 0 1 8.48 0l31.52 31.52a6 6 0 0 1 0 8.48l-31.52 31.52a6 6 0 0 1-8.48 0l-31.52-31.52a6 6 0 0 1 0-8.48z" stroke="#3a414a" fill="#fff"/><use xlink:href="#d" transform="matrix(1,0,0,1,505,600) translate(28.83216049382716 39.65277777777778)"/><path d="M635.76 599.24a6 6 0 0 1 8.48 0l31.52 31.52a6 6 0 0 1 0 8.48l-31.52 31.52a6 6 0 0 1-8.48 0l-31.52-31.52a6 6 0 0 1 0-8.48z" stroke="#3a414a" fill="#fff"/><use xlink:href="#e" transform="matrix(1,0,0,1,605,600) translate(28.83216049382716 39.65277777777778)"/><path d="M735.76 599.24a6 6 0 0 1 8.48 0l31.52 31.52a6 6 0 0 1 0 8.48l-31.52 31.52a6 6 0 0 1-8.48 0l-31.52-31.52a6 6 0 0 1 0-8.48z" stroke="#3a414a" fill="#fff"/><use xlink:href="#f" transform="matrix(1,0,0,1,705,600) translate(28.83216049382716 39.65277777777778)"/><path d="M835.76 599.24a6 6 0 0 1 8.48 0l31.52 31.52a6 6 0 0 1 0 8.48l-31.52 31.52a6 6 0 0 1-8.48 0l-31.52-31.52a6 6 0 0 1 0-8.48z" stroke="#3a414a" fill="#fff"/><use xlink:href="#g" transform="matrix(1,0,0,1,805,600) translate(28.83216049382716 39.65277777777778)"/><path d="M935.76 599.24a6 6 0 0 1 8.48 0l31.52 31.52a6 6 0 0 1 0 8.48l-31.52 31.52a6 6 0 0 1-8.48 0l-31.52-31.52a6 6 0 0 1 0-8.48z" stroke="#3a414a" fill="#fff"/><use xlink:href="#h" transform="matrix(1,0,0,1,905,600) translate(28.83216049382716 39.65277777777778)"/><path d="M1035.76 599.24a6 6 0 0 1 8.48 0l31.52 31.52a6 6 0 0 1 0 8.48l-31.52 31.52a6 6 0 0 1-8.48 0l-31.52-31.52a6 6 0 0 1 0-8.48z" stroke="#3a414a" fill="#fff"/><use xlink:href="#i" transform="matrix(1,0,0,1,1005,600) translate(28.83216049382716 39.65277777777778)"/><path d="M1135.76 599.24a6 6 0 0 1 8.48 0l31.52 31.52a6 6 0 0 1 0 8.48l-31.52 31.52a6 6 0 0 1-8.48 0l-31.52-31.52a6 6 0 0 1 0-8.48z" stroke="#3a414a" fill="#fff"/><use xlink:href="#j" transform="matrix(1,0,0,1,1105,600) translate(28.83216049382716 39.65277777777778)"/><path d="M200 706a6 6 0 0 1 6-6h988a6 6 0 0 1 6 6v98a6 6 0 0 1-6 6H206a6 6 0 0 1-6-6z" stroke="#3a414a" fill="#fff"/><use xlink:href="#a" transform="matrix(1,0,0,1,205,705) translate(0 55.27777777777778)"/><use xlink:href="#k" transform="matrix(1,0,0,1,205,705) translate(24.691358024691358 55.27777777777778)"/><use xlink:href="#l" transform="matrix(1,0,0,1,205,705) translate(110.98765432098766 55.27777777777778)"/><path d="M435.76 724.24a6 6 0 0 1 8.48 0l31.52 31.52a6 6 0 0 1 0 8.48l-31.52 31.52a6 6 0 0 1-8.48 0l-31.52-31.52a6 6 0 0 1 0-8.48z" stroke="#3a414a" fill="#fff"/><use xlink:href="#c" transform="matrix(1,0,0,1,405,725) translate(28.83216049382716 39.65277777777778)"/><path d="M635.76 724.24a6 6 0 0 1 8.48 0l31.52 31.52a6 6 0 0 1 0 8.48l-31.52 31.52a6 6 0 0 1-8.48 0l-31.52-31.52a6 6 0 0 1 0-8.48z" stroke="#3a414a" fill="#fff"/><use xlink:href="#e" transform="matrix(1,0,0,1,605,725) translate(28.83216049382716 39.65277777777778)"/><path d="M835.76 724.24a6 6 0 0 1 8.48 0l31.52 31.52a6 6 0 0 1 0 8.48l-31.52 31.52a6 6 0 0 1-8.48 0l-31.52-31.52a6 6 0 0 1 0-8.48z" stroke="#3a414a" fill="#fff"/><use xlink:href="#g" transform="matrix(1,0,0,1,805,725) translate(28.83216049382716 39.65277777777778)"/><path d="M1035.76 724.24a6 6 0 0 1 8.48 0l31.52 31.52a6 6 0 0 1 0 8.48l-31.52 31.52a6 6 0 0 1-8.48 0l-31.52-31.52a6 6 0 0 1 0-8.48z" stroke="#3a414a" fill="#fff"/><use xlink:href="#i" transform="matrix(1,0,0,1,1005,725) translate(28.83216049382716 39.65277777777778)"/><path d="M440 673.52v32.08" stroke="#3a414a" fill="none"/><path d="M440 673.02l.5-.04v.55h-1v-.55z" stroke="#3a414a" stroke-width=".05" fill="#3a414a"/><path d="M440 720.37l-4.63-14.27h9.26z" stroke="#3a414a" fill="#3a414a"/><path d="M540 673.52V726a34 34 0 0 1-34 34h-11.6" stroke="#3a414a" fill="none"/><path d="M540 673.02l.5-.04v.55h-1v-.55z" stroke="#3a414a" stroke-width=".05" fill="#3a414a"/><path d="M479.63 760l14.27-4.63v9.26z" stroke="#3a414a" fill="#3a414a"/><path d="M640 673.52v32.08" stroke="#3a414a" fill="none"/><path d="M640 673.02l.5-.04v.55h-1v-.55z" stroke="#3a414a" stroke-width=".05" fill="#3a414a"/><path d="M640 720.37l-4.63-14.27h9.26z" stroke="#3a414a" fill="#3a414a"/><path d="M740 673.52V726a34 34 0 0 1-34 34h-11.6" stroke="#3a414a" fill="none"/><path d="M740 673.02l.5-.04v.55h-1v-.55z" stroke="#3a414a" stroke-width=".05" fill="#3a414a"/><path d="M679.63 760l14.27-4.63v9.26z" stroke="#3a414a" fill="#3a414a"/><path d="M840 673.52v32.08" stroke="#3a414a" fill="none"/><path d="M840 673.02l.5-.04v.55h-1v-.55z" stroke="#3a414a" stroke-width=".05" fill="#3a414a"/><path d="M840 720.37l-4.63-14.27h9.26z" stroke="#3a414a" fill="#3a414a"/><path d="M940 673.52V726a34 34 0 0 1-34 34h-11.6" stroke="#3a414a" fill="none"/><path d="M940 673.02l.5-.04v.55h-1v-.55z" stroke="#3a414a" stroke-width=".05" fill="#3a414a"/><path d="M879.63 760l14.27-4.63v9.26z" stroke="#3a414a" fill="#3a414a"/><path d="M1040 673.52v32.08" stroke="#3a414a" fill="none"/><path d="M1040 673.02l.5-.04v.55h-1v-.55z" stroke="#3a414a" stroke-width=".05" fill="#3a414a"/><path d="M1040 720.37l-4.63-14.27h9.27z" stroke="#3a414a" fill="#3a414a"/><path d="M1140 673.52V726a34 34 0 0 1-34 34h-11.6" stroke="#3a414a" fill="none"/><path d="M1140 673.02l.5-.04v.55h-1v-.55z" stroke="#3a414a" stroke-width=".05" fill="#3a414a"/><path d="M1079.63 760l14.27-4.63v9.26z" stroke="#3a414a" fill="#3a414a"/><path d="M200 827.98a6 6 0 0 1 6-6h988a6 6 0 0 1 6 6v98a6 6 0 0 1-6 6H206a6 6 0 0 1-6-6z" stroke="#3a414a" fill="#fff"/><use xlink:href="#a" transform="matrix(1,0,0,1,205,826.9837661984307) translate(0 55.27777777777778)"/><use xlink:href="#k" transform="matrix(1,0,0,1,205,826.9837661984307) translate(24.691358024691358 55.27777777777778)"/><use xlink:href="#m" transform="matrix(1,0,0,1,205,826.9837661984307) translate(110.98765432098766 55.27777777777778)"/><path d="M435.76 846.23a6 6 0 0 1 8.48 0l31.52 31.5a6 6 0 0 1 0 8.5l-31.52 31.5a6 6 0 0 1-8.48 0l-31.52-31.5a6 6 0 0 1 0-8.5z" stroke="#3a414a" fill="#fff"/><use xlink:href="#c" transform="matrix(1,0,0,1,405,846.9837661984307) translate(28.83216049382716 39.65277777777778)"/><path d="M835.76 846.23a6 6 0 0 1 8.48 0l31.52 31.5a6 6 0 0 1 0 8.5l-31.52 31.5a6 6 0 0 1-8.48 0l-31.52-31.5a6 6 0 0 1 0-8.5z" stroke="#3a414a" fill="#fff"/><use xlink:href="#g" transform="matrix(1,0,0,1,805,846.9837661984307) translate(28.83216049382716 39.65277777777778)"/><path d="M440 798.52v29.06" stroke="#3a414a" fill="none"/><path d="M440 798.02l.5-.04v.55h-1v-.55z" stroke="#3a414a" stroke-width=".05" fill="#3a414a"/><path d="M440 842.35l-4.63-14.27h9.26z" stroke="#3a414a" fill="#3a414a"/><path d="M640 798.52v49.46a34 34 0 0 1-34 34H494.4" stroke="#3a414a" fill="none"/><path d="M640 798.02l.5-.04v.55h-1v-.55z" stroke="#3a414a" stroke-width=".05" fill="#3a414a"/><path d="M479.63 881.98l14.27-4.63v9.27z" stroke="#3a414a" fill="#3a414a"/><path d="M840 798.52v29.06" stroke="#3a414a" fill="none"/><path d="M840 798.02l.5-.04v.55h-1v-.55z" stroke="#3a414a" stroke-width=".05" fill="#3a414a"/><path d="M840 842.35l-4.63-14.27h9.26z" stroke="#3a414a" fill="#3a414a"/><path d="M1040 798.52v49.46a34 34 0 0 1-34 34H894.4" stroke="#3a414a" fill="none"/><path d="M1040 798.02l.5-.04v.55h-1v-.55z" stroke="#3a414a" stroke-width=".05" fill="#3a414a"/><path d="M879.63 881.98l14.27-4.63v9.27z" stroke="#3a414a" fill="#3a414a"/><path d="M200 949.97a6 6 0 0 1 6-6h988a6 6 0 0 1 6 6v98a6 6 0 0 1-6 6H206a6 6 0 0 1-6-6z" stroke="#3a414a" fill="#fff"/><use xlink:href="#a" transform="matrix(1,0,0,1,205,948.9675323968613) translate(0 55.27777777777778)"/><use xlink:href="#k" transform="matrix(1,0,0,1,205,948.9675323968613) translate(24.691358024691358 55.27777777777778)"/><use xlink:href="#n" transform="matrix(1,0,0,1,205,948.9675323968613) translate(110.98765432098766 55.27777777777778)"/><path d="M435.76 968.2a6 6 0 0 1 8.48 0l31.52 31.52a6 6 0 0 1 0 8.5l-31.52 31.5a6 6 0 0 1-8.48 0l-31.52-31.5a6 6 0 0 1 0-8.5z" stroke="#3a414a" fill="#fff"/><use xlink:href="#c" transform="matrix(1,0,0,1,405,968.9675323968613) translate(28.83216049382716 39.65277777777778)"/><path d="M440 920.5v29.07M440 920.5v-.5" stroke="#3a414a" fill="none"/><path d="M440 964.33l-4.63-14.26h9.26z" stroke="#3a414a" fill="#3a414a"/><path d="M840 920.5v49.47a34 34 0 0 1-34 34H494.4" stroke="#3a414a" fill="none"/><path d="M840 920l.5-.04v.55h-1v-.54z" stroke="#3a414a" stroke-width=".05" fill="#3a414a"/><path d="M479.63 1003.97l14.27-4.64v9.27z" stroke="#3a414a" fill="#3a414a"/><defs><path fill="#3a414a" d="M185-189c-5-48-123-54-124 2 14 75 158 14 163 119 3 78-121 87-175 55-17-10-28-26-33-46l33-7c5 56 141 63 141-1 0-78-155-14-162-118-5-82 145-84 179-34 5 7 8 16 11 25" id="o"/><path fill="#3a414a" d="M59-47c-2 24 18 29 38 22v24C64 9 27 4 27-40v-127H5v-23h24l9-43h21v43h35v23H59v120" id="p"/><path fill="#3a414a" d="M141-36C126-15 110 5 73 4 37 3 15-17 15-53c-1-64 63-63 125-63 3-35-9-54-41-54-24 1-41 7-42 31l-33-3c5-37 33-52 76-52 45 0 72 20 72 64v82c-1 20 7 32 28 27v20c-31 9-61-2-59-35zM48-53c0 20 12 33 32 33 41-3 63-29 60-74-43 2-92-5-92 41" id="q"/><path fill="#3a414a" d="M114-163C36-179 61-72 57 0H25l-1-190h30c1 12-1 29 2 39 6-27 23-49 58-41v29" id="r"/><path fill="#3a414a" d="M9 0v-24l116-142H16v-24h144v24L44-24h123V0H9" id="s"/><path fill="#3a414a" d="M84 4C-5 8 30-112 23-190h32v120c0 31 7 50 39 49 72-2 45-101 50-169h31l1 190h-30c-1-10 1-25-2-33-11 22-28 36-60 37" id="t"/><path fill="#3a414a" d="M135-143c-3-34-86-38-87 0 15 53 115 12 119 90S17 21 10-45l28-5c4 36 97 45 98 0-10-56-113-15-118-90-4-57 82-63 122-42 12 7 21 19 24 35" id="u"/><path fill="#3a414a" d="M117-194c89-4 53 116 60 194h-32v-121c0-31-8-49-39-48C34-167 62-67 57 0H25l-1-190h30c1 10-1 24 2 32 11-22 29-35 61-36" id="v"/><path fill="#3a414a" d="M85-194c31 0 48 13 60 33l-1-100h32l1 261h-30c-2-10 0-23-3-31C134-8 116 4 85 4 32 4 16-35 15-94c0-66 23-100 70-100zm9 24c-40 0-46 34-46 75 0 40 6 74 45 74 42 0 51-32 51-76 0-42-9-74-50-73" id="w"/><g id="b"><use transform="matrix(0.06172839506172839,0,0,0.06172839506172839,0,0)" xlink:href="#o"/><use transform="matrix(0.06172839506172839,0,0,0.06172839506172839,14.814814814814813,0)" xlink:href="#p"/><use transform="matrix(0.06172839506172839,0,0,0.06172839506172839,20.98765432098765,0)" xlink:href="#q"/><use transform="matrix(0.06172839506172839,0,0,0.06172839506172839,33.33333333333333,0)" xlink:href="#r"/><use transform="matrix(0.06172839506172839,0,0,0.06172839506172839,40.679012345679006,0)" xlink:href="#p"/><use transform="matrix(0.06172839506172839,0,0,0.06172839506172839,46.85185185185185,0)" xlink:href="#s"/><use transform="matrix(0.06172839506172839,0,0,0.06172839506172839,57.96296296296296,0)" xlink:href="#t"/><use transform="matrix(0.06172839506172839,0,0,0.06172839506172839,70.30864197530865,0)" xlink:href="#u"/><use transform="matrix(0.06172839506172839,0,0,0.06172839506172839,81.41975308641976,0)" xlink:href="#p"/><use transform="matrix(0.06172839506172839,0,0,0.06172839506172839,87.5925925925926,0)" xlink:href="#q"/><use transform="matrix(0.06172839506172839,0,0,0.06172839506172839,99.93827160493828,0)" xlink:href="#v"/><use transform="matrix(0.06172839506172839,0,0,0.06172839506172839,112.28395061728396,0)" xlink:href="#w"/></g><path fill="#3a414a" d="M101-251c68 0 85 55 85 127S166 4 100 4C33 4 14-52 14-124c0-73 17-127 87-127zm-1 229c47 0 54-49 54-102s-4-102-53-102c-51 0-55 48-55 102 0 53 5 102 54 102" id="x"/><use transform="matrix(0.06172839506172839,0,0,0.06172839506172839,0,0)" xlink:href="#x" id="c"/><path fill="#3a414a" d="M27 0v-27h64v-190l-56 39v-29l58-41h29v221h61V0H27" id="y"/><use transform="matrix(0.06172839506172839,0,0,0.06172839506172839,0,0)" xlink:href="#y" id="d"/><path fill="#3a414a" d="M101-251c82-7 93 87 43 132L82-64C71-53 59-42 53-27h129V0H18c2-99 128-94 128-182 0-28-16-43-45-43s-46 15-49 41l-32-3c6-41 34-60 81-64" id="z"/><use transform="matrix(0.06172839506172839,0,0,0.06172839506172839,0,0)" xlink:href="#z" id="e"/><path fill="#3a414a" d="M126-127c33 6 58 20 58 59 0 88-139 92-164 29-3-8-5-16-6-25l32-3c6 27 21 44 54 44 32 0 52-15 52-46 0-38-36-46-79-43v-28c39 1 72-4 72-42 0-27-17-43-46-43-28 0-47 15-49 41l-32-3c6-42 35-63 81-64 48-1 79 21 79 65 0 36-21 52-52 59" id="A"/><use transform="matrix(0.06172839506172839,0,0,0.06172839506172839,0,0)" xlink:href="#A" id="f"/><path fill="#3a414a" d="M155-56V0h-30v-56H8v-25l114-167h33v167h35v25h-35zm-30-156c-27 46-58 90-88 131h88v-131" id="B"/><use transform="matrix(0.06172839506172839,0,0,0.06172839506172839,0,0)" xlink:href="#B" id="g"/><path fill="#3a414a" d="M54-142c48-35 137-8 131 61C196 18 31 33 14-55l32-4c7 23 22 37 52 37 35-1 51-22 54-58 4-55-73-65-99-34H22l8-134h141v27H59" id="C"/><use transform="matrix(0.06172839506172839,0,0,0.06172839506172839,0,0)" xlink:href="#C" id="h"/><path fill="#3a414a" d="M110-160c48 1 74 30 74 79 0 53-28 85-80 85-65 0-83-55-86-122-5-90 50-162 133-122 14 7 22 21 27 39l-31 6c-5-40-67-38-82-6-9 19-15 44-15 74 11-20 30-34 60-33zm-7 138c34 0 49-23 49-58s-16-56-50-56c-29 0-50 16-49 49 1 36 15 65 50 65" id="D"/><use transform="matrix(0.06172839506172839,0,0,0.06172839506172839,0,0)" xlink:href="#D" id="i"/><path fill="#3a414a" d="M64 0c3-98 48-159 88-221H18v-27h164v26C143-157 98-101 97 0H64" id="E"/><use transform="matrix(0.06172839506172839,0,0,0.06172839506172839,0,0)" xlink:href="#E" id="j"/><path fill="#3a414a" d="M33 0v-248h34V0H33" id="F"/><path fill="#3a414a" d="M100-194c63 0 86 42 84 106H49c0 40 14 67 53 68 26 1 43-12 49-29l28 8c-11 28-37 45-77 45C44 4 14-33 15-96c1-61 26-98 85-98zm52 81c6-60-76-77-97-28-3 7-6 17-6 28h103" id="G"/><path fill="#3a414a" d="M24-231v-30h32v30H24zM24 0v-190h32V0H24" id="H"/><path fill="#3a414a" d="M100-194c62-1 85 37 85 99 1 63-27 99-86 99S16-35 15-95c0-66 28-99 85-99zM99-20c44 1 53-31 53-75 0-43-8-75-51-75s-53 32-53 75 10 74 51 75" id="I"/><g id="k"><use transform="matrix(0.06172839506172839,0,0,0.06172839506172839,0,0)" xlink:href="#F"/><use transform="matrix(0.06172839506172839,0,0,0.06172839506172839,6.172839506172839,0)" xlink:href="#p"/><use transform="matrix(0.06172839506172839,0,0,0.06172839506172839,12.345679012345679,0)" xlink:href="#G"/><use transform="matrix(0.06172839506172839,0,0,0.06172839506172839,24.691358024691358,0)" xlink:href="#r"/><use transform="matrix(0.06172839506172839,0,0,0.06172839506172839,32.03703703703704,0)" xlink:href="#q"/><use transform="matrix(0.06172839506172839,0,0,0.06172839506172839,44.382716049382715,0)" xlink:href="#p"/><use transform="matrix(0.06172839506172839,0,0,0.06172839506172839,50.55555555555556,0)" xlink:href="#H"/><use transform="matrix(0.06172839506172839,0,0,0.06172839506172839,55.4320987654321,0)" xlink:href="#I"/><use transform="matrix(0.06172839506172839,0,0,0.06172839506172839,67.77777777777779,0)" xlink:href="#v"/></g><use transform="matrix(0.06172839506172839,0,0,0.06172839506172839,0,0)" xlink:href="#y" id="l"/><use transform="matrix(0.06172839506172839,0,0,0.06172839506172839,0,0)" xlink:href="#z" id="m"/><use transform="matrix(0.06172839506172839,0,0,0.06172839506172839,0,0)" xlink:href="#A" id="n"/></defs></g></svg>