<svg xmlns="http://www.w3.org/2000/svg" xmlns:xlink="http://www.w3.org/1999/xlink" xmlns:lucid="lucid" width="895" height="222"><g transform="translate(-452 -128)" lucid:page-tab-id="0_0"><path d="M540 300c0 22.1-17.9 40-40 40s-40-17.9-40-40 17.9-40 40-40 40 17.9 40 40z" stroke="#3a414a" stroke-width="2" fill="#fff"/><use xlink:href="#a" transform="matrix(1,0,0,1,465,265) translate(28.82716049382716 39.65277777777778)"/><path d="M640 300c0 22.1-17.9 40-40 40s-40-17.9-40-40 17.9-40 40-40 40 17.9 40 40z" stroke="#3a414a" stroke-width="2" fill="#fff"/><use xlink:href="#b" transform="matrix(1,0,0,1,565,265) translate(28.82716049382716 39.65277777777778)"/><path d="M760 300c0 22.1-17.9 40-40 40s-40-17.9-40-40 17.9-40 40-40 40 17.9 40 40z" stroke="#3a414a" stroke-width="2" fill="#fff"/><use xlink:href="#c" transform="matrix(1,0,0,1,685,265) translate(28.82716049382716 39.65277777777778)"/><path d="M860 300c0 22.1-17.9 40-40 40s-40-17.9-40-40 17.9-40 40-40 40 17.9 40 40z" stroke="#3a414a" stroke-width="2" fill="#fff"/><use xlink:href="#d" transform="matrix(1,0,0,1,785,265) translate(28.82716049382716 39.65277777777778)"/><path d="M1020 300c0 22.1-17.9 40-40 40s-40-17.9-40-40 17.9-40 40-40 40 17.9 40 40z" stroke="#3a414a" stroke-width="2" fill="#fff"/><use xlink:href="#e" transform="matrix(1,0,0,1,945,265) translate(28.82716049382716 39.65277777777778)"/><path d="M1120 300c0 22.1-17.9 40-40 40s-40-17.9-40-40 17.9-40 40-40 40 17.9 40 40z" stroke="#3a414a" stroke-width="2" fill="#fff"/><use xlink:href="#f" transform="matrix(1,0,0,1,1045,265) translate(28.82716049382716 39.65277777777778)"/><path d="M1240 300c0 22.1-17.9 40-40 40s-40-17.9-40-40 17.9-40 40-40 40 17.9 40 40z" stroke="#3a414a" stroke-width="2" fill="#fff"/><use xlink:href="#g" transform="matrix(1,0,0,1,1165,265) translate(28.82716049382716 39.65277777777778)"/><path d="M1340 300c0 22.1-17.9 40-40 40s-40-17.9-40-40 17.9-40 40-40 40 17.9 40 40z" stroke="#3a414a" stroke-width="2" fill="#fff"/><use xlink:href="#h" transform="matrix(1,0,0,1,1265,265) translate(28.82716049382716 39.65277777777778)"/><path d="M500.02 258v-.18l.1-1.13.13-1.12.2-1.07.23-1.04.3-1.02.33-1.02.4-1 .46-1 .5-.98.58-.98.64-1 .7-.98.8-1 .9-1 1-1.03 1.12-1.03 1.25-1.05 1.4-1.05 1.6-1.07 1.77-1.08 2-1.1 2.26-1.07 2.55-1.06 2.86-1.03 3.2-.96 3.55-.9 3.9-.76 4.2-.62 4.47-.43 4.64-.2h4.68l4.6.26 4.44.45 4.16.65 3.84.8 3.5.9 3.14.98 2.8 1.04 2.5 1.07 2.2 1.07 1.98 1.08 1.74 1.08 1.55 1.07 1.37 1.05 1.23 1.05 1.1 1.03.97 1 .88 1.02.78 1 .7 1 .63.97.57 1 .5.98.43 1 .4 1 .32 1 .28 1.04.23 1.05.17 1.07.13 1.1.08 1.13" stroke="#3a414a" stroke-width="2" stroke-linejoin="round" fill="none"/><path d="M501.02 258l-.02 1.06-1-.06-1 .04.03-1.1zM601 259.06l-1-.06-1 .04-.02-1.05 2-.05z" stroke="#3a414a" stroke-width=".05" fill="#3a414a"/><use xlink:href="#i" transform="matrix(1,0,0,1,545.0270957590194,233.0277370319735) translate(0 14.222222222222223)"/><path d="M720.02 258v-.18l.1-1.13.13-1.12.2-1.07.23-1.04.3-1.02.33-1.02.4-1 .46-1 .5-.98.58-.98.64-1 .7-.98.8-1 .9-1 1-1.03 1.12-1.03 1.25-1.05 1.4-1.05 1.6-1.07 1.77-1.08 2-1.1 2.26-1.07 2.55-1.06 2.86-1.03 3.2-.96 3.55-.9 3.9-.76 4.2-.62 4.47-.43 4.64-.2h4.68l4.6.26 4.44.45 4.16.65 3.84.8 3.5.9 3.14.98 2.8 1.04 2.5 1.07 2.2 1.07 1.98 1.08 1.74 1.08 1.55 1.07 1.37 1.05 1.23 1.05 1.1 1.03.97 1 .88 1.02.78 1 .7 1 .63.97.57 1 .5.98.43 1 .4 1 .32 1 .28 1.04.23 1.05.17 1.07.13 1.1.08 1.13" stroke="#3a414a" stroke-width="2" stroke-linejoin="round" fill="none"/><path d="M721.02 258l-.02 1.06-1-.06-1 .04.03-1.1zM821 259.06l-1-.06-1 .04-.02-1.05 2-.05z" stroke="#3a414a" stroke-width=".05" fill="#3a414a"/><use xlink:href="#i" transform="matrix(1,0,0,1,765.0270957590187,233.0277370319735) translate(0 14.222222222222223)"/><path d="M980.02 258v-.18l.1-1.13.13-1.12.2-1.07.23-1.04.3-1.02.33-1.02.4-1 .46-1 .5-.98.58-.98.64-1 .7-.98.8-1 .9-1 1-1.03 1.12-1.03 1.25-1.05 1.4-1.05 1.6-1.07 1.77-1.08 2-1.1 2.26-1.07 2.55-1.06 2.86-1.03 3.2-.96 3.55-.9 3.9-.76 4.2-.62 4.47-.43 4.64-.2h4.68l4.6.26 4.44.45 4.16.65 3.84.8 3.5.9 3.14.98 2.8 1.04 2.5 1.07 2.2 1.07 1.98 1.08 1.74 1.08 1.55 1.07 1.37 1.05 1.23 1.05 1.1 1.03.97 1 .88 1.02.78 1 .7 1 .63.97.57 1 .5.98.43 1 .4 1 .32 1 .28 1.04.23 1.05.17 1.07.13 1.1.08 1.13" stroke="#3a414a" stroke-width="2" stroke-linejoin="round" fill="none"/><path d="M981.02 258l-.02 1.06-1-.06-1 .04.03-1.1zM1081 259.06l-1-.06-1 .04-.02-1.05 2-.05z" stroke="#3a414a" stroke-width=".05" fill="#3a414a"/><use xlink:href="#i" transform="matrix(1,0,0,1,1025.0270957590176,233.0277370319735) translate(0 14.222222222222223)"/><path d="M1200.03 258v-.18l.1-1.13.12-1.12.2-1.07.23-1.04.3-1.02.33-1.02.4-1 .46-1 .5-.98.58-.98.64-1 .7-.98.8-1 .9-1 1-1.03 1.12-1.03 1.25-1.05 1.4-1.05 1.6-1.07 1.77-1.08 2-1.1 2.26-1.07 2.55-1.06 2.86-1.03 3.2-.96 3.55-.9 3.9-.76 4.2-.62 4.47-.43 4.64-.2h4.68l4.6.26 4.44.45 4.16.65 3.84.8 3.5.9 3.14.98 2.8 1.04 2.5 1.07 2.2 1.07 1.98 1.08 1.74 1.08 1.55 1.07 1.37 1.05 1.23 1.05 1.1 1.03.97 1 .88 1.02.78 1 .7 1 .63.97.57 1 .5.98.43 1 .4 1 .32 1 .28 1.04.23 1.05.17 1.07.13 1.1.08 1.13" stroke="#3a414a" stroke-width="2" stroke-linejoin="round" fill="none"/><path d="M1201.03 258l-.03 1.06-1-.06-1 .04.03-1.1zM1301 259.06l-1-.06-1 .04-.02-1.05 2-.05z" stroke="#3a414a" stroke-width=".05" fill="#3a414a"/><use xlink:href="#i" transform="matrix(1,0,0,1,1245.0270957590221,233.02773703197352) translate(0 14.222222222222223)"/><path d="M500.02 258l.03-1.18.13-2.1.2-2.06.3-2 .38-1.97.46-1.94.53-1.9.6-1.87.7-1.86.76-1.83.87-1.82.96-1.82 1.05-1.82 1.15-1.82 1.27-1.82 1.4-1.84 1.52-1.84 1.68-1.86 1.84-1.88 2.02-1.9 2.22-1.92 2.45-1.94 2.7-1.95 2.97-1.98 3.3-2 3.62-2 4.02-2 4.45-1.97 4.9-1.94 5.4-1.9 5.93-1.78 6.47-1.66 7.02-1.48 7.52-1.28 7.97-1 8.34-.7 8.55-.36h8.63l8.55.36 8.33.7 7.98 1 7.52 1.28 7 1.5 6.5 1.65 5.92 1.8 5.4 1.87 4.9 1.94 4.45 1.98 4 2 3.65 1.98 3.3 2 2.96 1.97 2.7 1.96 2.44 1.94 2.23 1.92 2.02 1.88 1.84 1.88 1.68 1.86 1.53 1.85 1.4 1.83 1.27 1.83 1.16 1.82 1.05 1.8.95 1.83.86 1.83.76 1.85.7 1.85.6 1.87.52 1.9.46 1.92.37 1.96.3 2 .22 2.06.13 2.1.03 1.18" stroke="#3a414a" stroke-width="2" stroke-linejoin="round" fill="none"/><path d="M501.02 258l-.02 1.06-1-.06-1 .04.02-1.1zM721 259.06l-1-.06-1 .04-.02-1.05 2-.05z" stroke="#3a414a" stroke-width=".05" fill="#3a414a"/><use xlink:href="#j" transform="matrix(1,0,0,1,605.062425552979,197.0445630520463) translate(0 14.222222222222223)"/><path d="M980.02 258l.02-1.18.14-2.1.2-2.06.3-2 .38-1.97.46-1.94.53-1.9.6-1.87.7-1.86.76-1.83.87-1.82.96-1.82 1.05-1.82 1.15-1.82 1.27-1.82 1.4-1.84 1.52-1.84 1.68-1.86 1.84-1.88 2.02-1.9 2.22-1.92 2.45-1.94 2.7-1.95 2.97-1.98 3.3-2 3.62-2 4.02-2 4.45-1.97 4.9-1.94 5.4-1.9 5.93-1.78 6.47-1.66 7.02-1.48 7.52-1.28 7.97-1 8.34-.7 8.55-.36h8.63l8.55.36 8.33.7 7.98 1 7.52 1.28 7 1.5 6.5 1.65 5.92 1.8 5.4 1.87 4.9 1.94 4.45 1.98 4.02 2 3.62 1.98 3.3 2 2.96 1.97 2.7 1.96 2.44 1.94 2.23 1.92 2.02 1.88 1.84 1.88 1.68 1.86 1.53 1.85 1.4 1.83 1.27 1.83 1.16 1.82 1.05 1.8.95 1.83.86 1.83.76 1.85.7 1.85.6 1.87.52 1.9.46 1.92.37 1.96.3 2 .22 2.06.13 2.1.03 1.18" stroke="#3a414a" stroke-width="2" stroke-linejoin="round" fill="none"/><path d="M981.02 258l-.02 1.06-1-.06-1 .04.02-1.1zM1201 259.06l-1-.06-1 .04-.02-1.05 2-.05z" stroke="#3a414a" stroke-width=".05" fill="#3a414a"/><use xlink:href="#j" transform="matrix(1,0,0,1,1085.0624255529794,197.0445630520463) translate(0 14.222222222222223)"/><path d="M500.02 258l.08-3.67.27-4.43.45-4.22.6-4.03.73-3.87.88-3.73 1-3.6 1.14-3.5 1.26-3.4 1.4-3.33 1.54-3.26 1.67-3.2 1.82-3.15 1.98-3.1 2.14-3.1 2.33-3.06 2.54-3.06 2.75-3.05 2.98-3.05 3.26-3.06 3.57-3.1 3.93-3.1 4.3-3.12 4.78-3.17 5.3-3.2 5.9-3.23 6.6-3.28 7.45-3.3 8.44-3.35 9.63-3.35 11.08-3.34 12.84-3.3 14.98-3.17 17.64-2.96 20.95-2.63 25.06-2.08 30.13-1.24 17.27-.18 32.97.67 27.3 1.7 22.7 2.37 19 2.8 16.1 3.06 13.72 3.2 11.8 3.3 10.24 3.32 8.95 3.32 7.86 3.3 6.98 3.28 6.2 3.24 5.55 3.2 5 3.17 4.5 3.13 4.1 3.1 3.73 3.1 3.4 3.06 3.12 3.05 2.86 3.05 2.64 3.05 2.43 3.06 2.24 3.08 2.07 3.12 1.9 3.14 1.76 3.18 1.6 3.24 1.48 3.3 1.33 3.38 1.2 3.47 1.1 3.57.94 3.7.82 3.82.67 3.98.52 4.16.36 4.36.2 4.6V258" stroke="#3a414a" stroke-width="2" stroke-linejoin="round" fill="none"/><path d="M501.02 258l-.02 1.06-1-.06-1 .04.02-1.1zM981 259.06l-1-.06-1 .04v-1.06l2-.02z" stroke="#3a414a" stroke-width=".05" fill="#3a414a"/><use xlink:href="#k" transform="matrix(1,0,0,1,735.085655010015,142.00726121659082) translate(0 14.222222222222223)"/><defs><path fill="#3a414a" d="M101-251c68 0 85 55 85 127S166 4 100 4C33 4 14-52 14-124c0-73 17-127 87-127zm-1 229c47 0 54-49 54-102s-4-102-53-102c-51 0-55 48-55 102 0 53 5 102 54 102" id="l"/><use transform="matrix(0.06172839506172839,0,0,0.06172839506172839,0,0)" xlink:href="#l" id="a"/><path fill="#3a414a" d="M27 0v-27h64v-190l-56 39v-29l58-41h29v221h61V0H27" id="m"/><use transform="matrix(0.06172839506172839,0,0,0.06172839506172839,0,0)" xlink:href="#m" id="b"/><path fill="#3a414a" d="M101-251c82-7 93 87 43 132L82-64C71-53 59-42 53-27h129V0H18c2-99 128-94 128-182 0-28-16-43-45-43s-46 15-49 41l-32-3c6-41 34-60 81-64" id="n"/><use transform="matrix(0.06172839506172839,0,0,0.06172839506172839,0,0)" xlink:href="#n" id="c"/><path fill="#3a414a" d="M126-127c33 6 58 20 58 59 0 88-139 92-164 29-3-8-5-16-6-25l32-3c6 27 21 44 54 44 32 0 52-15 52-46 0-38-36-46-79-43v-28c39 1 72-4 72-42 0-27-17-43-46-43-28 0-47 15-49 41l-32-3c6-42 35-63 81-64 48-1 79 21 79 65 0 36-21 52-52 59" id="o"/><use transform="matrix(0.06172839506172839,0,0,0.06172839506172839,0,0)" xlink:href="#o" id="d"/><path fill="#3a414a" d="M155-56V0h-30v-56H8v-25l114-167h33v167h35v25h-35zm-30-156c-27 46-58 90-88 131h88v-131" id="p"/><use transform="matrix(0.06172839506172839,0,0,0.06172839506172839,0,0)" xlink:href="#p" id="e"/><path fill="#3a414a" d="M54-142c48-35 137-8 131 61C196 18 31 33 14-55l32-4c7 23 22 37 52 37 35-1 51-22 54-58 4-55-73-65-99-34H22l8-134h141v27H59" id="q"/><use transform="matrix(0.06172839506172839,0,0,0.06172839506172839,0,0)" xlink:href="#q" id="f"/><path fill="#3a414a" d="M110-160c48 1 74 30 74 79 0 53-28 85-80 85-65 0-83-55-86-122-5-90 50-162 133-122 14 7 22 21 27 39l-31 6c-5-40-67-38-82-6-9 19-15 44-15 74 11-20 30-34 60-33zm-7 138c34 0 49-23 49-58s-16-56-50-56c-29 0-50 16-49 49 1 36 15 65 50 65" id="r"/><use transform="matrix(0.06172839506172839,0,0,0.06172839506172839,0,0)" xlink:href="#r" id="g"/><path fill="#3a414a" d="M64 0c3-98 48-159 88-221H18v-27h164v26C143-157 98-101 97 0H64" id="s"/><use transform="matrix(0.06172839506172839,0,0,0.06172839506172839,0,0)" xlink:href="#s" id="h"/><path fill="#333" d="M23 0v-37h61v-169l-59 37v-38l62-41h46v211h57V0H23" id="t"/><use transform="matrix(0.04938271604938272,0,0,0.04938271604938272,0,0)" xlink:href="#t" id="i"/><path fill="#333" d="M182-182c0 78-84 86-111 141h115V0H12c-6-101 99-100 120-180 1-22-12-31-33-32-23 0-32 14-35 34l-49-3c5-45 32-70 84-70 51 0 83 22 83 69" id="u"/><use transform="matrix(0.04938271604938272,0,0,0.04938271604938272,0,0)" xlink:href="#u" id="j"/><path fill="#333" d="M128-127c34 4 56 21 59 58 7 91-148 94-172 28-4-9-6-17-7-26l51-5c1 24 16 35 40 36 23 0 39-12 38-36-1-31-31-36-65-34v-40c32 2 59-3 59-33 0-20-13-33-34-33s-33 13-35 32l-50-3c6-44 37-68 86-68 50 0 83 20 83 66 0 35-22 52-53 58" id="v"/><use transform="matrix(0.04938271604938272,0,0,0.04938271604938272,0,0)" xlink:href="#v" id="k"/></defs></g></svg>