<svg xmlns="http://www.w3.org/2000/svg" xmlns:xlink="http://www.w3.org/1999/xlink" xmlns:lucid="lucid" width="455" height="233"><g transform="translate(-271 -414)" lucid:page-tab-id="MBRDfZQyk1wx"><path d="M520 426a6 6 0 0 1 6-6h188a6 6 0 0 1 6 6v208a6 6 0 0 1-6 6H526a6 6 0 0 1-6-6z" stroke="#3a414a" stroke-width="2" fill="#fff"/><use xlink:href="#a" transform="matrix(1,0,0,1,525,425) translate(83.27160493827161 17.77777777777778)"/><path d="M280 426a6 6 0 0 1 6-6h188a6 6 0 0 1 6 6v208a6 6 0 0 1-6 6H286a6 6 0 0 1-6-6z" stroke="#3a414a" stroke-width="2" fill="#fff"/><use xlink:href="#b" transform="matrix(1,0,0,1,285,425) translate(83.27160493827161 17.77777777777778)"/><path d="M362.22 486.68c0 16.2-13.93 29.35-31.1 29.35-17.2 0-31.12-13.14-31.12-29.35 0-16.2 13.93-29.35 31.1-29.35 17.2 0 31.12 13.14 31.12 29.35z" stroke="#3a414a" stroke-width="2" fill="#fff"/><use xlink:href="#c" transform="matrix(1,0,0,1,305,462.3333333333334) translate(20.574074074074076 29.534722222222218)"/><path d="M602.22 486.68c0 16.2-13.93 29.35-31.1 29.35-17.2 0-31.12-13.14-31.12-29.35 0-16.2 13.93-29.35 31.1-29.35 17.2 0 31.12 13.14 31.12 29.35z" stroke="#3a414a" stroke-width="2" fill="#fff"/><use xlink:href="#d" transform="matrix(1,0,0,1,545,462.3333333333334) translate(20.574074074074076 29.534722222222218)"/><path d="M704.44 486.68c0 16.2-13.92 29.35-31.1 29.35-17.2 0-31.12-13.14-31.12-29.35 0-16.2 13.93-29.35 31.1-29.35 17.2 0 31.12 13.14 31.12 29.35z" stroke="#3a414a" stroke-width="2" fill="#fff"/><use xlink:href="#e" transform="matrix(1,0,0,1,647.2222222222222,462.3333333333335) translate(20.10493827160494 29.534722222222218)"/><path d="M362.22 593.32c0 16.2-13.93 29.35-31.1 29.35-17.2 0-31.12-13.14-31.12-29.35 0-16.2 13.93-29.35 31.1-29.35 17.2 0 31.12 13.14 31.12 29.35z" stroke="#3a414a" stroke-width="2" fill="#fff"/><use xlink:href="#f" transform="matrix(1,0,0,1,305,568.9684418145956) translate(20.10493827160494 29.534722222222218)"/><path d="M471.1 593.32c0 16.2-13.92 29.35-31.1 29.35s-31.1-13.14-31.1-29.35c0-16.2 13.92-29.35 31.1-29.35s31.1 13.14 31.1 29.35z" stroke="#3a414a" stroke-width="2" fill="#fff"/><use xlink:href="#g" transform="matrix(1,0,0,1,413.8888888888889,568.9684418145956) translate(20.574074074074076 29.534722222222218)"/><path d="M704.44 593.32c0 16.2-13.92 29.35-31.1 29.35-17.2 0-31.12-13.14-31.12-29.35 0-16.2 13.93-29.35 31.1-29.35 17.2 0 31.12 13.14 31.12 29.35z" stroke="#3a414a" stroke-width="2" fill="#fff"/><use xlink:href="#h" transform="matrix(1,0,0,1,647.2222222222222,568.9684418145956) translate(21.092592592592595 29.534722222222218)"/><path d="M331.1 518.03v43.94" stroke="#3a414a" stroke-width="2" stroke-linejoin="round" fill="none"/><path d="M331.1 517.03l1-.06v1.1h-2v-1.12zM332.1 563.04l-.98-.07-1 .06v-1.1h2z" stroke="#3a414a" stroke-width=".05" fill="#3a414a"/><use xlink:href="#i" transform="matrix(1,0,0,1,315.7037037037037,532.0003445614525) translate(0 10.666666666666664)"/><path d="M364.23 486.68h9.65m9.66 0h19.3m9.66 0h19.3m9.66 0h19.3m9.66 0h19.3m9.66 0h19.3m9.66 0H538" stroke="#635dff" stroke-width="2" stroke-linejoin="round" fill="none"/><path d="M364.25 487.68h-1.1l.08-1-.07-1h1.1zM539 486.67l.06 1h-1.1v-2h1.12z" stroke="#635dff" stroke-width=".05" fill="#635dff"/><use xlink:href="#j" transform="matrix(1,0,0,1,495.35631717815426,466.682445759369) translate(0 10.666666666666664)"/><path d="M549.12 510l-.7.78-1.48 1.45-1.55 1.4-1.65 1.36-1.75 1.3-1.1.74m-9.52 5.14l-.57.26-3 1.16-3.42 1.16-4 1.15-4.88 1.17-4.95.94m-10.73 1.6l-1.14.15-20.38 2.5m-10.72 1.62l-.27.05-3.54.84-2.78.8-2.28.77-1.93.75-1.66.73-1.44.74-1.3.7-1.15.73-1.04.7-.96.73-.87.72-.38.35m-6.05 8.87l-.04.1-.38 1.1-.35 1.17-.3 1.27-.28 1.36-.23 1.5-.18 1.63-.1 1.8-.02.7" stroke="#635dff" stroke-width="2" stroke-linejoin="round" fill="none"/><path d="M550.55 509.93l-.7.77-1.48-1.35.68-.75zM441.02 561.96l-.02 1.08-1-.07-1 .06.02-1.1z" stroke="#635dff" stroke-width=".05" fill="#635dff"/><use xlink:href="#k" transform="matrix(1,0,0,1,494.6052016615185,509.69303191123083) translate(0 10.666666666666664)"/><path d="M673.33 518.03v43.94" stroke="#3a414a" stroke-width="2" stroke-linejoin="round" fill="none"/><path d="M673.32 517.03l1-.06v1.1h-2v-1.12zM674.33 563.04l-1-.07-1 .06v-1.1h2z" stroke="#3a414a" stroke-width=".05" fill="#3a414a"/><use xlink:href="#l" transform="matrix(1,0,0,1,681.3333333333333,535.9146120340297) translate(0 10.666666666666664)"/><path d="M604.23 486.68h36" stroke="#3a414a" stroke-width="2" stroke-linejoin="round" fill="none"/><path d="M604.25 487.68h-1.1l.08-1-.07-1h1.1zM641.22 486.67l.06 1h-1.08v-2h1.1z" stroke="#3a414a" stroke-width=".05" fill="#3a414a"/><use xlink:href="#m" transform="matrix(1,0,0,1,618.5188034026869,466.682445759369) translate(0 10.666666666666664)"/><path d="M364.23 593.32h42.66" stroke="#3a414a" stroke-width="2" stroke-linejoin="round" fill="none"/><path d="M364.25 594.32h-1.1l.08-1-.07-1h1.1zM407.9 593.3l.05 1.02h-1.1v-2h1.12z" stroke="#3a414a" stroke-width=".05" fill="#3a414a"/><use xlink:href="#n" transform="matrix(1,0,0,1,381.85218673552026,597.3175542406311) translate(0 10.666666666666664)"/><path d="M473.12 593.32h9.28m9.28 0h18.57m9.28 0h18.57m9.28 0h18.57m9.28 0h18.57m9.3 0h18.55m9.3 0h9.27" stroke="#008a0e" stroke-width="2" stroke-linejoin="round" fill="none"/><path d="M473.14 594.32h-1.1l.07-1-.05-1h1.1zM641.22 593.3l.06 1.02h-1.08v-2h1.1z" stroke="#008a0e" stroke-width=".05" fill="#008a0e"/><use xlink:href="#o" transform="matrix(1,0,0,1,495.9673168018605,597.3175542406311) translate(0 10.666666666666664)"/><path d="M469.28 579.08l.78-1.32 1.34-2.04 1.38-1.93 1.43-1.84.58-.67m6.76-6.74l.74-.62 1.86-1.43 1.98-1.4 2.1-1.35 2.27-1.33 2.44-1.3 2.67-1.28 2.3-.98m9-3.15l3-.85 5.18-1.25 6.56-1.3 3.93-.6m9.46-1.3l18.97-2.24m9.48-1.1l18.97-2.25m9.42-1.5l2.76-.55 6.5-1.57 5.58-1.6 3.6-1.2m8.9-3.47l1-.42 3.78-1.8 3.53-1.9 3.34-1.94 3.15-2.03 1.8-1.27m7.47-5.95l2.06-1.88 2.6-2.6 2.1-2.26" stroke="#635dff" stroke-width="2" stroke-linejoin="round" fill="none"/><path d="M470.15 579.57l-.82 1.38-.05-.1-1.1-1.9.25-.4zM651.45 508.76l-.68.77-1.5-1.32.68-.76z" stroke="#635dff" stroke-width=".05" fill="#635dff"/><use xlink:href="#p" transform="matrix(1,0,0,1,497.94235795636484,558.2600097969469) translate(0 10.666666666666664)"/><path d="M353.6 509.58l62.3 62.3" stroke="#3a414a" stroke-width="2" fill="none"/><path d="M354.33 508.9l-1.4 1.4-.8-.8 1.55-1.27zM417.3 571.88l-.24.2-1.13 1.27-.77-.77 1.42-1.4z" stroke="#3a414a" stroke-width=".05" fill="#3a414a"/><use xlink:href="#q" transform="matrix(1,0,0,1,363.361738204234,531.8098172582152) translate(0 10.666666666666664)"/><path d="M380 426a6 6 0 0 1 6-6h228a6 6 0 0 1 6 6v48a6 6 0 0 1-6 6H386a6 6 0 0 1-6-6z" fill="none"/><use xlink:href="#r" transform="matrix(1,0,0,1,380,420) translate(107.4074074074074 34.44444444444444)"/><defs><path fill="#3a414a" d="M185-189c-5-48-123-54-124 2 14 75 158 14 163 119 3 78-121 87-175 55-17-10-28-26-33-46l33-7c5 56 141 63 141-1 0-78-155-14-162-118-5-82 145-84 179-34 5 7 8 16 11 25" id="s"/><path fill="#3a414a" d="M101-251c82-7 93 87 43 132L82-64C71-53 59-42 53-27h129V0H18c2-99 128-94 128-182 0-28-16-43-45-43s-46 15-49 41l-32-3c6-41 34-60 81-64" id="t"/><g id="a"><use transform="matrix(0.06172839506172839,0,0,0.06172839506172839,0,0)" xlink:href="#s"/><use transform="matrix(0.043209876543209874,0,0,0.043209876543209874,14.814814814814813,3.1111111111111107)" xlink:href="#t"/></g><path fill="#3a414a" d="M27 0v-27h64v-190l-56 39v-29l58-41h29v221h61V0H27" id="u"/><g id="b"><use transform="matrix(0.06172839506172839,0,0,0.06172839506172839,0,0)" xlink:href="#s"/><use transform="matrix(0.043209876543209874,0,0,0.043209876543209874,14.814814814814813,3.1111111111111107)" xlink:href="#u"/></g><path fill="#3a414a" d="M205 0l-28-72H64L36 0H1l101-248h38L239 0h-34zm-38-99l-47-123c-12 45-31 82-46 123h93" id="v"/><use transform="matrix(0.0493827160493827,0,0,0.0493827160493827,0,0)" xlink:href="#v" id="c"/><path fill="#3a414a" d="M160-131c35 5 61 23 61 61C221 17 115-2 30 0v-248c76 3 177-17 177 60 0 33-19 50-47 57zm-97-11c50-1 110 9 110-42 0-47-63-36-110-37v79zm0 115c55-2 124 14 124-45 0-56-70-42-124-44v89" id="w"/><use transform="matrix(0.0493827160493827,0,0,0.0493827160493827,0,0)" xlink:href="#w" id="d"/><path fill="#3a414a" d="M212-179c-10-28-35-45-73-45-59 0-87 40-87 99 0 60 29 101 89 101 43 0 62-24 78-52l27 14C228-24 195 4 139 4 59 4 22-46 18-125c-6-104 99-153 187-111 19 9 31 26 39 46" id="x"/><use transform="matrix(0.0493827160493827,0,0,0.0493827160493827,0,0)" xlink:href="#x" id="e"/><path fill="#3a414a" d="M30-248c118-7 216 8 213 122C240-48 200 0 122 0H30v-248zM63-27c89 8 146-16 146-99s-60-101-146-95v194" id="y"/><use transform="matrix(0.0493827160493827,0,0,0.0493827160493827,0,0)" xlink:href="#y" id="f"/><path fill="#3a414a" d="M30 0v-248h187v28H63v79h144v27H63v87h162V0H30" id="z"/><use transform="matrix(0.0493827160493827,0,0,0.0493827160493827,0,0)" xlink:href="#z" id="g"/><path fill="#3a414a" d="M63-220v92h138v28H63V0H30v-248h175v28H63" id="A"/><use transform="matrix(0.0493827160493827,0,0,0.0493827160493827,0,0)" xlink:href="#A" id="h"/><path fill="#333" d="M23 0v-37h61v-169l-59 37v-38l62-41h46v211h57V0H23" id="B"/><use transform="matrix(0.03703703703703703,0,0,0.03703703703703703,0,0)" xlink:href="#B" id="i"/><path fill="#635dff" d="M52 0c1-96 47-148 87-207H15v-41h169v40c-36 62-79 113-81 208H52" id="C"/><use transform="matrix(0.03703703703703703,0,0,0.03703703703703703,0,0)" xlink:href="#C" id="j"/><path fill="#635dff" d="M115-159c48 0 72 30 72 78 0 54-30 85-83 85-64 0-91-50-91-122 0-98 58-163 141-120 15 8 21 24 27 44l-47 6c-5-31-48-31-61-4-7 14-11 33-11 60 9-17 28-27 53-27zM102-35c24 0 36-20 36-45s-11-43-37-43c-23 0-36 14-36 38 0 27 11 50 37 50" id="D"/><use transform="matrix(0.03703703703703703,0,0,0.03703703703703703,0,0)" xlink:href="#D" id="k"/><path fill="#333" d="M99-251c69 0 84 53 88 123 5 99-61 162-144 118-15-8-21-25-26-45l46-6c4 31 50 33 63 7 7-15 12-36 12-60-9 18-29 28-54 28-48 0-72-32-72-82 0-55 31-83 87-83zm-1 128c24 0 37-16 37-39 0-27-10-51-37-51-25 0-35 19-35 45 0 25 10 45 35 45" id="E"/><use transform="matrix(0.03703703703703703,0,0,0.03703703703703703,0,0)" xlink:href="#E" id="l"/><path fill="#333" d="M182-182c0 78-84 86-111 141h115V0H12c-6-101 99-100 120-180 1-22-12-31-33-32-23 0-32 14-35 34l-49-3c5-45 32-70 84-70 51 0 83 22 83 69" id="F"/><use transform="matrix(0.03703703703703703,0,0,0.03703703703703703,0,0)" xlink:href="#F" id="m"/><path fill="#333" d="M165-50V0h-47v-50H5v-38l105-160h55v161h33v37h-33zm-47-37l2-116L46-87h72" id="G"/><use transform="matrix(0.03703703703703703,0,0,0.03703703703703703,0,0)" xlink:href="#G" id="n"/><path fill="#008a0e" d="M128-127c34 4 56 21 59 58 7 91-148 94-172 28-4-9-6-17-7-26l51-5c1 24 16 35 40 36 23 0 39-12 38-36-1-31-31-36-65-34v-40c32 2 59-3 59-33 0-20-13-33-34-33s-33 13-35 32l-50-3c6-44 37-68 86-68 50 0 83 20 83 66 0 35-22 52-53 58" id="H"/><use transform="matrix(0.03703703703703703,0,0,0.03703703703703703,0,0)" xlink:href="#H" id="o"/><path fill="#635dff" d="M139-81c0-46-55-55-73-27H18l9-140h149v37H72l-4 63c44-38 133-4 122 66C201 21 21 35 11-62l49-4c5 18 15 30 39 30 26 0 40-18 40-45" id="I"/><use transform="matrix(0.03703703703703703,0,0,0.03703703703703703,0,0)" xlink:href="#I" id="p"/><path fill="#333" d="M138-131c27 9 52 24 51 61 0 53-36 74-89 74S11-19 11-69c0-35 22-54 51-61-78-25-46-121 38-121 51 0 83 19 83 66 0 30-18 49-45 54zm-38-16c24 0 32-13 32-36 1-23-11-34-32-34-22 0-33 12-32 34 0 22 9 36 32 36zm1 116c27 0 37-17 37-43 0-25-13-39-39-39-24 0-37 15-37 40 0 27 11 42 39 42" id="J"/><use transform="matrix(0.03703703703703703,0,0,0.03703703703703703,0,0)" xlink:href="#J" id="q"/><path fill="#635dff" d="M30 0v-248h187v28H63v79h144v27H63v87h162V0H30" id="K"/><path fill="#635dff" d="M185-189c-5-48-123-54-124 2 14 75 158 14 163 119 3 78-121 87-175 55-17-10-28-26-33-46l33-7c5 56 141 63 141-1 0-78-155-14-162-118-5-82 145-84 179-34 5 7 8 16 11 25" id="L"/><g id="r"><use transform="matrix(0.06172839506172839,0,0,0.06172839506172839,0,0)" xlink:href="#K"/><use transform="matrix(0.043209876543209874,0,0,0.043209876543209874,14.814814814814813,3.1111111111111107)" xlink:href="#L"/></g></defs></g></svg>