<?xml version="1.0" encoding="utf-8" standalone="no"?>
<!DOCTYPE svg PUBLIC "-//W3C//DTD SVG 1.1//EN"
  "http://www.w3.org/Graphics/SVG/1.1/DTD/svg11.dtd">
<svg xmlns:xlink="http://www.w3.org/1999/xlink" width="626.548437pt" height="520.334375pt" viewBox="0 0 626.548437 520.334375" xmlns="http://www.w3.org/2000/svg" version="1.1">
 <metadata>
  <rdf:RDF xmlns:dc="http://purl.org/dc/elements/1.1/" xmlns:cc="http://creativecommons.org/ns#" xmlns:rdf="http://www.w3.org/1999/02/22-rdf-syntax-ns#">
   <cc:Work>
    <dc:type rdf:resource="http://purl.org/dc/dcmitype/StillImage"/>
    <dc:date>2023-10-27T15:46:34.270167</dc:date>
    <dc:format>image/svg+xml</dc:format>
    <dc:creator>
     <cc:Agent>
      <dc:title>Matplotlib v3.7.1, https://matplotlib.org/</dc:title>
     </cc:Agent>
    </dc:creator>
   </cc:Work>
  </rdf:RDF>
 </metadata>
 <defs>
  <style type="text/css">*{stroke-linejoin: round; stroke-linecap: butt}</style>
 </defs>
 <g id="figure_1">
  <g id="patch_1">
   <path d="M 0 520.334375 
L 626.548437 520.334375 
L 626.548437 0 
L 0 0 
z
" style="fill: #ffffff"/>
  </g>
  <g id="axes_1">
   <g id="patch_2">
    <path d="M 61.348438 473.1 
L 619.348438 473.1 
L 619.348438 29.58 
L 61.348438 29.58 
z
" style="fill: #ffffff"/>
   </g>
   <g id="matplotlib.axis_1">
    <g id="xtick_1">
     <g id="line2d_1">
      <path d="M 86.712074 473.1 
L 86.712074 29.58 
" clip-path="url(#p3575962583)" style="fill: none; stroke: #b0b0b0; stroke-width: 0.8; stroke-linecap: square"/>
     </g>
     <g id="line2d_2">
      <defs>
       <path id="m21552f69c4" d="M 0 0 
L 0 3.5 
" style="stroke: #000000; stroke-width: 0.8"/>
      </defs>
      <g>
       <use xlink:href="#m21552f69c4" x="86.712074" y="473.1" style="stroke: #000000; stroke-width: 0.8"/>
      </g>
     </g>
     <g id="text_1">
      <!-- 1 -->
      <g transform="translate(81.940199 491.497656) scale(0.15 -0.15)">
       <defs>
        <path id="DejaVuSans-31" d="M 794 531 
L 1825 531 
L 1825 4091 
L 703 3866 
L 703 4441 
L 1819 4666 
L 2450 4666 
L 2450 531 
L 3481 531 
L 3481 0 
L 794 0 
L 794 531 
z
" transform="scale(0.015625)"/>
       </defs>
       <use xlink:href="#DejaVuSans-31"/>
      </g>
     </g>
    </g>
    <g id="xtick_2">
     <g id="line2d_3">
      <path d="M 132.827776 473.1 
L 132.827776 29.58 
" clip-path="url(#p3575962583)" style="fill: none; stroke: #b0b0b0; stroke-width: 0.8; stroke-linecap: square"/>
     </g>
     <g id="line2d_4">
      <g>
       <use xlink:href="#m21552f69c4" x="132.827776" y="473.1" style="stroke: #000000; stroke-width: 0.8"/>
      </g>
     </g>
     <g id="text_2">
      <!-- 2 -->
      <g transform="translate(128.055901 491.497656) scale(0.15 -0.15)">
       <defs>
        <path id="DejaVuSans-32" d="M 1228 531 
L 3431 531 
L 3431 0 
L 469 0 
L 469 531 
Q 828 903 1448 1529 
Q 2069 2156 2228 2338 
Q 2531 2678 2651 2914 
Q 2772 3150 2772 3378 
Q 2772 3750 2511 3984 
Q 2250 4219 1831 4219 
Q 1534 4219 1204 4116 
Q 875 4013 500 3803 
L 500 4441 
Q 881 4594 1212 4672 
Q 1544 4750 1819 4750 
Q 2544 4750 2975 4387 
Q 3406 4025 3406 3419 
Q 3406 3131 3298 2873 
Q 3191 2616 2906 2266 
Q 2828 2175 2409 1742 
Q 1991 1309 1228 531 
z
" transform="scale(0.015625)"/>
       </defs>
       <use xlink:href="#DejaVuSans-32"/>
      </g>
     </g>
    </g>
    <g id="xtick_3">
     <g id="line2d_5">
      <path d="M 178.943479 473.1 
L 178.943479 29.58 
" clip-path="url(#p3575962583)" style="fill: none; stroke: #b0b0b0; stroke-width: 0.8; stroke-linecap: square"/>
     </g>
     <g id="line2d_6">
      <g>
       <use xlink:href="#m21552f69c4" x="178.943479" y="473.1" style="stroke: #000000; stroke-width: 0.8"/>
      </g>
     </g>
     <g id="text_3">
      <!-- 4 -->
      <g transform="translate(174.171604 491.497656) scale(0.15 -0.15)">
       <defs>
        <path id="DejaVuSans-34" d="M 2419 4116 
L 825 1625 
L 2419 1625 
L 2419 4116 
z
M 2253 4666 
L 3047 4666 
L 3047 1625 
L 3713 1625 
L 3713 1100 
L 3047 1100 
L 3047 0 
L 2419 0 
L 2419 1100 
L 313 1100 
L 313 1709 
L 2253 4666 
z
" transform="scale(0.015625)"/>
       </defs>
       <use xlink:href="#DejaVuSans-34"/>
      </g>
     </g>
    </g>
    <g id="xtick_4">
     <g id="line2d_7">
      <path d="M 225.059181 473.1 
L 225.059181 29.58 
" clip-path="url(#p3575962583)" style="fill: none; stroke: #b0b0b0; stroke-width: 0.8; stroke-linecap: square"/>
     </g>
     <g id="line2d_8">
      <g>
       <use xlink:href="#m21552f69c4" x="225.059181" y="473.1" style="stroke: #000000; stroke-width: 0.8"/>
      </g>
     </g>
     <g id="text_4">
      <!-- 8 -->
      <g transform="translate(220.287306 491.497656) scale(0.15 -0.15)">
       <defs>
        <path id="DejaVuSans-38" d="M 2034 2216 
Q 1584 2216 1326 1975 
Q 1069 1734 1069 1313 
Q 1069 891 1326 650 
Q 1584 409 2034 409 
Q 2484 409 2743 651 
Q 3003 894 3003 1313 
Q 3003 1734 2745 1975 
Q 2488 2216 2034 2216 
z
M 1403 2484 
Q 997 2584 770 2862 
Q 544 3141 544 3541 
Q 544 4100 942 4425 
Q 1341 4750 2034 4750 
Q 2731 4750 3128 4425 
Q 3525 4100 3525 3541 
Q 3525 3141 3298 2862 
Q 3072 2584 2669 2484 
Q 3125 2378 3379 2068 
Q 3634 1759 3634 1313 
Q 3634 634 3220 271 
Q 2806 -91 2034 -91 
Q 1263 -91 848 271 
Q 434 634 434 1313 
Q 434 1759 690 2068 
Q 947 2378 1403 2484 
z
M 1172 3481 
Q 1172 3119 1398 2916 
Q 1625 2713 2034 2713 
Q 2441 2713 2670 2916 
Q 2900 3119 2900 3481 
Q 2900 3844 2670 4047 
Q 2441 4250 2034 4250 
Q 1625 4250 1398 4047 
Q 1172 3844 1172 3481 
z
" transform="scale(0.015625)"/>
       </defs>
       <use xlink:href="#DejaVuSans-38"/>
      </g>
     </g>
    </g>
    <g id="xtick_5">
     <g id="line2d_9">
      <path d="M 271.174884 473.1 
L 271.174884 29.58 
" clip-path="url(#p3575962583)" style="fill: none; stroke: #b0b0b0; stroke-width: 0.8; stroke-linecap: square"/>
     </g>
     <g id="line2d_10">
      <g>
       <use xlink:href="#m21552f69c4" x="271.174884" y="473.1" style="stroke: #000000; stroke-width: 0.8"/>
      </g>
     </g>
     <g id="text_5">
      <!-- 16 -->
      <g transform="translate(261.631134 491.497656) scale(0.15 -0.15)">
       <defs>
        <path id="DejaVuSans-36" d="M 2113 2584 
Q 1688 2584 1439 2293 
Q 1191 2003 1191 1497 
Q 1191 994 1439 701 
Q 1688 409 2113 409 
Q 2538 409 2786 701 
Q 3034 994 3034 1497 
Q 3034 2003 2786 2293 
Q 2538 2584 2113 2584 
z
M 3366 4563 
L 3366 3988 
Q 3128 4100 2886 4159 
Q 2644 4219 2406 4219 
Q 1781 4219 1451 3797 
Q 1122 3375 1075 2522 
Q 1259 2794 1537 2939 
Q 1816 3084 2150 3084 
Q 2853 3084 3261 2657 
Q 3669 2231 3669 1497 
Q 3669 778 3244 343 
Q 2819 -91 2113 -91 
Q 1303 -91 875 529 
Q 447 1150 447 2328 
Q 447 3434 972 4092 
Q 1497 4750 2381 4750 
Q 2619 4750 2861 4703 
Q 3103 4656 3366 4563 
z
" transform="scale(0.015625)"/>
       </defs>
       <use xlink:href="#DejaVuSans-31"/>
       <use xlink:href="#DejaVuSans-36" x="63.623047"/>
      </g>
     </g>
    </g>
    <g id="xtick_6">
     <g id="line2d_11">
      <path d="M 317.290586 473.1 
L 317.290586 29.58 
" clip-path="url(#p3575962583)" style="fill: none; stroke: #b0b0b0; stroke-width: 0.8; stroke-linecap: square"/>
     </g>
     <g id="line2d_12">
      <g>
       <use xlink:href="#m21552f69c4" x="317.290586" y="473.1" style="stroke: #000000; stroke-width: 0.8"/>
      </g>
     </g>
     <g id="text_6">
      <!-- 32 -->
      <g transform="translate(307.746836 491.497656) scale(0.15 -0.15)">
       <defs>
        <path id="DejaVuSans-33" d="M 2597 2516 
Q 3050 2419 3304 2112 
Q 3559 1806 3559 1356 
Q 3559 666 3084 287 
Q 2609 -91 1734 -91 
Q 1441 -91 1130 -33 
Q 819 25 488 141 
L 488 750 
Q 750 597 1062 519 
Q 1375 441 1716 441 
Q 2309 441 2620 675 
Q 2931 909 2931 1356 
Q 2931 1769 2642 2001 
Q 2353 2234 1838 2234 
L 1294 2234 
L 1294 2753 
L 1863 2753 
Q 2328 2753 2575 2939 
Q 2822 3125 2822 3475 
Q 2822 3834 2567 4026 
Q 2313 4219 1838 4219 
Q 1578 4219 1281 4162 
Q 984 4106 628 3988 
L 628 4550 
Q 988 4650 1302 4700 
Q 1616 4750 1894 4750 
Q 2613 4750 3031 4423 
Q 3450 4097 3450 3541 
Q 3450 3153 3228 2886 
Q 3006 2619 2597 2516 
z
" transform="scale(0.015625)"/>
       </defs>
       <use xlink:href="#DejaVuSans-33"/>
       <use xlink:href="#DejaVuSans-32" x="63.623047"/>
      </g>
     </g>
    </g>
    <g id="xtick_7">
     <g id="line2d_13">
      <path d="M 363.406289 473.1 
L 363.406289 29.58 
" clip-path="url(#p3575962583)" style="fill: none; stroke: #b0b0b0; stroke-width: 0.8; stroke-linecap: square"/>
     </g>
     <g id="line2d_14">
      <g>
       <use xlink:href="#m21552f69c4" x="363.406289" y="473.1" style="stroke: #000000; stroke-width: 0.8"/>
      </g>
     </g>
     <g id="text_7">
      <!-- 64 -->
      <g transform="translate(353.862539 491.497656) scale(0.15 -0.15)">
       <use xlink:href="#DejaVuSans-36"/>
       <use xlink:href="#DejaVuSans-34" x="63.623047"/>
      </g>
     </g>
    </g>
    <g id="xtick_8">
     <g id="line2d_15">
      <path d="M 409.521991 473.1 
L 409.521991 29.58 
" clip-path="url(#p3575962583)" style="fill: none; stroke: #b0b0b0; stroke-width: 0.8; stroke-linecap: square"/>
     </g>
     <g id="line2d_16">
      <g>
       <use xlink:href="#m21552f69c4" x="409.521991" y="473.1" style="stroke: #000000; stroke-width: 0.8"/>
      </g>
     </g>
     <g id="text_8">
      <!-- 128 -->
      <g transform="translate(395.206366 491.497656) scale(0.15 -0.15)">
       <use xlink:href="#DejaVuSans-31"/>
       <use xlink:href="#DejaVuSans-32" x="63.623047"/>
       <use xlink:href="#DejaVuSans-38" x="127.246094"/>
      </g>
     </g>
    </g>
    <g id="xtick_9">
     <g id="line2d_17">
      <path d="M 455.637694 473.1 
L 455.637694 29.58 
" clip-path="url(#p3575962583)" style="fill: none; stroke: #b0b0b0; stroke-width: 0.8; stroke-linecap: square"/>
     </g>
     <g id="line2d_18">
      <g>
       <use xlink:href="#m21552f69c4" x="455.637694" y="473.1" style="stroke: #000000; stroke-width: 0.8"/>
      </g>
     </g>
     <g id="text_9">
      <!-- 256 -->
      <g transform="translate(441.322069 491.497656) scale(0.15 -0.15)">
       <defs>
        <path id="DejaVuSans-35" d="M 691 4666 
L 3169 4666 
L 3169 4134 
L 1269 4134 
L 1269 2991 
Q 1406 3038 1543 3061 
Q 1681 3084 1819 3084 
Q 2600 3084 3056 2656 
Q 3513 2228 3513 1497 
Q 3513 744 3044 326 
Q 2575 -91 1722 -91 
Q 1428 -91 1123 -41 
Q 819 9 494 109 
L 494 744 
Q 775 591 1075 516 
Q 1375 441 1709 441 
Q 2250 441 2565 725 
Q 2881 1009 2881 1497 
Q 2881 1984 2565 2268 
Q 2250 2553 1709 2553 
Q 1456 2553 1204 2497 
Q 953 2441 691 2322 
L 691 4666 
z
" transform="scale(0.015625)"/>
       </defs>
       <use xlink:href="#DejaVuSans-32"/>
       <use xlink:href="#DejaVuSans-35" x="63.623047"/>
       <use xlink:href="#DejaVuSans-36" x="127.246094"/>
      </g>
     </g>
    </g>
    <g id="xtick_10">
     <g id="line2d_19">
      <path d="M 501.753396 473.1 
L 501.753396 29.58 
" clip-path="url(#p3575962583)" style="fill: none; stroke: #b0b0b0; stroke-width: 0.8; stroke-linecap: square"/>
     </g>
     <g id="line2d_20">
      <g>
       <use xlink:href="#m21552f69c4" x="501.753396" y="473.1" style="stroke: #000000; stroke-width: 0.8"/>
      </g>
     </g>
     <g id="text_10">
      <!-- 512 -->
      <g transform="translate(487.437771 491.497656) scale(0.15 -0.15)">
       <use xlink:href="#DejaVuSans-35"/>
       <use xlink:href="#DejaVuSans-31" x="63.623047"/>
       <use xlink:href="#DejaVuSans-32" x="127.246094"/>
      </g>
     </g>
    </g>
    <g id="xtick_11">
     <g id="line2d_21">
      <path d="M 547.869099 473.1 
L 547.869099 29.58 
" clip-path="url(#p3575962583)" style="fill: none; stroke: #b0b0b0; stroke-width: 0.8; stroke-linecap: square"/>
     </g>
     <g id="line2d_22">
      <g>
       <use xlink:href="#m21552f69c4" x="547.869099" y="473.1" style="stroke: #000000; stroke-width: 0.8"/>
      </g>
     </g>
     <g id="text_11">
      <!-- 1024 -->
      <g transform="translate(528.781599 491.497656) scale(0.15 -0.15)">
       <defs>
        <path id="DejaVuSans-30" d="M 2034 4250 
Q 1547 4250 1301 3770 
Q 1056 3291 1056 2328 
Q 1056 1369 1301 889 
Q 1547 409 2034 409 
Q 2525 409 2770 889 
Q 3016 1369 3016 2328 
Q 3016 3291 2770 3770 
Q 2525 4250 2034 4250 
z
M 2034 4750 
Q 2819 4750 3233 4129 
Q 3647 3509 3647 2328 
Q 3647 1150 3233 529 
Q 2819 -91 2034 -91 
Q 1250 -91 836 529 
Q 422 1150 422 2328 
Q 422 3509 836 4129 
Q 1250 4750 2034 4750 
z
" transform="scale(0.015625)"/>
       </defs>
       <use xlink:href="#DejaVuSans-31"/>
       <use xlink:href="#DejaVuSans-30" x="63.623047"/>
       <use xlink:href="#DejaVuSans-32" x="127.246094"/>
       <use xlink:href="#DejaVuSans-34" x="190.869141"/>
      </g>
     </g>
    </g>
    <g id="xtick_12">
     <g id="line2d_23">
      <path d="M 593.984801 473.1 
L 593.984801 29.58 
" clip-path="url(#p3575962583)" style="fill: none; stroke: #b0b0b0; stroke-width: 0.8; stroke-linecap: square"/>
     </g>
     <g id="line2d_24">
      <g>
       <use xlink:href="#m21552f69c4" x="593.984801" y="473.1" style="stroke: #000000; stroke-width: 0.8"/>
      </g>
     </g>
     <g id="text_12">
      <!-- 2048 -->
      <g transform="translate(574.897301 491.497656) scale(0.15 -0.15)">
       <use xlink:href="#DejaVuSans-32"/>
       <use xlink:href="#DejaVuSans-30" x="63.623047"/>
       <use xlink:href="#DejaVuSans-34" x="127.246094"/>
       <use xlink:href="#DejaVuSans-38" x="190.869141"/>
      </g>
     </g>
    </g>
    <g id="text_13">
     <!-- Anzahl an PEs -->
     <g transform="translate(287.810937 510.014844) scale(0.15 -0.15)">
      <defs>
       <path id="DejaVuSans-41" d="M 2188 4044 
L 1331 1722 
L 3047 1722 
L 2188 4044 
z
M 1831 4666 
L 2547 4666 
L 4325 0 
L 3669 0 
L 3244 1197 
L 1141 1197 
L 716 0 
L 50 0 
L 1831 4666 
z
" transform="scale(0.015625)"/>
       <path id="DejaVuSans-6e" d="M 3513 2113 
L 3513 0 
L 2938 0 
L 2938 2094 
Q 2938 2591 2744 2837 
Q 2550 3084 2163 3084 
Q 1697 3084 1428 2787 
Q 1159 2491 1159 1978 
L 1159 0 
L 581 0 
L 581 3500 
L 1159 3500 
L 1159 2956 
Q 1366 3272 1645 3428 
Q 1925 3584 2291 3584 
Q 2894 3584 3203 3211 
Q 3513 2838 3513 2113 
z
" transform="scale(0.015625)"/>
       <path id="DejaVuSans-7a" d="M 353 3500 
L 3084 3500 
L 3084 2975 
L 922 459 
L 3084 459 
L 3084 0 
L 275 0 
L 275 525 
L 2438 3041 
L 353 3041 
L 353 3500 
z
" transform="scale(0.015625)"/>
       <path id="DejaVuSans-61" d="M 2194 1759 
Q 1497 1759 1228 1600 
Q 959 1441 959 1056 
Q 959 750 1161 570 
Q 1363 391 1709 391 
Q 2188 391 2477 730 
Q 2766 1069 2766 1631 
L 2766 1759 
L 2194 1759 
z
M 3341 1997 
L 3341 0 
L 2766 0 
L 2766 531 
Q 2569 213 2275 61 
Q 1981 -91 1556 -91 
Q 1019 -91 701 211 
Q 384 513 384 1019 
Q 384 1609 779 1909 
Q 1175 2209 1959 2209 
L 2766 2209 
L 2766 2266 
Q 2766 2663 2505 2880 
Q 2244 3097 1772 3097 
Q 1472 3097 1187 3025 
Q 903 2953 641 2809 
L 641 3341 
Q 956 3463 1253 3523 
Q 1550 3584 1831 3584 
Q 2591 3584 2966 3190 
Q 3341 2797 3341 1997 
z
" transform="scale(0.015625)"/>
       <path id="DejaVuSans-68" d="M 3513 2113 
L 3513 0 
L 2938 0 
L 2938 2094 
Q 2938 2591 2744 2837 
Q 2550 3084 2163 3084 
Q 1697 3084 1428 2787 
Q 1159 2491 1159 1978 
L 1159 0 
L 581 0 
L 581 4863 
L 1159 4863 
L 1159 2956 
Q 1366 3272 1645 3428 
Q 1925 3584 2291 3584 
Q 2894 3584 3203 3211 
Q 3513 2838 3513 2113 
z
" transform="scale(0.015625)"/>
       <path id="DejaVuSans-6c" d="M 603 4863 
L 1178 4863 
L 1178 0 
L 603 0 
L 603 4863 
z
" transform="scale(0.015625)"/>
       <path id="DejaVuSans-20" transform="scale(0.015625)"/>
       <path id="DejaVuSans-50" d="M 1259 4147 
L 1259 2394 
L 2053 2394 
Q 2494 2394 2734 2622 
Q 2975 2850 2975 3272 
Q 2975 3691 2734 3919 
Q 2494 4147 2053 4147 
L 1259 4147 
z
M 628 4666 
L 2053 4666 
Q 2838 4666 3239 4311 
Q 3641 3956 3641 3272 
Q 3641 2581 3239 2228 
Q 2838 1875 2053 1875 
L 1259 1875 
L 1259 0 
L 628 0 
L 628 4666 
z
" transform="scale(0.015625)"/>
       <path id="DejaVuSans-45" d="M 628 4666 
L 3578 4666 
L 3578 4134 
L 1259 4134 
L 1259 2753 
L 3481 2753 
L 3481 2222 
L 1259 2222 
L 1259 531 
L 3634 531 
L 3634 0 
L 628 0 
L 628 4666 
z
" transform="scale(0.015625)"/>
       <path id="DejaVuSans-73" d="M 2834 3397 
L 2834 2853 
Q 2591 2978 2328 3040 
Q 2066 3103 1784 3103 
Q 1356 3103 1142 2972 
Q 928 2841 928 2578 
Q 928 2378 1081 2264 
Q 1234 2150 1697 2047 
L 1894 2003 
Q 2506 1872 2764 1633 
Q 3022 1394 3022 966 
Q 3022 478 2636 193 
Q 2250 -91 1575 -91 
Q 1294 -91 989 -36 
Q 684 19 347 128 
L 347 722 
Q 666 556 975 473 
Q 1284 391 1588 391 
Q 1994 391 2212 530 
Q 2431 669 2431 922 
Q 2431 1156 2273 1281 
Q 2116 1406 1581 1522 
L 1381 1569 
Q 847 1681 609 1914 
Q 372 2147 372 2553 
Q 372 3047 722 3315 
Q 1072 3584 1716 3584 
Q 2034 3584 2315 3537 
Q 2597 3491 2834 3397 
z
" transform="scale(0.015625)"/>
      </defs>
      <use xlink:href="#DejaVuSans-41"/>
      <use xlink:href="#DejaVuSans-6e" x="68.408203"/>
      <use xlink:href="#DejaVuSans-7a" x="131.787109"/>
      <use xlink:href="#DejaVuSans-61" x="184.277344"/>
      <use xlink:href="#DejaVuSans-68" x="245.556641"/>
      <use xlink:href="#DejaVuSans-6c" x="308.935547"/>
      <use xlink:href="#DejaVuSans-20" x="336.71875"/>
      <use xlink:href="#DejaVuSans-61" x="368.505859"/>
      <use xlink:href="#DejaVuSans-6e" x="429.785156"/>
      <use xlink:href="#DejaVuSans-20" x="493.164062"/>
      <use xlink:href="#DejaVuSans-50" x="524.951172"/>
      <use xlink:href="#DejaVuSans-45" x="585.253906"/>
      <use xlink:href="#DejaVuSans-73" x="648.4375"/>
     </g>
    </g>
   </g>
   <g id="matplotlib.axis_2">
    <g id="ytick_1">
     <g id="line2d_25">
      <path d="M 61.348438 473.1 
L 619.348438 473.1 
" clip-path="url(#p3575962583)" style="fill: none; stroke: #b0b0b0; stroke-width: 0.8; stroke-linecap: square"/>
     </g>
     <g id="line2d_26">
      <defs>
       <path id="m4695aa3f09" d="M 0 0 
L -3.5 0 
" style="stroke: #000000; stroke-width: 0.8"/>
      </defs>
      <g>
       <use xlink:href="#m4695aa3f09" x="61.348438" y="473.1" style="stroke: #000000; stroke-width: 0.8"/>
      </g>
     </g>
     <g id="text_14">
      <!-- 0 -->
      <g transform="translate(44.804688 478.798828) scale(0.15 -0.15)">
       <use xlink:href="#DejaVuSans-30"/>
      </g>
     </g>
    </g>
    <g id="ytick_2">
     <g id="line2d_27">
      <path d="M 61.348438 420.921176 
L 619.348438 420.921176 
" clip-path="url(#p3575962583)" style="fill: none; stroke: #b0b0b0; stroke-width: 0.8; stroke-linecap: square"/>
     </g>
     <g id="line2d_28">
      <g>
       <use xlink:href="#m4695aa3f09" x="61.348438" y="420.921176" style="stroke: #000000; stroke-width: 0.8"/>
      </g>
     </g>
     <g id="text_15">
      <!-- 100 -->
      <g transform="translate(25.717188 426.620005) scale(0.15 -0.15)">
       <use xlink:href="#DejaVuSans-31"/>
       <use xlink:href="#DejaVuSans-30" x="63.623047"/>
       <use xlink:href="#DejaVuSans-30" x="127.246094"/>
      </g>
     </g>
    </g>
    <g id="ytick_3">
     <g id="line2d_29">
      <path d="M 61.348438 368.742353 
L 619.348438 368.742353 
" clip-path="url(#p3575962583)" style="fill: none; stroke: #b0b0b0; stroke-width: 0.8; stroke-linecap: square"/>
     </g>
     <g id="line2d_30">
      <g>
       <use xlink:href="#m4695aa3f09" x="61.348438" y="368.742353" style="stroke: #000000; stroke-width: 0.8"/>
      </g>
     </g>
     <g id="text_16">
      <!-- 200 -->
      <g transform="translate(25.717188 374.441181) scale(0.15 -0.15)">
       <use xlink:href="#DejaVuSans-32"/>
       <use xlink:href="#DejaVuSans-30" x="63.623047"/>
       <use xlink:href="#DejaVuSans-30" x="127.246094"/>
      </g>
     </g>
    </g>
    <g id="ytick_4">
     <g id="line2d_31">
      <path d="M 61.348438 316.563529 
L 619.348438 316.563529 
" clip-path="url(#p3575962583)" style="fill: none; stroke: #b0b0b0; stroke-width: 0.8; stroke-linecap: square"/>
     </g>
     <g id="line2d_32">
      <g>
       <use xlink:href="#m4695aa3f09" x="61.348438" y="316.563529" style="stroke: #000000; stroke-width: 0.8"/>
      </g>
     </g>
     <g id="text_17">
      <!-- 300 -->
      <g transform="translate(25.717188 322.262358) scale(0.15 -0.15)">
       <use xlink:href="#DejaVuSans-33"/>
       <use xlink:href="#DejaVuSans-30" x="63.623047"/>
       <use xlink:href="#DejaVuSans-30" x="127.246094"/>
      </g>
     </g>
    </g>
    <g id="ytick_5">
     <g id="line2d_33">
      <path d="M 61.348438 264.384706 
L 619.348438 264.384706 
" clip-path="url(#p3575962583)" style="fill: none; stroke: #b0b0b0; stroke-width: 0.8; stroke-linecap: square"/>
     </g>
     <g id="line2d_34">
      <g>
       <use xlink:href="#m4695aa3f09" x="61.348438" y="264.384706" style="stroke: #000000; stroke-width: 0.8"/>
      </g>
     </g>
     <g id="text_18">
      <!-- 400 -->
      <g transform="translate(25.717188 270.083534) scale(0.15 -0.15)">
       <use xlink:href="#DejaVuSans-34"/>
       <use xlink:href="#DejaVuSans-30" x="63.623047"/>
       <use xlink:href="#DejaVuSans-30" x="127.246094"/>
      </g>
     </g>
    </g>
    <g id="ytick_6">
     <g id="line2d_35">
      <path d="M 61.348438 212.205882 
L 619.348438 212.205882 
" clip-path="url(#p3575962583)" style="fill: none; stroke: #b0b0b0; stroke-width: 0.8; stroke-linecap: square"/>
     </g>
     <g id="line2d_36">
      <g>
       <use xlink:href="#m4695aa3f09" x="61.348438" y="212.205882" style="stroke: #000000; stroke-width: 0.8"/>
      </g>
     </g>
     <g id="text_19">
      <!-- 500 -->
      <g transform="translate(25.717188 217.90471) scale(0.15 -0.15)">
       <use xlink:href="#DejaVuSans-35"/>
       <use xlink:href="#DejaVuSans-30" x="63.623047"/>
       <use xlink:href="#DejaVuSans-30" x="127.246094"/>
      </g>
     </g>
    </g>
    <g id="ytick_7">
     <g id="line2d_37">
      <path d="M 61.348438 160.027059 
L 619.348438 160.027059 
" clip-path="url(#p3575962583)" style="fill: none; stroke: #b0b0b0; stroke-width: 0.8; stroke-linecap: square"/>
     </g>
     <g id="line2d_38">
      <g>
       <use xlink:href="#m4695aa3f09" x="61.348438" y="160.027059" style="stroke: #000000; stroke-width: 0.8"/>
      </g>
     </g>
     <g id="text_20">
      <!-- 600 -->
      <g transform="translate(25.717188 165.725887) scale(0.15 -0.15)">
       <use xlink:href="#DejaVuSans-36"/>
       <use xlink:href="#DejaVuSans-30" x="63.623047"/>
       <use xlink:href="#DejaVuSans-30" x="127.246094"/>
      </g>
     </g>
    </g>
    <g id="ytick_8">
     <g id="line2d_39">
      <path d="M 61.348438 107.848235 
L 619.348438 107.848235 
" clip-path="url(#p3575962583)" style="fill: none; stroke: #b0b0b0; stroke-width: 0.8; stroke-linecap: square"/>
     </g>
     <g id="line2d_40">
      <g>
       <use xlink:href="#m4695aa3f09" x="61.348438" y="107.848235" style="stroke: #000000; stroke-width: 0.8"/>
      </g>
     </g>
     <g id="text_21">
      <!-- 700 -->
      <g transform="translate(25.717188 113.547063) scale(0.15 -0.15)">
       <defs>
        <path id="DejaVuSans-37" d="M 525 4666 
L 3525 4666 
L 3525 4397 
L 1831 0 
L 1172 0 
L 2766 4134 
L 525 4134 
L 525 4666 
z
" transform="scale(0.015625)"/>
       </defs>
       <use xlink:href="#DejaVuSans-37"/>
       <use xlink:href="#DejaVuSans-30" x="63.623047"/>
       <use xlink:href="#DejaVuSans-30" x="127.246094"/>
      </g>
     </g>
    </g>
    <g id="ytick_9">
     <g id="line2d_41">
      <path d="M 61.348438 55.669412 
L 619.348438 55.669412 
" clip-path="url(#p3575962583)" style="fill: none; stroke: #b0b0b0; stroke-width: 0.8; stroke-linecap: square"/>
     </g>
     <g id="line2d_42">
      <g>
       <use xlink:href="#m4695aa3f09" x="61.348438" y="55.669412" style="stroke: #000000; stroke-width: 0.8"/>
      </g>
     </g>
     <g id="text_22">
      <!-- 800 -->
      <g transform="translate(25.717188 61.36824) scale(0.15 -0.15)">
       <use xlink:href="#DejaVuSans-38"/>
       <use xlink:href="#DejaVuSans-30" x="63.623047"/>
       <use xlink:href="#DejaVuSans-30" x="127.246094"/>
      </g>
     </g>
    </g>
    <g id="text_23">
     <!-- Laufzeit [Millisekunden] -->
     <g transform="translate(18.597656 340.390781) rotate(-90) scale(0.15 -0.15)">
      <defs>
       <path id="DejaVuSans-4c" d="M 628 4666 
L 1259 4666 
L 1259 531 
L 3531 531 
L 3531 0 
L 628 0 
L 628 4666 
z
" transform="scale(0.015625)"/>
       <path id="DejaVuSans-75" d="M 544 1381 
L 544 3500 
L 1119 3500 
L 1119 1403 
Q 1119 906 1312 657 
Q 1506 409 1894 409 
Q 2359 409 2629 706 
Q 2900 1003 2900 1516 
L 2900 3500 
L 3475 3500 
L 3475 0 
L 2900 0 
L 2900 538 
Q 2691 219 2414 64 
Q 2138 -91 1772 -91 
Q 1169 -91 856 284 
Q 544 659 544 1381 
z
M 1991 3584 
L 1991 3584 
z
" transform="scale(0.015625)"/>
       <path id="DejaVuSans-66" d="M 2375 4863 
L 2375 4384 
L 1825 4384 
Q 1516 4384 1395 4259 
Q 1275 4134 1275 3809 
L 1275 3500 
L 2222 3500 
L 2222 3053 
L 1275 3053 
L 1275 0 
L 697 0 
L 697 3053 
L 147 3053 
L 147 3500 
L 697 3500 
L 697 3744 
Q 697 4328 969 4595 
Q 1241 4863 1831 4863 
L 2375 4863 
z
" transform="scale(0.015625)"/>
       <path id="DejaVuSans-65" d="M 3597 1894 
L 3597 1613 
L 953 1613 
Q 991 1019 1311 708 
Q 1631 397 2203 397 
Q 2534 397 2845 478 
Q 3156 559 3463 722 
L 3463 178 
Q 3153 47 2828 -22 
Q 2503 -91 2169 -91 
Q 1331 -91 842 396 
Q 353 884 353 1716 
Q 353 2575 817 3079 
Q 1281 3584 2069 3584 
Q 2775 3584 3186 3129 
Q 3597 2675 3597 1894 
z
M 3022 2063 
Q 3016 2534 2758 2815 
Q 2500 3097 2075 3097 
Q 1594 3097 1305 2825 
Q 1016 2553 972 2059 
L 3022 2063 
z
" transform="scale(0.015625)"/>
       <path id="DejaVuSans-69" d="M 603 3500 
L 1178 3500 
L 1178 0 
L 603 0 
L 603 3500 
z
M 603 4863 
L 1178 4863 
L 1178 4134 
L 603 4134 
L 603 4863 
z
" transform="scale(0.015625)"/>
       <path id="DejaVuSans-74" d="M 1172 4494 
L 1172 3500 
L 2356 3500 
L 2356 3053 
L 1172 3053 
L 1172 1153 
Q 1172 725 1289 603 
Q 1406 481 1766 481 
L 2356 481 
L 2356 0 
L 1766 0 
Q 1100 0 847 248 
Q 594 497 594 1153 
L 594 3053 
L 172 3053 
L 172 3500 
L 594 3500 
L 594 4494 
L 1172 4494 
z
" transform="scale(0.015625)"/>
       <path id="DejaVuSans-5b" d="M 550 4863 
L 1875 4863 
L 1875 4416 
L 1125 4416 
L 1125 -397 
L 1875 -397 
L 1875 -844 
L 550 -844 
L 550 4863 
z
" transform="scale(0.015625)"/>
       <path id="DejaVuSans-4d" d="M 628 4666 
L 1569 4666 
L 2759 1491 
L 3956 4666 
L 4897 4666 
L 4897 0 
L 4281 0 
L 4281 4097 
L 3078 897 
L 2444 897 
L 1241 4097 
L 1241 0 
L 628 0 
L 628 4666 
z
" transform="scale(0.015625)"/>
       <path id="DejaVuSans-6b" d="M 581 4863 
L 1159 4863 
L 1159 1991 
L 2875 3500 
L 3609 3500 
L 1753 1863 
L 3688 0 
L 2938 0 
L 1159 1709 
L 1159 0 
L 581 0 
L 581 4863 
z
" transform="scale(0.015625)"/>
       <path id="DejaVuSans-64" d="M 2906 2969 
L 2906 4863 
L 3481 4863 
L 3481 0 
L 2906 0 
L 2906 525 
Q 2725 213 2448 61 
Q 2172 -91 1784 -91 
Q 1150 -91 751 415 
Q 353 922 353 1747 
Q 353 2572 751 3078 
Q 1150 3584 1784 3584 
Q 2172 3584 2448 3432 
Q 2725 3281 2906 2969 
z
M 947 1747 
Q 947 1113 1208 752 
Q 1469 391 1925 391 
Q 2381 391 2643 752 
Q 2906 1113 2906 1747 
Q 2906 2381 2643 2742 
Q 2381 3103 1925 3103 
Q 1469 3103 1208 2742 
Q 947 2381 947 1747 
z
" transform="scale(0.015625)"/>
       <path id="DejaVuSans-5d" d="M 1947 4863 
L 1947 -844 
L 622 -844 
L 622 -397 
L 1369 -397 
L 1369 4416 
L 622 4416 
L 622 4863 
L 1947 4863 
z
" transform="scale(0.015625)"/>
      </defs>
      <use xlink:href="#DejaVuSans-4c"/>
      <use xlink:href="#DejaVuSans-61" x="55.712891"/>
      <use xlink:href="#DejaVuSans-75" x="116.992188"/>
      <use xlink:href="#DejaVuSans-66" x="180.371094"/>
      <use xlink:href="#DejaVuSans-7a" x="215.576172"/>
      <use xlink:href="#DejaVuSans-65" x="268.066406"/>
      <use xlink:href="#DejaVuSans-69" x="329.589844"/>
      <use xlink:href="#DejaVuSans-74" x="357.373047"/>
      <use xlink:href="#DejaVuSans-20" x="396.582031"/>
      <use xlink:href="#DejaVuSans-5b" x="428.369141"/>
      <use xlink:href="#DejaVuSans-4d" x="467.382812"/>
      <use xlink:href="#DejaVuSans-69" x="553.662109"/>
      <use xlink:href="#DejaVuSans-6c" x="581.445312"/>
      <use xlink:href="#DejaVuSans-6c" x="609.228516"/>
      <use xlink:href="#DejaVuSans-69" x="637.011719"/>
      <use xlink:href="#DejaVuSans-73" x="664.794922"/>
      <use xlink:href="#DejaVuSans-65" x="716.894531"/>
      <use xlink:href="#DejaVuSans-6b" x="778.417969"/>
      <use xlink:href="#DejaVuSans-75" x="833.203125"/>
      <use xlink:href="#DejaVuSans-6e" x="896.582031"/>
      <use xlink:href="#DejaVuSans-64" x="959.960938"/>
      <use xlink:href="#DejaVuSans-65" x="1023.4375"/>
      <use xlink:href="#DejaVuSans-6e" x="1084.960938"/>
      <use xlink:href="#DejaVuSans-5d" x="1148.339844"/>
     </g>
    </g>
   </g>
   <g id="line2d_43">
    <path d="M 86.712074 431.399597 
L 132.827776 408.810472 
L 178.943479 394.092652 
L 225.059181 367.82805 
L 271.174884 356.852104 
L 317.290586 331.021629 
L 363.406289 316.47026 
L 409.521991 289.306095 
L 455.637694 269.928836 
L 501.753396 250.39765 
L 547.869099 233.192597 
L 593.984801 210.020242 
" clip-path="url(#p3575962583)" style="fill: none; stroke: #02008f; stroke-width: 1.5; stroke-linecap: square"/>
    <defs>
     <path id="mbeb60c70cd" d="M 0 3 
C 0.795609 3 1.55874 2.683901 2.12132 2.12132 
C 2.683901 1.55874 3 0.795609 3 0 
C 3 -0.795609 2.683901 -1.55874 2.12132 -2.12132 
C 1.55874 -2.683901 0.795609 -3 0 -3 
C -0.795609 -3 -1.55874 -2.683901 -2.12132 -2.12132 
C -2.683901 -1.55874 -3 -0.795609 -3 0 
C -3 0.795609 -2.683901 1.55874 -2.12132 2.12132 
C -1.55874 2.683901 -0.795609 3 0 3 
z
" style="stroke: #02008f"/>
    </defs>
    <g clip-path="url(#p3575962583)">
     <use xlink:href="#mbeb60c70cd" x="86.712074" y="431.399597" style="fill: #02008f; stroke: #02008f"/>
     <use xlink:href="#mbeb60c70cd" x="132.827776" y="408.810472" style="fill: #02008f; stroke: #02008f"/>
     <use xlink:href="#mbeb60c70cd" x="178.943479" y="394.092652" style="fill: #02008f; stroke: #02008f"/>
     <use xlink:href="#mbeb60c70cd" x="225.059181" y="367.82805" style="fill: #02008f; stroke: #02008f"/>
     <use xlink:href="#mbeb60c70cd" x="271.174884" y="356.852104" style="fill: #02008f; stroke: #02008f"/>
     <use xlink:href="#mbeb60c70cd" x="317.290586" y="331.021629" style="fill: #02008f; stroke: #02008f"/>
     <use xlink:href="#mbeb60c70cd" x="363.406289" y="316.47026" style="fill: #02008f; stroke: #02008f"/>
     <use xlink:href="#mbeb60c70cd" x="409.521991" y="289.306095" style="fill: #02008f; stroke: #02008f"/>
     <use xlink:href="#mbeb60c70cd" x="455.637694" y="269.928836" style="fill: #02008f; stroke: #02008f"/>
     <use xlink:href="#mbeb60c70cd" x="501.753396" y="250.39765" style="fill: #02008f; stroke: #02008f"/>
     <use xlink:href="#mbeb60c70cd" x="547.869099" y="233.192597" style="fill: #02008f; stroke: #02008f"/>
     <use xlink:href="#mbeb60c70cd" x="593.984801" y="210.020242" style="fill: #02008f; stroke: #02008f"/>
    </g>
   </g>
   <g id="line2d_44">
    <path d="M 86.712074 430.908986 
L 132.827776 408.309555 
L 178.943479 381.674744 
L 225.059181 362.781575 
L 271.174884 343.16612 
L 317.290586 309.36533 
L 363.406289 300.043975 
L 409.521991 276.382965 
L 455.637694 244.994142 
L 501.753396 223.659395 
L 547.869099 208.192418 
L 593.984801 197.153205 
" clip-path="url(#p3575962583)" style="fill: none; stroke: #000000; stroke-width: 1.5; stroke-linecap: square"/>
    <defs>
     <path id="m40d1022444" d="M -3 3 
L 3 -3 
M -3 -3 
L 3 3 
" style="stroke: #000000"/>
    </defs>
    <g clip-path="url(#p3575962583)">
     <use xlink:href="#m40d1022444" x="86.712074" y="430.908986" style="stroke: #000000"/>
     <use xlink:href="#m40d1022444" x="132.827776" y="408.309555" style="stroke: #000000"/>
     <use xlink:href="#m40d1022444" x="178.943479" y="381.674744" style="stroke: #000000"/>
     <use xlink:href="#m40d1022444" x="225.059181" y="362.781575" style="stroke: #000000"/>
     <use xlink:href="#m40d1022444" x="271.174884" y="343.16612" style="stroke: #000000"/>
     <use xlink:href="#m40d1022444" x="317.290586" y="309.36533" style="stroke: #000000"/>
     <use xlink:href="#m40d1022444" x="363.406289" y="300.043975" style="stroke: #000000"/>
     <use xlink:href="#m40d1022444" x="409.521991" y="276.382965" style="stroke: #000000"/>
     <use xlink:href="#m40d1022444" x="455.637694" y="244.994142" style="stroke: #000000"/>
     <use xlink:href="#m40d1022444" x="501.753396" y="223.659395" style="stroke: #000000"/>
     <use xlink:href="#m40d1022444" x="547.869099" y="208.192418" style="stroke: #000000"/>
     <use xlink:href="#m40d1022444" x="593.984801" y="197.153205" style="stroke: #000000"/>
    </g>
   </g>
   <g id="line2d_45">
    <path d="M 86.712074 431.506173 
L 132.827776 408.671285 
L 178.943479 390.622108 
L 225.059181 368.185996 
L 271.174884 353.033657 
L 317.290586 332.043812 
L 363.406289 309.33011 
L 409.521991 282.68108 
L 455.637694 270.371965 
L 501.753396 243.335377 
L 547.869099 229.316101 
L 593.984801 200.006734 
" clip-path="url(#p3575962583)" style="fill: none; stroke: #02a131; stroke-width: 1.5; stroke-linecap: square"/>
    <defs>
     <path id="m3ea587f746" d="M 0 -3 
L -0.673542 -0.927051 
L -2.85317 -0.927051 
L -1.089814 0.354102 
L -1.763356 2.427051 
L -0 1.145898 
L 1.763356 2.427051 
L 1.089814 0.354102 
L 2.85317 -0.927051 
L 0.673542 -0.927051 
z
" style="stroke: #02a131; stroke-linejoin: bevel"/>
    </defs>
    <g clip-path="url(#p3575962583)">
     <use xlink:href="#m3ea587f746" x="86.712074" y="431.506173" style="fill: #02a131; stroke: #02a131; stroke-linejoin: bevel"/>
     <use xlink:href="#m3ea587f746" x="132.827776" y="408.671285" style="fill: #02a131; stroke: #02a131; stroke-linejoin: bevel"/>
     <use xlink:href="#m3ea587f746" x="178.943479" y="390.622108" style="fill: #02a131; stroke: #02a131; stroke-linejoin: bevel"/>
     <use xlink:href="#m3ea587f746" x="225.059181" y="368.185996" style="fill: #02a131; stroke: #02a131; stroke-linejoin: bevel"/>
     <use xlink:href="#m3ea587f746" x="271.174884" y="353.033657" style="fill: #02a131; stroke: #02a131; stroke-linejoin: bevel"/>
     <use xlink:href="#m3ea587f746" x="317.290586" y="332.043812" style="fill: #02a131; stroke: #02a131; stroke-linejoin: bevel"/>
     <use xlink:href="#m3ea587f746" x="363.406289" y="309.33011" style="fill: #02a131; stroke: #02a131; stroke-linejoin: bevel"/>
     <use xlink:href="#m3ea587f746" x="409.521991" y="282.68108" style="fill: #02a131; stroke: #02a131; stroke-linejoin: bevel"/>
     <use xlink:href="#m3ea587f746" x="455.637694" y="270.371965" style="fill: #02a131; stroke: #02a131; stroke-linejoin: bevel"/>
     <use xlink:href="#m3ea587f746" x="501.753396" y="243.335377" style="fill: #02a131; stroke: #02a131; stroke-linejoin: bevel"/>
     <use xlink:href="#m3ea587f746" x="547.869099" y="229.316101" style="fill: #02a131; stroke: #02a131; stroke-linejoin: bevel"/>
     <use xlink:href="#m3ea587f746" x="593.984801" y="200.006734" style="fill: #02a131; stroke: #02a131; stroke-linejoin: bevel"/>
    </g>
   </g>
   <g id="line2d_46">
    <path d="M 86.712074 431.142878 
L 132.827776 408.397998 
L 178.943479 389.087528 
L 225.059181 354.066407 
L 271.174884 330.949622 
L 317.290586 323.062924 
L 363.406289 289.94959 
L 409.521991 268.788859 
L 455.637694 249.099572 
L 501.753396 201.547705 
L 547.869099 180.606909 
L 593.984801 167.235433 
" clip-path="url(#p3575962583)" style="fill: none; stroke: #f7930f; stroke-width: 1.5; stroke-linecap: square"/>
    <defs>
     <path id="me5511de2be" d="M -0 4.242641 
L 4.242641 0 
L 0 -4.242641 
L -4.242641 -0 
z
" style="stroke: #f7930f; stroke-linejoin: miter"/>
    </defs>
    <g clip-path="url(#p3575962583)">
     <use xlink:href="#me5511de2be" x="86.712074" y="431.142878" style="fill: #f7930f; stroke: #f7930f; stroke-linejoin: miter"/>
     <use xlink:href="#me5511de2be" x="132.827776" y="408.397998" style="fill: #f7930f; stroke: #f7930f; stroke-linejoin: miter"/>
     <use xlink:href="#me5511de2be" x="178.943479" y="389.087528" style="fill: #f7930f; stroke: #f7930f; stroke-linejoin: miter"/>
     <use xlink:href="#me5511de2be" x="225.059181" y="354.066407" style="fill: #f7930f; stroke: #f7930f; stroke-linejoin: miter"/>
     <use xlink:href="#me5511de2be" x="271.174884" y="330.949622" style="fill: #f7930f; stroke: #f7930f; stroke-linejoin: miter"/>
     <use xlink:href="#me5511de2be" x="317.290586" y="323.062924" style="fill: #f7930f; stroke: #f7930f; stroke-linejoin: miter"/>
     <use xlink:href="#me5511de2be" x="363.406289" y="289.94959" style="fill: #f7930f; stroke: #f7930f; stroke-linejoin: miter"/>
     <use xlink:href="#me5511de2be" x="409.521991" y="268.788859" style="fill: #f7930f; stroke: #f7930f; stroke-linejoin: miter"/>
     <use xlink:href="#me5511de2be" x="455.637694" y="249.099572" style="fill: #f7930f; stroke: #f7930f; stroke-linejoin: miter"/>
     <use xlink:href="#me5511de2be" x="501.753396" y="201.547705" style="fill: #f7930f; stroke: #f7930f; stroke-linejoin: miter"/>
     <use xlink:href="#me5511de2be" x="547.869099" y="180.606909" style="fill: #f7930f; stroke: #f7930f; stroke-linejoin: miter"/>
     <use xlink:href="#me5511de2be" x="593.984801" y="167.235433" style="fill: #f7930f; stroke: #f7930f; stroke-linejoin: miter"/>
    </g>
   </g>
   <g id="line2d_47">
    <path d="M 86.712074 431.382509 
L 132.827776 408.301467 
L 178.943479 388.228926 
L 225.059181 344.567121 
L 271.174884 277.3531 
L 317.290586 266.340499 
L 363.406289 237.489523 
L 409.521991 204.182866 
L 455.637694 144.146825 
L 501.753396 113.792969 
L 547.869099 96.480687 
L 593.984801 59.89694 
" clip-path="url(#p3575962583)" style="fill: none; stroke: #de1f1f; stroke-width: 1.5; stroke-linecap: square"/>
    <defs>
     <path id="m93c191e9bc" d="M -3 3 
L 3 3 
L 3 -3 
L -3 -3 
z
" style="stroke: #de1f1f; stroke-linejoin: miter"/>
    </defs>
    <g clip-path="url(#p3575962583)">
     <use xlink:href="#m93c191e9bc" x="86.712074" y="431.382509" style="fill: #de1f1f; stroke: #de1f1f; stroke-linejoin: miter"/>
     <use xlink:href="#m93c191e9bc" x="132.827776" y="408.301467" style="fill: #de1f1f; stroke: #de1f1f; stroke-linejoin: miter"/>
     <use xlink:href="#m93c191e9bc" x="178.943479" y="388.228926" style="fill: #de1f1f; stroke: #de1f1f; stroke-linejoin: miter"/>
     <use xlink:href="#m93c191e9bc" x="225.059181" y="344.567121" style="fill: #de1f1f; stroke: #de1f1f; stroke-linejoin: miter"/>
     <use xlink:href="#m93c191e9bc" x="271.174884" y="277.3531" style="fill: #de1f1f; stroke: #de1f1f; stroke-linejoin: miter"/>
     <use xlink:href="#m93c191e9bc" x="317.290586" y="266.340499" style="fill: #de1f1f; stroke: #de1f1f; stroke-linejoin: miter"/>
     <use xlink:href="#m93c191e9bc" x="363.406289" y="237.489523" style="fill: #de1f1f; stroke: #de1f1f; stroke-linejoin: miter"/>
     <use xlink:href="#m93c191e9bc" x="409.521991" y="204.182866" style="fill: #de1f1f; stroke: #de1f1f; stroke-linejoin: miter"/>
     <use xlink:href="#m93c191e9bc" x="455.637694" y="144.146825" style="fill: #de1f1f; stroke: #de1f1f; stroke-linejoin: miter"/>
     <use xlink:href="#m93c191e9bc" x="501.753396" y="113.792969" style="fill: #de1f1f; stroke: #de1f1f; stroke-linejoin: miter"/>
     <use xlink:href="#m93c191e9bc" x="547.869099" y="96.480687" style="fill: #de1f1f; stroke: #de1f1f; stroke-linejoin: miter"/>
     <use xlink:href="#m93c191e9bc" x="593.984801" y="59.89694" style="fill: #de1f1f; stroke: #de1f1f; stroke-linejoin: miter"/>
    </g>
   </g>
   <g id="patch_3">
    <path d="M 61.348438 473.1 
L 61.348438 29.58 
" style="fill: none; stroke: #000000; stroke-width: 0.8; stroke-linejoin: miter; stroke-linecap: square"/>
   </g>
   <g id="patch_4">
    <path d="M 619.348438 473.1 
L 619.348438 29.58 
" style="fill: none; stroke: #000000; stroke-width: 0.8; stroke-linejoin: miter; stroke-linecap: square"/>
   </g>
   <g id="patch_5">
    <path d="M 61.348438 473.1 
L 619.348438 473.1 
" style="fill: none; stroke: #000000; stroke-width: 0.8; stroke-linejoin: miter; stroke-linecap: square"/>
   </g>
   <g id="patch_6">
    <path d="M 61.348438 29.58 
L 619.348438 29.58 
" style="fill: none; stroke: #000000; stroke-width: 0.8; stroke-linejoin: miter; stroke-linecap: square"/>
   </g>
   <g id="text_24">
    <!-- RHG Graph mit $n=2^{18}$ und $m/p=2^{20}$ -->
    <g transform="translate(173.038437 23.58) scale(0.18 -0.18)">
     <defs>
      <path id="DejaVuSans-52" d="M 2841 2188 
Q 3044 2119 3236 1894 
Q 3428 1669 3622 1275 
L 4263 0 
L 3584 0 
L 2988 1197 
Q 2756 1666 2539 1819 
Q 2322 1972 1947 1972 
L 1259 1972 
L 1259 0 
L 628 0 
L 628 4666 
L 2053 4666 
Q 2853 4666 3247 4331 
Q 3641 3997 3641 3322 
Q 3641 2881 3436 2590 
Q 3231 2300 2841 2188 
z
M 1259 4147 
L 1259 2491 
L 2053 2491 
Q 2509 2491 2742 2702 
Q 2975 2913 2975 3322 
Q 2975 3731 2742 3939 
Q 2509 4147 2053 4147 
L 1259 4147 
z
" transform="scale(0.015625)"/>
      <path id="DejaVuSans-48" d="M 628 4666 
L 1259 4666 
L 1259 2753 
L 3553 2753 
L 3553 4666 
L 4184 4666 
L 4184 0 
L 3553 0 
L 3553 2222 
L 1259 2222 
L 1259 0 
L 628 0 
L 628 4666 
z
" transform="scale(0.015625)"/>
      <path id="DejaVuSans-47" d="M 3809 666 
L 3809 1919 
L 2778 1919 
L 2778 2438 
L 4434 2438 
L 4434 434 
Q 4069 175 3628 42 
Q 3188 -91 2688 -91 
Q 1594 -91 976 548 
Q 359 1188 359 2328 
Q 359 3472 976 4111 
Q 1594 4750 2688 4750 
Q 3144 4750 3555 4637 
Q 3966 4525 4313 4306 
L 4313 3634 
Q 3963 3931 3569 4081 
Q 3175 4231 2741 4231 
Q 1884 4231 1454 3753 
Q 1025 3275 1025 2328 
Q 1025 1384 1454 906 
Q 1884 428 2741 428 
Q 3075 428 3337 486 
Q 3600 544 3809 666 
z
" transform="scale(0.015625)"/>
      <path id="DejaVuSans-72" d="M 2631 2963 
Q 2534 3019 2420 3045 
Q 2306 3072 2169 3072 
Q 1681 3072 1420 2755 
Q 1159 2438 1159 1844 
L 1159 0 
L 581 0 
L 581 3500 
L 1159 3500 
L 1159 2956 
Q 1341 3275 1631 3429 
Q 1922 3584 2338 3584 
Q 2397 3584 2469 3576 
Q 2541 3569 2628 3553 
L 2631 2963 
z
" transform="scale(0.015625)"/>
      <path id="DejaVuSans-70" d="M 1159 525 
L 1159 -1331 
L 581 -1331 
L 581 3500 
L 1159 3500 
L 1159 2969 
Q 1341 3281 1617 3432 
Q 1894 3584 2278 3584 
Q 2916 3584 3314 3078 
Q 3713 2572 3713 1747 
Q 3713 922 3314 415 
Q 2916 -91 2278 -91 
Q 1894 -91 1617 61 
Q 1341 213 1159 525 
z
M 3116 1747 
Q 3116 2381 2855 2742 
Q 2594 3103 2138 3103 
Q 1681 3103 1420 2742 
Q 1159 2381 1159 1747 
Q 1159 1113 1420 752 
Q 1681 391 2138 391 
Q 2594 391 2855 752 
Q 3116 1113 3116 1747 
z
" transform="scale(0.015625)"/>
      <path id="DejaVuSans-6d" d="M 3328 2828 
Q 3544 3216 3844 3400 
Q 4144 3584 4550 3584 
Q 5097 3584 5394 3201 
Q 5691 2819 5691 2113 
L 5691 0 
L 5113 0 
L 5113 2094 
Q 5113 2597 4934 2840 
Q 4756 3084 4391 3084 
Q 3944 3084 3684 2787 
Q 3425 2491 3425 1978 
L 3425 0 
L 2847 0 
L 2847 2094 
Q 2847 2600 2669 2842 
Q 2491 3084 2119 3084 
Q 1678 3084 1418 2786 
Q 1159 2488 1159 1978 
L 1159 0 
L 581 0 
L 581 3500 
L 1159 3500 
L 1159 2956 
Q 1356 3278 1631 3431 
Q 1906 3584 2284 3584 
Q 2666 3584 2933 3390 
Q 3200 3197 3328 2828 
z
" transform="scale(0.015625)"/>
      <path id="DejaVuSans-Oblique-6e" d="M 3566 2113 
L 3156 0 
L 2578 0 
L 2988 2091 
Q 3016 2238 3031 2350 
Q 3047 2463 3047 2528 
Q 3047 2791 2881 2937 
Q 2716 3084 2419 3084 
Q 1956 3084 1622 2776 
Q 1288 2469 1184 1941 
L 800 0 
L 225 0 
L 903 3500 
L 1478 3500 
L 1363 2950 
Q 1603 3253 1940 3418 
Q 2278 3584 2650 3584 
Q 3113 3584 3367 3334 
Q 3622 3084 3622 2631 
Q 3622 2519 3608 2391 
Q 3594 2263 3566 2113 
z
" transform="scale(0.015625)"/>
      <path id="DejaVuSans-3d" d="M 678 2906 
L 4684 2906 
L 4684 2381 
L 678 2381 
L 678 2906 
z
M 678 1631 
L 4684 1631 
L 4684 1100 
L 678 1100 
L 678 1631 
z
" transform="scale(0.015625)"/>
      <path id="DejaVuSans-Oblique-6d" d="M 5747 2113 
L 5338 0 
L 4763 0 
L 5166 2094 
Q 5191 2228 5203 2325 
Q 5216 2422 5216 2491 
Q 5216 2772 5059 2928 
Q 4903 3084 4622 3084 
Q 4203 3084 3875 2770 
Q 3547 2456 3450 1953 
L 3066 0 
L 2491 0 
L 2900 2094 
Q 2925 2209 2937 2307 
Q 2950 2406 2950 2484 
Q 2950 2769 2794 2926 
Q 2638 3084 2363 3084 
Q 1938 3084 1609 2770 
Q 1281 2456 1184 1953 
L 800 0 
L 225 0 
L 909 3500 
L 1484 3500 
L 1375 2956 
Q 1609 3263 1923 3423 
Q 2238 3584 2597 3584 
Q 2978 3584 3223 3384 
Q 3469 3184 3519 2828 
Q 3781 3197 4126 3390 
Q 4472 3584 4856 3584 
Q 5306 3584 5551 3325 
Q 5797 3066 5797 2591 
Q 5797 2488 5784 2364 
Q 5772 2241 5747 2113 
z
" transform="scale(0.015625)"/>
      <path id="DejaVuSans-2f" d="M 1625 4666 
L 2156 4666 
L 531 -594 
L 0 -594 
L 1625 4666 
z
" transform="scale(0.015625)"/>
      <path id="DejaVuSans-Oblique-70" d="M 3175 2156 
Q 3175 2616 2975 2859 
Q 2775 3103 2400 3103 
Q 2144 3103 1911 2972 
Q 1678 2841 1497 2591 
Q 1319 2344 1212 1994 
Q 1106 1644 1106 1300 
Q 1106 863 1306 627 
Q 1506 391 1875 391 
Q 2147 391 2380 519 
Q 2613 647 2778 891 
Q 2956 1147 3065 1494 
Q 3175 1841 3175 2156 
z
M 1394 2969 
Q 1625 3272 1939 3428 
Q 2253 3584 2638 3584 
Q 3175 3584 3472 3232 
Q 3769 2881 3769 2247 
Q 3769 1728 3584 1258 
Q 3400 788 3053 416 
Q 2822 169 2531 39 
Q 2241 -91 1919 -91 
Q 1547 -91 1294 64 
Q 1041 219 916 525 
L 556 -1331 
L -19 -1331 
L 922 3500 
L 1497 3500 
L 1394 2969 
z
" transform="scale(0.015625)"/>
     </defs>
     <use xlink:href="#DejaVuSans-52" transform="translate(0 0.765625)"/>
     <use xlink:href="#DejaVuSans-48" transform="translate(69.482422 0.765625)"/>
     <use xlink:href="#DejaVuSans-47" transform="translate(144.677734 0.765625)"/>
     <use xlink:href="#DejaVuSans-20" transform="translate(222.167969 0.765625)"/>
     <use xlink:href="#DejaVuSans-47" transform="translate(253.955078 0.765625)"/>
     <use xlink:href="#DejaVuSans-72" transform="translate(331.445312 0.765625)"/>
     <use xlink:href="#DejaVuSans-61" transform="translate(372.558594 0.765625)"/>
     <use xlink:href="#DejaVuSans-70" transform="translate(433.837891 0.765625)"/>
     <use xlink:href="#DejaVuSans-68" transform="translate(497.314453 0.765625)"/>
     <use xlink:href="#DejaVuSans-20" transform="translate(560.693359 0.765625)"/>
     <use xlink:href="#DejaVuSans-6d" transform="translate(592.480469 0.765625)"/>
     <use xlink:href="#DejaVuSans-69" transform="translate(689.892578 0.765625)"/>
     <use xlink:href="#DejaVuSans-74" transform="translate(717.675781 0.765625)"/>
     <use xlink:href="#DejaVuSans-20" transform="translate(756.884766 0.765625)"/>
     <use xlink:href="#DejaVuSans-Oblique-6e" transform="translate(788.671875 0.765625)"/>
     <use xlink:href="#DejaVuSans-3d" transform="translate(871.533203 0.765625)"/>
     <use xlink:href="#DejaVuSans-32" transform="translate(974.804688 0.765625)"/>
     <use xlink:href="#DejaVuSans-31" transform="translate(1039.384766 39.046875) scale(0.7)"/>
     <use xlink:href="#DejaVuSans-38" transform="translate(1083.920898 39.046875) scale(0.7)"/>
     <use xlink:href="#DejaVuSans-20" transform="translate(1131.191406 0.765625)"/>
     <use xlink:href="#DejaVuSans-75" transform="translate(1162.978516 0.765625)"/>
     <use xlink:href="#DejaVuSans-6e" transform="translate(1226.357422 0.765625)"/>
     <use xlink:href="#DejaVuSans-64" transform="translate(1289.736328 0.765625)"/>
     <use xlink:href="#DejaVuSans-20" transform="translate(1353.212891 0.765625)"/>
     <use xlink:href="#DejaVuSans-Oblique-6d" transform="translate(1385 0.765625)"/>
     <use xlink:href="#DejaVuSans-2f" transform="translate(1482.412109 0.765625)"/>
     <use xlink:href="#DejaVuSans-Oblique-70" transform="translate(1516.103516 0.765625)"/>
     <use xlink:href="#DejaVuSans-3d" transform="translate(1599.0625 0.765625)"/>
     <use xlink:href="#DejaVuSans-32" transform="translate(1702.333984 0.765625)"/>
     <use xlink:href="#DejaVuSans-32" transform="translate(1766.914062 39.046875) scale(0.7)"/>
     <use xlink:href="#DejaVuSans-30" transform="translate(1811.450195 39.046875) scale(0.7)"/>
    </g>
   </g>
   <g id="legend_1">
    <g id="patch_7">
     <path d="M 71.848438 151.665937 
L 172.589844 151.665937 
Q 175.589844 151.665937 175.589844 148.665937 
L 175.589844 40.08 
Q 175.589844 37.08 172.589844 37.08 
L 71.848438 37.08 
Q 68.848438 37.08 68.848438 40.08 
L 68.848438 148.665937 
Q 68.848438 151.665937 71.848438 151.665937 
z
" style="fill: #ffffff; opacity: 0.8; stroke: #cccccc; stroke-linejoin: miter"/>
    </g>
    <g id="line2d_48">
     <path d="M 74.848438 49.227656 
L 89.848438 49.227656 
L 104.848438 49.227656 
" style="fill: none; stroke: #02008f; stroke-width: 1.5; stroke-linecap: square"/>
     <g>
      <use xlink:href="#mbeb60c70cd" x="89.848438" y="49.227656" style="fill: #02008f; stroke: #02008f"/>
     </g>
    </g>
    <g id="text_25">
     <!-- D = 2 -->
     <g transform="translate(116.848438 54.477656) scale(0.15 -0.15)">
      <defs>
       <path id="DejaVuSans-44" d="M 1259 4147 
L 1259 519 
L 2022 519 
Q 2988 519 3436 956 
Q 3884 1394 3884 2338 
Q 3884 3275 3436 3711 
Q 2988 4147 2022 4147 
L 1259 4147 
z
M 628 4666 
L 1925 4666 
Q 3281 4666 3915 4102 
Q 4550 3538 4550 2338 
Q 4550 1131 3912 565 
Q 3275 0 1925 0 
L 628 0 
L 628 4666 
z
" transform="scale(0.015625)"/>
      </defs>
      <use xlink:href="#DejaVuSans-44"/>
      <use xlink:href="#DejaVuSans-20" x="77.001953"/>
      <use xlink:href="#DejaVuSans-3d" x="108.789062"/>
      <use xlink:href="#DejaVuSans-20" x="192.578125"/>
      <use xlink:href="#DejaVuSans-32" x="224.365234"/>
     </g>
    </g>
    <g id="line2d_49">
     <path d="M 74.848438 71.244844 
L 89.848438 71.244844 
L 104.848438 71.244844 
" style="fill: none; stroke: #000000; stroke-width: 1.5; stroke-linecap: square"/>
     <g>
      <use xlink:href="#m40d1022444" x="89.848438" y="71.244844" style="stroke: #000000"/>
     </g>
    </g>
    <g id="text_26">
     <!-- D = 3 -->
     <g transform="translate(116.848438 76.494844) scale(0.15 -0.15)">
      <use xlink:href="#DejaVuSans-44"/>
      <use xlink:href="#DejaVuSans-20" x="77.001953"/>
      <use xlink:href="#DejaVuSans-3d" x="108.789062"/>
      <use xlink:href="#DejaVuSans-20" x="192.578125"/>
      <use xlink:href="#DejaVuSans-33" x="224.365234"/>
     </g>
    </g>
    <g id="line2d_50">
     <path d="M 74.848438 93.262031 
L 89.848438 93.262031 
L 104.848438 93.262031 
" style="fill: none; stroke: #02a131; stroke-width: 1.5; stroke-linecap: square"/>
     <g>
      <use xlink:href="#m3ea587f746" x="89.848438" y="93.262031" style="fill: #02a131; stroke: #02a131; stroke-linejoin: bevel"/>
     </g>
    </g>
    <g id="text_27">
     <!-- D = 4 -->
     <g transform="translate(116.848438 98.512031) scale(0.15 -0.15)">
      <use xlink:href="#DejaVuSans-44"/>
      <use xlink:href="#DejaVuSans-20" x="77.001953"/>
      <use xlink:href="#DejaVuSans-3d" x="108.789062"/>
      <use xlink:href="#DejaVuSans-20" x="192.578125"/>
      <use xlink:href="#DejaVuSans-34" x="224.365234"/>
     </g>
    </g>
    <g id="line2d_51">
     <path d="M 74.848438 115.279219 
L 89.848438 115.279219 
L 104.848438 115.279219 
" style="fill: none; stroke: #f7930f; stroke-width: 1.5; stroke-linecap: square"/>
     <g>
      <use xlink:href="#me5511de2be" x="89.848438" y="115.279219" style="fill: #f7930f; stroke: #f7930f; stroke-linejoin: miter"/>
     </g>
    </g>
    <g id="text_28">
     <!-- D = 8 -->
     <g transform="translate(116.848438 120.529219) scale(0.15 -0.15)">
      <use xlink:href="#DejaVuSans-44"/>
      <use xlink:href="#DejaVuSans-20" x="77.001953"/>
      <use xlink:href="#DejaVuSans-3d" x="108.789062"/>
      <use xlink:href="#DejaVuSans-20" x="192.578125"/>
      <use xlink:href="#DejaVuSans-38" x="224.365234"/>
     </g>
    </g>
    <g id="line2d_52">
     <path d="M 74.848438 137.296406 
L 89.848438 137.296406 
L 104.848438 137.296406 
" style="fill: none; stroke: #de1f1f; stroke-width: 1.5; stroke-linecap: square"/>
     <g>
      <use xlink:href="#m93c191e9bc" x="89.848438" y="137.296406" style="fill: #de1f1f; stroke: #de1f1f; stroke-linejoin: miter"/>
     </g>
    </g>
    <g id="text_29">
     <!-- D = 16 -->
     <g transform="translate(116.848438 142.546406) scale(0.15 -0.15)">
      <use xlink:href="#DejaVuSans-44"/>
      <use xlink:href="#DejaVuSans-20" x="77.001953"/>
      <use xlink:href="#DejaVuSans-3d" x="108.789062"/>
      <use xlink:href="#DejaVuSans-20" x="192.578125"/>
      <use xlink:href="#DejaVuSans-31" x="224.365234"/>
      <use xlink:href="#DejaVuSans-36" x="287.988281"/>
     </g>
    </g>
   </g>
  </g>
 </g>
 <defs>
  <clipPath id="p3575962583">
   <rect x="61.348438" y="29.58" width="558" height="443.52"/>
  </clipPath>
 </defs>
</svg>
